<?xml version="1.0" encoding="UTF-8"?>
<svg width="980px" height="200px" viewBox="0 0 980 200" version="1.1" xmlns="http://www.w3.org/2000/svg" xmlns:xlink="http://www.w3.org/1999/xlink">
    <!-- Generator: Sketch 43.1 (39012) - http://www.bohemiancoding.com/sketch -->
    <title>gitignore</title>
    <desc>Created with Sketch.</desc>
    <defs></defs>
    <g id="gitignore-templates" stroke="none" stroke-width="1" fill="none" fill-rule="evenodd">
        <g id="gitignore">
            <g id="Group" transform="translate(438.000000, -3.000000)">
                <path d="M23.1069048,142.116503 C24.9626971,133.473584 33.4683854,124.963813 42.1165029,123.106905 L76.6766197,115.686218 C85.3195386,113.830426 90.8227081,119.32728 88.9657996,127.975398 L81.5451125,162.535514 C79.6893203,171.178433 71.1836319,179.688204 62.5355145,181.545113 L27.9753976,188.9658 C19.3324788,190.821592 13.8293093,185.324737 15.6862178,176.67662 L23.1069048,142.116503 Z" id="Rectangle" fill="#F44336" opacity="0.5" transform="translate(52.326009, 152.326009) rotate(45.000000) translate(-52.326009, -152.326009) "></path>
                <path d="M23.1069048,122.116503 C24.9626971,113.473584 33.4683854,104.963813 42.1165029,103.106905 L76.6766197,95.6862178 C85.3195386,93.8304255 90.8227081,99.3272802 88.9657996,107.975398 L81.5451125,142.535514 C79.6893203,151.178433 71.1836319,159.688204 62.5355145,161.545113 L27.9753976,168.9658 C19.3324788,170.821592 13.8293093,165.324737 15.6862178,156.67662 L23.1069048,122.116503 Z" id="Rectangle-Copy" fill="#9C27B0" opacity="0.1" transform="translate(52.326009, 132.326009) rotate(45.000000) translate(-52.326009, -132.326009) "></path>
                <path d="M23.1069048,102.116503 C24.9626971,93.473584 33.4683854,84.9638133 42.1165029,83.1069048 L76.6766197,75.6862178 C85.3195386,73.8304255 90.8227081,79.3272802 88.9657996,87.9753976 L81.5451125,122.535514 C79.6893203,131.178433 71.1836319,139.688204 62.5355145,141.545113 L27.9753976,148.9658 C19.3324788,150.821592 13.8293093,145.324737 15.6862178,136.67662 L23.1069048,102.116503 Z" id="Rectangle-Copy-2" fill="#2196F3" opacity="0.1" transform="translate(52.326009, 112.326009) rotate(45.000000) translate(-52.326009, -112.326009) "></path>
                <path d="M23.1069048,82.1165029 C24.9626971,73.473584 33.4683854,64.9638133 42.1165029,63.1069048 L76.6766197,55.6862178 C85.3195386,53.8304255 90.8227081,59.3272802 88.9657996,67.9753976 L81.5451125,102.535514 C79.6893203,111.178433 71.1836319,119.688204 62.5355145,121.545113 L27.9753976,128.9658 C19.3324788,130.821592 13.8293093,125.324737 15.6862178,116.67662 L23.1069048,82.1165029 Z" id="Rectangle-Copy-3" fill="#2196F3" opacity="0.1" transform="translate(52.326009, 92.326009) rotate(45.000000) translate(-52.326009, -92.326009) "></path>
                <path d="M23.1069048,62.1165029 C24.9626971,53.473584 33.4683854,44.9638133 42.1165029,43.1069048 L76.6766197,35.6862178 C85.3195386,33.8304255 90.8227081,39.3272802 88.9657996,47.9753976 L81.5451125,82.5355145 C79.6893203,91.1784334 71.1836319,99.6882041 62.5355145,101.545113 L27.9753976,108.9658 C19.3324788,110.821592 13.8293093,105.324737 15.6862178,96.6766197 L23.1069048,62.1165029 Z" id="Rectangle-Copy-4" fill="#2196F3" opacity="0.1" transform="translate(52.326009, 72.326009) rotate(45.000000) translate(-52.326009, -72.326009) "></path>
                <path d="M23.1069048,42.1165029 C24.9626971,33.473584 33.4683854,24.9638133 42.1165029,23.1069048 L76.6766197,15.6862178 C85.3195386,13.8304255 90.8227081,19.3272802 88.9657996,27.9753976 L81.5451125,62.5355145 C79.6893203,71.1784334 71.1836319,79.6882041 62.5355145,81.5451125 L27.9753976,88.9657996 C19.3324788,90.8215918 13.8293093,85.3247372 15.6862178,76.6766197 L23.1069048,42.1165029 Z" id="Rectangle-Copy-5" fill="#2196F3" opacity="0.1" transform="translate(52.326009, 52.326009) rotate(45.000000) translate(-52.326009, -52.326009) "></path>
            </g>
            <path d="M551.72,152.46 L545.38,152.46 L545.38,153.84 L551.6,153.84 L551.72,152.46 Z M573.56,159.2 L571.04,154.4 L568.5,154.48 L568.5,159 L566.84,159 L566.84,146.62 C572.54,145.78 574.46,147.42 574.46,149.96 C574.46,151.6 573.58,152.72 572.38,153.58 L575.34,158.94 L573.56,159.2 Z M568.5,147.9 L568.5,153.26 L571.2,153.18 C572.16,152.54 572.82,151.58 572.82,150.32 C572.82,148.52 571.52,147.46 568.5,147.9 Z M585.12,159.22 C578.98,159.2 577.32,157.42 577.32,154.24 C577.32,151.26 579.4,148.96 581.94,148.96 C584.62,148.96 585.98,151.12 585.62,154.36 L578.92,154.52 C579.08,156.84 580.54,157.72 585.28,157.84 L585.12,159.22 Z M581.66,150.3 C580.04,150.3 579.04,151.42 578.92,153.52 C580.04,153.48 582.72,153.4 584.1,153.36 C584.08,151.48 583.3,150.3 581.66,150.3 Z M591.96,157.96 C592.94,157.96 593.98,157.5 594.74,156.9 C594.72,156.26 594.7,155.54 594.7,154.58 C591.12,154.2 589.94,154.98 589.94,156.32 C589.94,157.36 590.74,157.96 591.96,157.96 Z M594.96,159.06 C594.94,158.86 594.86,158.24 594.82,157.8 C594.02,158.54 592.88,159.24 591.34,159.24 C589.56,159.24 588.34,158.28 588.34,156.7 C588.34,154.68 590.34,153.16 594.68,153.42 C594.54,151.16 593.3,150.58 588.92,150.42 L589.1,149.02 C594.76,149.18 596.28,150.36 596.28,154.14 C596.28,156.18 596.36,157.56 596.44,158.96 L594.96,159.06 Z M599.6,154.26 C599.6,157.26 601.26,159.48 607.2,159.08 L607.38,157.72 C602.58,157.94 601.2,156.62 601.2,154.04 C601.2,151.96 602.18,150.58 607.24,150.6 L607.12,149.06 C601.42,149.18 599.6,151.56 599.6,154.26 Z M618.2,159.16 L618.38,157.8 C615.1,157.74 614.16,157.3 614.16,155.6 L614.16,150.46 L618.16,150.46 L618.16,149.2 L614.16,149.2 L614.16,146.34 L612.54,146.48 L612.54,149.2 L610.68,149.2 L610.52,150.46 L612.54,150.46 L612.54,155.86 C612.54,158.28 613.96,159.22 618.2,159.16 Z M627.84,159 L629.42,159 L629.42,146.6 L627.86,146.6 L627.92,156.04 L627.84,156.04 L623.34,146.6 L621.6,146.6 L621.6,159 L623.14,159 L623.08,149.38 L623.18,149.38 L627.84,159 Z M635.96,157.96 C636.94,157.96 637.98,157.5 638.74,156.9 C638.72,156.26 638.7,155.54 638.7,154.58 C635.12,154.2 633.94,154.98 633.94,156.32 C633.94,157.36 634.74,157.96 635.96,157.96 Z M638.96,159.06 C638.94,158.86 638.86,158.24 638.82,157.8 C638.02,158.54 636.88,159.24 635.34,159.24 C633.56,159.24 632.34,158.28 632.34,156.7 C632.34,154.68 634.34,153.16 638.68,153.42 C638.54,151.16 637.3,150.58 632.92,150.42 L633.1,149.02 C638.76,149.18 640.28,150.36 640.28,154.14 C640.28,156.18 640.36,157.56 640.44,158.96 L638.96,159.06 Z M651.2,159.16 L651.38,157.8 C648.1,157.74 647.16,157.3 647.16,155.6 L647.16,150.46 L651.16,150.46 L651.16,149.2 L647.16,149.2 L647.16,146.34 L645.54,146.48 L645.54,149.2 L643.68,149.2 L643.52,150.46 L645.54,150.46 L645.54,155.86 C645.54,158.28 646.96,159.22 651.2,159.16 Z M659.64,147.62 L659.82,144.9 L658.1,144.9 L657.98,147.62 L659.64,147.62 Z M663.28,159 L663.4,157.76 L659.72,157.76 L659.72,149.2 L654.56,149.2 L654.44,150.34 L658.1,150.5 L658.1,157.76 L654.42,157.76 L654.42,159 L663.28,159 Z M669.62,157.48 L669.46,157.48 C668.38,154.7 667.4,151.9 666.5,149.16 L664.88,149.26 C665.96,152.52 667.16,155.8 668.48,159.08 L670.52,159.08 C671.84,155.82 673.1,152.48 674.18,149.2 L672.54,149.2 C671.66,151.94 670.7,154.72 669.62,157.48 Z M684.12,159.22 C677.98,159.2 676.32,157.42 676.32,154.24 C676.32,151.26 678.4,148.96 680.94,148.96 C683.62,148.96 684.98,151.12 684.62,154.36 L677.92,154.52 C678.08,156.84 679.54,157.72 684.28,157.84 L684.12,159.22 Z M680.66,150.3 C679.04,150.3 678.04,151.42 677.92,153.52 C679.04,153.48 681.72,153.4 683.1,153.36 C683.08,151.48 682.3,150.3 680.66,150.3 Z M692.58,159 L692.7,156.68 L690.32,156.68 L690.2,159 L692.58,159 Z M699.52,162.46 L699.36,160.98 C704,160.62 704.62,160.06 704.66,157.28 C703.96,157.82 703.02,158.24 701.86,158.24 C699.74,158.24 698.16,156.68 698.16,154.1 C698.16,150.94 700.58,148.98 703.38,148.98 C704.34,148.98 705.26,149.14 706.24,149.44 C706.26,150.22 706.26,155.58 706.26,156.72 C706.26,160.1 704.92,162.18 699.52,162.46 Z M702.46,156.94 C703.24,156.94 704.02,156.66 704.66,156.26 C704.66,154.92 704.64,152.18 704.66,150.66 C704.02,150.48 703.42,150.36 702.8,150.36 C701.08,150.36 699.76,151.54 699.76,153.72 C699.76,155.88 700.92,156.94 702.46,156.94 Z M714.64,147.62 L714.82,144.9 L713.1,144.9 L712.98,147.62 L714.64,147.62 Z M718.28,159 L718.4,157.76 L714.72,157.76 L714.72,149.2 L709.56,149.2 L709.44,150.34 L713.1,150.5 L713.1,157.76 L709.42,157.76 L709.42,159 L718.28,159 Z M728.2,159.16 L728.38,157.8 C725.1,157.74 724.16,157.3 724.16,155.6 L724.16,150.46 L728.16,150.46 L728.16,149.2 L724.16,149.2 L724.16,146.34 L722.54,146.48 L722.54,149.2 L720.68,149.2 L720.52,150.46 L722.54,150.46 L722.54,155.86 C722.54,158.28 723.96,159.22 728.2,159.16 Z M736.64,147.62 L736.82,144.9 L735.1,144.9 L734.98,147.62 L736.64,147.62 Z M740.28,159 L740.4,157.76 L736.72,157.76 L736.72,149.2 L731.56,149.2 L731.44,150.34 L735.1,150.5 L735.1,157.76 L731.42,157.76 L731.42,159 L740.28,159 Z M743.52,162.46 L743.36,160.98 C748,160.62 748.62,160.06 748.66,157.28 C747.96,157.82 747.02,158.24 745.86,158.24 C743.74,158.24 742.16,156.68 742.16,154.1 C742.16,150.94 744.58,148.98 747.38,148.98 C748.34,148.98 749.26,149.14 750.24,149.44 C750.26,150.22 750.26,155.58 750.26,156.72 C750.26,160.1 748.92,162.18 743.52,162.46 Z M746.46,156.94 C747.24,156.94 748.02,156.66 748.66,156.26 C748.66,154.92 748.64,152.18 748.66,150.66 C748.02,150.48 747.42,150.36 746.8,150.36 C745.08,150.36 743.76,151.54 743.76,153.72 C743.76,155.88 744.92,156.94 746.46,156.94 Z M757.82,150.36 C759.06,150.36 759.8,151.02 759.8,152.9 L759.8,159 L761.42,159 L761.42,152.36 C761.42,149.96 760.26,148.98 758.5,148.98 C757.1,148.98 756.04,149.6 755.22,150.28 L755.12,149.16 L753.62,149.26 C753.72,151.52 753.76,154.72 753.76,159 L755.38,159 C755.38,155.58 755.34,153 755.3,151.22 C756.06,150.7 756.88,150.36 757.82,150.36 Z M768.28,159.28 C765.86,159.28 764.1,157.44 764.1,154.28 C764.1,151.1 766.22,148.94 768.74,148.94 C771.18,148.94 772.9,150.78 772.9,153.92 C772.9,157.16 770.8,159.28 768.28,159.28 Z M768.54,157.94 C770.16,157.94 771.28,156.64 771.28,154.22 C771.28,151.68 770.14,150.26 768.46,150.26 C766.86,150.26 765.74,151.58 765.74,153.98 C765.74,156.54 766.88,157.94 768.54,157.94 Z M782.7,159 L782.84,157.76 L779.52,157.76 C779.5,155.48 779.46,153.56 779.44,151.86 C780.52,151.16 781.94,150.72 783.94,150.56 L783.86,148.84 C781.84,149.08 780.34,149.88 779.38,150.88 C779.36,150.42 779.28,149.4 779.26,149.2 L775.46,149.2 L775.34,150.36 L777.82,150.5 C777.88,152.46 777.9,154.76 777.94,157.76 L775.34,157.76 L775.34,159 L782.7,159 Z M794.12,159.22 C787.98,159.2 786.32,157.42 786.32,154.24 C786.32,151.26 788.4,148.96 790.94,148.96 C793.62,148.96 794.98,151.12 794.62,154.36 L787.92,154.52 C788.08,156.84 789.54,157.72 794.28,157.84 L794.12,159.22 Z M790.66,150.3 C789.04,150.3 788.04,151.42 787.92,153.52 C789.04,153.48 791.72,153.4 793.1,153.36 C793.08,151.48 792.3,150.3 790.66,150.3 Z" id="--ReactNative.gitign" fill="#171219"></path>
        </g>
    </g>
</svg>