<?xml version="1.0" encoding="UTF-8"?>
<svg width="980px" height="128px" viewBox="0 0 980 128" version="1.1" xmlns="http://www.w3.org/2000/svg" xmlns:xlink="http://www.w3.org/1999/xlink">
    <!-- Generator: Sketch 52.5 (67469) - http://www.bohemiancoding.com/sketch -->
    <title>gitignore-templates</title>
    <desc>Created with Sketch.</desc>
    <g id="gitignore-templates" stroke="none" stroke-width="1" fill="none" fill-rule="evenodd">
        <path d="M534.498,75.232 C532.297989,76.640007 529.746015,77.344 526.842,77.344 C523.849985,77.344 521.598674,76.581341 520.088,75.056 C518.577326,73.530659 517.822,71.3893471 517.822,68.632 L517.822,58.028 L512.938,58.028 L512.938,53.232 L517.822,53.232 L517.822,48.172 L524.774,47.336 L524.774,53.232 L532.298,53.232 L531.594,58.028 L524.774,58.028 L524.774,68.632 C524.774,69.7760057 525.037997,70.5973308 525.566,71.096 C526.094003,71.5946692 526.944661,71.844 528.118,71.844 C529.584674,71.844 530.94866,71.4920035 532.21,70.788 L534.498,75.232 Z M552.769,66.96 C553.209002,70.5093511 555.086317,72.284 558.401,72.284 C560.395677,72.284 562.390323,71.6386731 564.385,70.348 L567.157,74.132 C566.012994,75.1293383 564.649008,75.9139971 563.065,76.486 C561.480992,77.0580029 559.735676,77.344 557.829,77.344 C555.21832,77.344 553.003676,76.8233385 551.185,75.782 C549.366324,74.7406615 547.995005,73.288676 547.071,71.426 C546.146995,69.563324 545.685,67.4000123 545.685,64.936 C545.685,62.5893216 546.132329,60.4700095 547.027,58.578 C547.921671,56.6859905 549.226991,55.1900055 550.943,54.09 C552.659009,52.9899945 554.704988,52.44 557.081,52.44 C559.310344,52.44 561.246325,52.9166619 562.889,53.87 C564.531675,54.8233381 565.800329,56.201991 566.695,58.006 C567.589671,59.810009 568.037,61.9586542 568.037,64.452 C568.037,65.4200048 567.993,66.2559965 567.905,66.96 L552.769,66.96 Z M557.081,57.104 C555.81966,57.104 554.80767,57.5659954 554.045,58.49 C553.28233,59.4140046 552.827667,60.8293238 552.681,62.736 L561.261,62.736 C561.202333,58.9813146 559.809014,57.104 557.081,57.104 Z M597.308,52.44 C598.980008,52.44 600.204663,52.9899945 600.982,54.09 C601.759337,55.1900055 602.148,56.9279881 602.148,59.304 L602.148,76.596 L596.208,76.596 L596.208,60.096 C596.208,59.2453291 596.127334,58.6586683 595.966,58.336 C595.804666,58.0133317 595.504002,57.852 595.064,57.852 C594.242663,57.852 593.436004,58.3653282 592.644,59.392 L592.644,76.596 L587.716,76.596 L587.716,60.096 C587.716,59.2453291 587.635334,58.6586683 587.474,58.336 C587.312666,58.0133317 587.012002,57.852 586.572,57.852 C585.750663,57.852 584.944004,58.3653282 584.152,59.392 L584.152,76.596 L578.124,76.596 L578.124,53.232 L583.184,53.232 L583.668,55.476 C584.43067,54.4199947 585.185996,53.6500024 585.934,53.166 C586.682004,52.6819976 587.554662,52.44 588.552,52.44 C589.461338,52.44 590.223997,52.6673311 590.84,53.122 C591.456003,53.5766689 591.895999,54.2733286 592.16,55.212 C593.744008,53.3639908 595.459991,52.44 597.308,52.44 Z M626.227,52.44 C629.160348,52.44 631.316326,53.5179892 632.695,55.674 C634.073674,57.8300108 634.763,60.8879802 634.763,64.848 C634.763,67.2533454 634.40367,69.4019905 633.685,71.294 C632.96633,73.1860095 631.93234,74.667328 630.583,75.738 C629.23366,76.808672 627.635009,77.344 625.787,77.344 C623.528322,77.344 621.680341,76.5373414 620.243,74.924 L620.243,85.616 L613.291,86.364 L613.291,53.232 L619.451,53.232 L619.759,55.828 C620.668338,54.6839943 621.687661,53.8333361 622.817,53.276 C623.946339,52.7186639 625.082994,52.44 626.227,52.44 Z M624.071,57.588 C622.604326,57.588 621.328339,58.4973242 620.243,60.316 L620.243,70.172 C620.741669,70.8760035 621.262331,71.396665 621.805,71.734 C622.347669,72.071335 622.970996,72.24 623.675,72.24 C624.965673,72.24 625.940997,71.6606725 626.601,70.502 C627.261003,69.3433275 627.591,67.4880128 627.591,64.936 C627.591,62.1786529 627.29767,60.264672 626.711,59.194 C626.12433,58.123328 625.244339,57.588 624.071,57.588 Z M658.754,69.248 C658.754,70.9786753 659.751323,71.844 661.746,71.844 C662.831339,71.844 663.945994,71.6093357 665.09,71.14 L666.718,75.804 C664.840657,76.8306718 662.59668,77.344 659.986,77.344 C657.257986,77.344 655.212007,76.5593412 653.848,74.99 C652.483993,73.4206588 651.802,71.2133476 651.802,68.368 L651.802,48.7 L644.938,48.7 L644.938,43.948 L658.754,43.948 L658.754,69.248 Z M699.509,69.864 C699.509,70.7146709 699.626332,71.3453313 699.861,71.756 C700.095668,72.1666687 700.491664,72.4746656 701.049,72.68 L699.597,77.256 C698.188993,77.1093326 697.015671,76.7940024 696.077,76.31 C695.138329,75.8259976 694.405003,75.1146714 693.877,74.176 C692.996996,75.2026718 691.88234,75.9873306 690.533,76.53 C689.18366,77.0726694 687.746341,77.344 686.221,77.344 C683.815655,77.344 681.894341,76.6620068 680.457,75.298 C679.019659,73.9339932 678.301,72.1666775 678.301,69.996 C678.301,67.4733207 679.298323,65.5153403 681.293,64.122 C683.287677,62.7286597 686.088982,62.032 689.697,62.032 L692.821,62.032 L692.821,61.196 C692.821,58.7906546 691.281015,57.588 688.201,57.588 C687.408996,57.588 686.419006,57.6979989 685.231,57.918 C684.042994,58.1380011 682.891672,58.4386648 681.777,58.82 L680.193,54.2 C681.689007,53.6426639 683.250992,53.2100015 684.879,52.902 C686.507008,52.5939985 687.980993,52.44 689.301,52.44 C696.106367,52.44 699.509,55.1973058 699.509,60.712 L699.509,69.864 Z M688.597,72.372 C689.389004,72.372 690.188329,72.1446689 690.995,71.69 C691.801671,71.2353311 692.410331,70.612004 692.821,69.82 L692.821,65.992 L691.105,65.992 C687.350315,65.992 685.473,67.1653216 685.473,69.512 C685.473,70.4213379 685.744331,71.1253308 686.287,71.624 C686.829669,72.1226692 687.599662,72.372 688.597,72.372 Z M734.148,75.232 C731.947989,76.640007 729.396015,77.344 726.492,77.344 C723.499985,77.344 721.248674,76.581341 719.738,75.056 C718.227326,73.530659 717.472,71.3893471 717.472,68.632 L717.472,58.028 L712.588,58.028 L712.588,53.232 L717.472,53.232 L717.472,48.172 L724.424,47.336 L724.424,53.232 L731.948,53.232 L731.244,58.028 L724.424,58.028 L724.424,68.632 C724.424,69.7760057 724.687997,70.5973308 725.216,71.096 C725.744003,71.5946692 726.594661,71.844 727.768,71.844 C729.234674,71.844 730.59866,71.4920035 731.86,70.788 L734.148,75.232 Z M752.419,66.96 C752.859002,70.5093511 754.736317,72.284 758.051,72.284 C760.045677,72.284 762.040323,71.6386731 764.035,70.348 L766.807,74.132 C765.662994,75.1293383 764.299008,75.9139971 762.715,76.486 C761.130992,77.0580029 759.385676,77.344 757.479,77.344 C754.86832,77.344 752.653676,76.8233385 750.835,75.782 C749.016324,74.7406615 747.645005,73.288676 746.721,71.426 C745.796995,69.563324 745.335,67.4000123 745.335,64.936 C745.335,62.5893216 745.782329,60.4700095 746.677,58.578 C747.571671,56.6859905 748.876991,55.1900055 750.593,54.09 C752.309009,52.9899945 754.354988,52.44 756.731,52.44 C758.960344,52.44 760.896325,52.9166619 762.539,53.87 C764.181675,54.8233381 765.450329,56.201991 766.345,58.006 C767.239671,59.810009 767.687,61.9586542 767.687,64.452 C767.687,65.4200048 767.643,66.2559965 767.555,66.96 L752.419,66.96 Z M756.731,57.104 C755.46966,57.104 754.45767,57.5659954 753.695,58.49 C752.93233,59.4140046 752.477667,60.8293238 752.331,62.736 L760.911,62.736 C760.852333,58.9813146 759.459014,57.104 756.731,57.104 Z M789.038,72.372 C790.240673,72.372 791.186663,72.1886685 791.876,71.822 C792.565337,71.4553315 792.91,70.905337 792.91,70.172 C792.91,69.6439974 792.770668,69.2186683 792.492,68.896 C792.213332,68.5733317 791.69267,68.2580015 790.93,67.95 C790.16733,67.6419985 788.979341,67.2680022 787.366,66.828 C785.019322,66.2119969 783.230006,65.3540055 781.998,64.254 C780.765994,63.1539945 780.15,61.6360097 780.15,59.7 C780.15,57.558656 781.037324,55.8133401 782.812,54.464 C784.586676,53.1146599 787.072651,52.44 790.27,52.44 C793.966018,52.44 797.11932,53.3933238 799.73,55.3 L796.958,59.392 C794.816656,58.0719934 792.660678,57.412 790.49,57.412 C789.345994,57.412 788.502669,57.5586652 787.96,57.852 C787.417331,58.1453348 787.146,58.5999969 787.146,59.216 C787.146,59.6266687 787.285332,59.9713319 787.564,60.25 C787.842668,60.5286681 788.370663,60.8146652 789.148,61.108 C789.925337,61.4013348 791.091326,61.7679978 792.646,62.208 C794.318008,62.6773357 795.689328,63.1906639 796.76,63.748 C797.830672,64.3053361 798.65933,65.0533286 799.246,65.992 C799.83267,66.9306714 800.126,68.133326 800.126,69.6 C800.126,71.2426749 799.627338,72.6506608 798.63,73.824 C797.632662,74.9973392 796.298008,75.8773304 794.626,76.464 C792.953992,77.0506696 791.10601,77.344 789.082,77.344 C786.911322,77.344 784.946009,77.0360031 783.186,76.42 C781.425991,75.8039969 779.930006,74.9386722 778.698,73.824 L782.174,69.908 C784.286011,71.5506749 786.573988,72.372 789.038,72.372 Z" fill="#3D3E3F"></path>
        <path d="M203.068,54.596 C201.542659,55.2120031 199.298681,55.52 196.336,55.52 C197.861341,56.19467 198.997996,57.0013286 199.746,57.94 C200.494004,58.8786714 200.868,60.081326 200.868,61.548 C200.868,63.0440075 200.457337,64.3859941 199.636,65.574 C198.814663,66.7620059 197.656007,67.69333 196.16,68.368 C194.663993,69.04267 192.933343,69.38 190.968,69.38 C189.999995,69.38 189.090671,69.2920009 188.24,69.116 C188.005332,69.2333339 187.822001,69.4166654 187.69,69.666 C187.557999,69.9153346 187.492,70.1719987 187.492,70.436 C187.492,70.8760022 187.660665,71.2206654 187.998,71.47 C188.335335,71.7193346 189.017328,71.844 190.044,71.844 L193.916,71.844 C195.676009,71.844 197.23066,72.1373304 198.58,72.724 C199.92934,73.3106696 200.970663,74.1173282 201.704,75.144 C202.437337,76.1706718 202.804,77.3293269 202.804,78.62 C202.804,81.0546788 201.740677,82.9539932 199.614,84.318 C197.487323,85.6820068 194.385354,86.364 190.308,86.364 C187.403985,86.364 185.123342,86.0633363 183.466,85.462 C181.808658,84.8606637 180.650003,84.0173388 179.99,82.932 C179.329997,81.8466612 179,80.4826749 179,78.84 L185.16,78.84 C185.16,79.573337 185.299332,80.1453313 185.578,80.556 C185.856668,80.9666687 186.37733,81.2746656 187.14,81.48 C187.90267,81.6853344 189.017326,81.788 190.484,81.788 C192.537344,81.788 193.952663,81.5533357 194.73,81.084 C195.507337,80.6146643 195.896,79.9546709 195.896,79.104 C195.896,78.3999965 195.610003,77.8353355 195.038,77.41 C194.465997,76.9846645 193.622672,76.772 192.508,76.772 L188.812,76.772 C186.406655,76.772 184.602673,76.3393377 183.4,75.474 C182.197327,74.6086623 181.596,73.5013401 181.596,72.152 C181.596,71.2719956 181.823331,70.4433372 182.278,69.666 C182.732669,68.8886628 183.370663,68.2360026 184.192,67.708 C182.725326,66.915996 181.669337,65.984672 181.024,64.914 C180.378663,63.843328 180.056,62.545341 180.056,61.02 C180.056,59.2893247 180.495996,57.7786731 181.376,56.488 C182.256004,55.1973269 183.487992,54.2073368 185.072,53.518 C186.656008,52.8286632 188.45999,52.484 190.484,52.484 C192.830678,52.542667 194.825325,52.3153359 196.468,51.802 C198.110675,51.2886641 199.782658,50.5186718 201.484,49.492 L203.068,54.596 Z M190.66,57.016 C189.545328,57.016 188.67267,57.3679965 188.042,58.072 C187.41133,58.7760035 187.096,59.7293273 187.096,60.932 C187.096,62.1933396 187.418663,63.1759965 188.064,63.88 C188.709337,64.5840035 189.574661,64.936 190.66,64.936 C191.804006,64.936 192.683997,64.5913368 193.3,63.902 C193.916003,63.2126632 194.224,62.1933401 194.224,60.844 C194.224,58.2919872 193.036012,57.016 190.66,57.016 Z M224.067,41 C225.269673,41 226.25233,41.3739963 227.015,42.122 C227.77767,42.8700037 228.159,43.8013278 228.159,44.916 C228.159,46.0600057 227.77767,46.998663 227.015,47.732 C226.25233,48.465337 225.269673,48.832 224.067,48.832 C222.864327,48.832 221.874337,48.4580037 221.097,47.71 C220.319663,46.9619963 219.931,46.0306722 219.931,44.916 C219.931,43.8013278 220.319663,42.8700037 221.097,42.122 C221.874337,41.3739963 222.864327,41 224.067,41 Z M228.247,71.844 L234.231,71.844 L234.231,76.596 L214.695,76.596 L214.695,71.844 L221.295,71.844 L221.295,57.984 L214.915,57.984 L214.915,53.232 L228.247,53.232 L228.247,71.844 Z M268.298,75.232 C266.097989,76.640007 263.546015,77.344 260.642,77.344 C257.649985,77.344 255.398674,76.581341 253.888,75.056 C252.377326,73.530659 251.622,71.3893471 251.622,68.632 L251.622,58.028 L246.738,58.028 L246.738,53.232 L251.622,53.232 L251.622,48.172 L258.574,47.336 L258.574,53.232 L266.098,53.232 L265.394,58.028 L258.574,58.028 L258.574,68.632 C258.574,69.7760057 258.837997,70.5973308 259.366,71.096 C259.894003,71.5946692 260.744661,71.844 261.918,71.844 C263.384674,71.844 264.74866,71.4920035 266.01,70.788 L268.298,75.232 Z M290.617,41 C291.819673,41 292.80233,41.3739963 293.565,42.122 C294.32767,42.8700037 294.709,43.8013278 294.709,44.916 C294.709,46.0600057 294.32767,46.998663 293.565,47.732 C292.80233,48.465337 291.819673,48.832 290.617,48.832 C289.414327,48.832 288.424337,48.4580037 287.647,47.71 C286.869663,46.9619963 286.481,46.0306722 286.481,44.916 C286.481,43.8013278 286.869663,42.8700037 287.647,42.122 C288.424337,41.3739963 289.414327,41 290.617,41 Z M294.797,71.844 L300.781,71.844 L300.781,76.596 L281.245,76.596 L281.245,71.844 L287.845,71.844 L287.845,57.984 L281.465,57.984 L281.465,53.232 L294.797,53.232 L294.797,71.844 Z M336.168,54.596 C334.642659,55.2120031 332.398681,55.52 329.436,55.52 C330.961341,56.19467 332.097996,57.0013286 332.846,57.94 C333.594004,58.8786714 333.968,60.081326 333.968,61.548 C333.968,63.0440075 333.557337,64.3859941 332.736,65.574 C331.914663,66.7620059 330.756007,67.69333 329.26,68.368 C327.763993,69.04267 326.033343,69.38 324.068,69.38 C323.099995,69.38 322.190671,69.2920009 321.34,69.116 C321.105332,69.2333339 320.922001,69.4166654 320.79,69.666 C320.657999,69.9153346 320.592,70.1719987 320.592,70.436 C320.592,70.8760022 320.760665,71.2206654 321.098,71.47 C321.435335,71.7193346 322.117328,71.844 323.144,71.844 L327.016,71.844 C328.776009,71.844 330.33066,72.1373304 331.68,72.724 C333.02934,73.3106696 334.070663,74.1173282 334.804,75.144 C335.537337,76.1706718 335.904,77.3293269 335.904,78.62 C335.904,81.0546788 334.840677,82.9539932 332.714,84.318 C330.587323,85.6820068 327.485354,86.364 323.408,86.364 C320.503985,86.364 318.223342,86.0633363 316.566,85.462 C314.908658,84.8606637 313.750003,84.0173388 313.09,82.932 C312.429997,81.8466612 312.1,80.4826749 312.1,78.84 L318.26,78.84 C318.26,79.573337 318.399332,80.1453313 318.678,80.556 C318.956668,80.9666687 319.47733,81.2746656 320.24,81.48 C321.00267,81.6853344 322.117326,81.788 323.584,81.788 C325.637344,81.788 327.052663,81.5533357 327.83,81.084 C328.607337,80.6146643 328.996,79.9546709 328.996,79.104 C328.996,78.3999965 328.710003,77.8353355 328.138,77.41 C327.565997,76.9846645 326.722672,76.772 325.608,76.772 L321.912,76.772 C319.506655,76.772 317.702673,76.3393377 316.5,75.474 C315.297327,74.6086623 314.696,73.5013401 314.696,72.152 C314.696,71.2719956 314.923331,70.4433372 315.378,69.666 C315.832669,68.8886628 316.470663,68.2360026 317.292,67.708 C315.825326,66.915996 314.769337,65.984672 314.124,64.914 C313.478663,63.843328 313.156,62.545341 313.156,61.02 C313.156,59.2893247 313.595996,57.7786731 314.476,56.488 C315.356004,55.1973269 316.587992,54.2073368 318.172,53.518 C319.756008,52.8286632 321.55999,52.484 323.584,52.484 C325.930678,52.542667 327.925325,52.3153359 329.568,51.802 C331.210675,51.2886641 332.882658,50.5186718 334.584,49.492 L336.168,54.596 Z M323.76,57.016 C322.645328,57.016 321.77267,57.3679965 321.142,58.072 C320.51133,58.7760035 320.196,59.7293273 320.196,60.932 C320.196,62.1933396 320.518663,63.1759965 321.164,63.88 C321.809337,64.5840035 322.674661,64.936 323.76,64.936 C324.904006,64.936 325.783997,64.5913368 326.4,63.902 C327.016003,63.2126632 327.324,62.1933401 327.324,60.844 C327.324,58.2919872 326.136012,57.016 323.76,57.016 Z M347.091,53.232 L353.163,53.232 L353.647,55.916 C354.703005,54.7426608 355.810328,53.8700029 356.969,53.298 C358.127672,52.7259971 359.440326,52.44 360.907,52.44 C362.93101,52.44 364.507661,53.0559938 365.637,54.288 C366.766339,55.5200062 367.331,57.235989 367.331,59.436 L367.331,76.596 L360.379,76.596 L360.379,61.46 C360.379,59.993326 360.217668,58.9813361 359.895,58.424 C359.572332,57.8666639 358.985671,57.588 358.135,57.588 C357.430996,57.588 356.749003,57.8153311 356.089,58.27 C355.428997,58.7246689 354.747004,59.3919956 354.043,60.272 L354.043,76.596 L347.091,76.596 L347.091,53.232 Z M390.486,52.44 C394.035351,52.44 396.814657,53.5619888 398.824,55.806 C400.833343,58.0500112 401.838,61.0639811 401.838,64.848 C401.838,68.7786863 400.840677,71.843989 398.846,74.044 C396.851323,76.244011 394.064685,77.344 390.486,77.344 C386.907315,77.344 384.120677,76.2513443 382.126,74.066 C380.131323,71.8806557 379.134,68.8226863 379.134,64.892 C379.134,62.3986542 379.581329,60.220676 380.476,58.358 C381.370671,56.495324 382.675991,55.0433385 384.392,54.002 C386.108009,52.9606615 388.139322,52.44 390.486,52.44 Z M390.486,57.588 C389.048659,57.588 387.99267,58.1673275 387.318,59.326 C386.64333,60.4846725 386.306,62.3399872 386.306,64.892 C386.306,67.4733462 386.64333,69.3433275 387.318,70.502 C387.99267,71.6606725 389.048659,72.24 390.486,72.24 C391.923341,72.24 392.97933,71.6533392 393.654,70.48 C394.32867,69.3066608 394.666,67.4293462 394.666,64.848 C394.666,62.3253207 394.32867,60.4846725 393.654,59.326 C392.97933,58.1673275 391.923341,57.588 390.486,57.588 Z M431.461,52.528 C432.869007,52.528 434.159661,52.7626643 435.333,53.232 L434.057,63 L429.657,63 L429.657,58.688 C428.366327,58.9226678 427.222338,59.6266608 426.225,60.8 C425.227662,61.9733392 424.450336,63.4546577 423.893,65.244 L423.893,71.932 L428.513,71.932 L428.513,76.596 L413.861,76.596 L413.861,71.932 L416.941,71.932 L416.941,57.852 L413.861,57.852 L413.861,53.232 L422.265,53.232 L423.497,58.468 C424.347671,56.4733234 425.418327,54.9846716 426.709,54.002 C427.999673,53.0193284 429.583657,52.528 431.461,52.528 Z M452.944,66.96 C453.384002,70.5093511 455.261317,72.284 458.576,72.284 C460.570677,72.284 462.565323,71.6386731 464.56,70.348 L467.332,74.132 C466.187994,75.1293383 464.824008,75.9139971 463.24,76.486 C461.655992,77.0580029 459.910676,77.344 458.004,77.344 C455.39332,77.344 453.178676,76.8233385 451.36,75.782 C449.541324,74.7406615 448.170005,73.288676 447.246,71.426 C446.321995,69.563324 445.86,67.4000123 445.86,64.936 C445.86,62.5893216 446.307329,60.4700095 447.202,58.578 C448.096671,56.6859905 449.401991,55.1900055 451.118,54.09 C452.834009,52.9899945 454.879988,52.44 457.256,52.44 C459.485344,52.44 461.421325,52.9166619 463.064,53.87 C464.706675,54.8233381 465.975329,56.201991 466.87,58.006 C467.764671,59.810009 468.212,61.9586542 468.212,64.452 C468.212,65.4200048 468.168,66.2559965 468.08,66.96 L452.944,66.96 Z M457.256,57.104 C455.99466,57.104 454.98267,57.5659954 454.22,58.49 C453.45733,59.4140046 453.002667,60.8293238 452.856,62.736 L461.436,62.736 C461.377333,58.9813146 459.984014,57.104 457.256,57.104 Z" id="gitignore-templates-copy" fill="#FF6600"></path>
    </g>
</svg>