<?xml version="1.0" encoding="UTF-8"?>
<svg width="980px" height="128px" viewBox="0 0 980 128" version="1.1" xmlns="http://www.w3.org/2000/svg" xmlns:xlink="http://www.w3.org/1999/xlink">
    <!-- Generator: Sketch 42 (36781) - http://www.bohemiancoding.com/sketch -->
    <title>gitignore-templates</title>
    <desc>Created with Sketch.</desc>
    <defs></defs>
    <g id="gitignore-templates" stroke="none" stroke-width="1" fill="none" fill-rule="evenodd">
        <g>
            <path d="M164.352,92.192 L163.84,87.456 C178.688,86.304 180.672,84.512 180.8,75.616 C178.56,77.344 175.552,78.688 171.84,78.688 C165.056,78.688 160,73.696 160,65.44 C160,55.328 167.744,49.056 176.704,49.056 C179.776,49.056 182.72,49.568 185.856,50.528 C185.92,53.024 185.92,70.176 185.92,73.824 C185.92,84.64 181.632,91.296 164.352,92.192 Z M173.76,74.528 C176.256,74.528 178.752,73.632 180.8,72.352 C180.8,68.064 180.736,59.296 180.8,54.432 C178.752,53.856 176.832,53.472 174.848,53.472 C169.344,53.472 165.12,57.248 165.12,64.224 C165.12,71.136 168.832,74.528 173.76,74.528 Z M212.736,44.704 L213.312,36 L207.808,36 L207.424,44.704 L212.736,44.704 Z M224.384,81.12 L224.768,77.152 L212.992,77.152 L212.992,49.76 L196.48,49.76 L196.096,53.408 L207.808,53.92 L207.808,77.152 L196.032,77.152 L196.032,81.12 L224.384,81.12 Z M256.128,81.632 L256.704,77.28 C246.208,77.088 243.2,75.68 243.2,70.24 L243.2,53.792 L256,53.792 L256,49.76 L243.2,49.76 L243.2,40.608 L238.016,41.056 L238.016,49.76 L232.064,49.76 L231.552,53.792 L238.016,53.792 L238.016,71.072 C238.016,78.816 242.56,81.824 256.128,81.632 Z M283.136,44.704 L283.712,36 L278.208,36 L277.824,44.704 L283.136,44.704 Z M294.784,81.12 L295.168,77.152 L283.392,77.152 L283.392,49.76 L266.88,49.76 L266.496,53.408 L278.208,53.92 L278.208,77.152 L266.432,77.152 L266.432,81.12 L294.784,81.12 Z M305.152,92.192 L304.64,87.456 C319.488,86.304 321.472,84.512 321.6,75.616 C319.36,77.344 316.352,78.688 312.64,78.688 C305.856,78.688 300.8,73.696 300.8,65.44 C300.8,55.328 308.544,49.056 317.504,49.056 C320.576,49.056 323.52,49.568 326.656,50.528 C326.72,53.024 326.72,70.176 326.72,73.824 C326.72,84.64 322.432,91.296 305.152,92.192 Z M314.56,74.528 C317.056,74.528 319.552,73.632 321.6,72.352 C321.6,68.064 321.536,59.296 321.6,54.432 C319.552,53.856 317.632,53.472 315.648,53.472 C310.144,53.472 305.92,57.248 305.92,64.224 C305.92,71.136 309.632,74.528 314.56,74.528 Z M350.912,53.472 C354.88,53.472 357.248,55.584 357.248,61.6 L357.248,81.12 L362.432,81.12 L362.432,59.872 C362.432,52.192 358.72,49.056 353.088,49.056 C348.608,49.056 345.216,51.04 342.592,53.216 L342.272,49.632 L337.472,49.952 C337.792,57.184 337.92,67.424 337.92,81.12 L343.104,81.12 C343.104,70.176 342.976,61.92 342.848,56.224 C345.28,54.56 347.904,53.472 350.912,53.472 Z M384.384,82.016 C376.64,82.016 371.008,76.128 371.008,66.016 C371.008,55.84 377.792,48.928 385.856,48.928 C393.664,48.928 399.168,54.816 399.168,64.864 C399.168,75.232 392.448,82.016 384.384,82.016 Z M385.216,77.728 C390.4,77.728 393.984,73.568 393.984,65.824 C393.984,57.696 390.336,53.152 384.96,53.152 C379.84,53.152 376.256,57.376 376.256,65.056 C376.256,73.248 379.904,77.728 385.216,77.728 Z M430.528,81.12 L430.976,77.152 L420.352,77.152 C420.288,69.856 420.16,63.712 420.096,58.272 C423.552,56.032 428.096,54.624 434.496,54.112 L434.24,48.608 C427.776,49.376 422.976,51.936 419.904,55.136 C419.84,53.664 419.584,50.4 419.52,49.76 L407.36,49.76 L406.976,53.472 L414.912,53.92 C415.104,60.192 415.168,67.552 415.296,77.152 L406.976,77.152 L406.976,81.12 L430.528,81.12 Z M467.072,81.824 C447.424,81.76 442.112,76.064 442.112,65.888 C442.112,56.352 448.768,48.992 456.896,48.992 C465.472,48.992 469.824,55.904 468.672,66.272 L447.232,66.784 C447.744,74.208 452.416,77.024 467.584,77.408 L467.072,81.824 Z M456,53.28 C450.816,53.28 447.616,56.864 447.232,63.584 C450.816,63.456 459.392,63.2 463.808,63.072 C463.744,57.056 461.248,53.28 456,53.28 Z" id="gitignore" fill="#FF5722"></path>
            <path d="M537.728,81.632 L538.304,77.28 C527.808,77.088 524.8,75.68 524.8,70.24 L524.8,53.792 L537.6,53.792 L537.6,49.76 L524.8,49.76 L524.8,40.608 L519.616,41.056 L519.616,49.76 L513.664,49.76 L513.152,53.792 L519.616,53.792 L519.616,71.072 C519.616,78.816 524.16,81.824 537.728,81.632 Z M572.672,81.824 C553.024,81.76 547.712,76.064 547.712,65.888 C547.712,56.352 554.368,48.992 562.496,48.992 C571.072,48.992 575.424,55.904 574.272,66.272 L552.832,66.784 C553.344,74.208 558.016,77.024 573.184,77.408 L572.672,81.824 Z M561.6,53.28 C556.416,53.28 553.216,56.864 552.832,63.584 C556.416,63.456 564.992,63.2 569.408,63.072 C569.344,57.056 566.848,53.28 561.6,53.28 Z M591.616,53.472 C593.728,53.472 594.56,54.688 594.56,57.888 L594.56,81.12 L598.592,81.12 L598.592,55.328 C599.936,54.112 601.344,53.472 602.752,53.472 C604.928,53.472 605.76,54.688 605.76,57.952 L605.76,81.12 L610.688,81.12 L610.688,56.096 C610.688,51.36 608.704,49.056 605.184,49.056 C602.432,49.056 600.064,50.592 598.336,52.384 C597.568,50.272 595.904,49.056 593.536,49.056 C590.912,49.056 588.544,50.592 586.752,52.576 L586.496,49.632 L581.952,49.952 C582.208,57.184 582.336,67.424 582.336,81.12 L587.2,81.12 C587.2,70.112 587.072,61.536 586.944,55.84 C588.48,54.304 590.208,53.472 591.616,53.472 Z M630.208,77.408 C635.904,77.408 640.384,73.184 640.384,65.312 C640.384,57.504 636.736,53.344 631.808,53.344 C629.312,53.344 626.752,54.368 624.64,55.968 C624.768,61.152 624.896,67.232 624.96,76.448 C626.816,77.088 628.48,77.408 630.208,77.408 Z M624.96,91.68 L619.776,92.128 L619.776,81.248 C619.776,66.08 619.712,56.608 619.392,49.952 L624.128,49.632 L624.448,52.896 C626.816,50.784 629.952,49.056 633.856,49.056 C640.512,49.056 645.504,54.88 645.504,64.032 C645.504,75.296 637.632,81.888 628.352,81.888 C627.264,81.888 626.112,81.824 624.96,81.632 L624.96,91.68 Z M679.296,81.12 L679.744,77.152 L669.504,77.152 L669.504,36.448 L655.04,36.448 L654.592,40.16 L664.256,40.608 L664.256,77.152 L654.08,77.152 L654.08,81.12 L679.296,81.12 Z M700.16,77.792 C703.296,77.792 706.624,76.32 709.056,74.4 C708.992,72.352 708.928,70.048 708.928,66.976 C697.472,65.76 693.696,68.256 693.696,72.544 C693.696,75.872 696.256,77.792 700.16,77.792 Z M709.76,81.312 C709.696,80.672 709.44,78.688 709.312,77.28 C706.752,79.648 703.104,81.888 698.176,81.888 C692.48,81.888 688.576,78.816 688.576,73.76 C688.576,67.296 694.976,62.432 708.864,63.264 C708.416,56.032 704.448,54.176 690.432,53.664 L691.008,49.184 C709.12,49.696 713.984,53.472 713.984,65.568 C713.984,72.096 714.24,76.512 714.496,80.992 L709.76,81.312 Z M748.928,81.632 L749.504,77.28 C739.008,77.088 736,75.68 736,70.24 L736,53.792 L748.8,53.792 L748.8,49.76 L736,49.76 L736,40.608 L730.816,41.056 L730.816,49.76 L724.864,49.76 L724.352,53.792 L730.816,53.792 L730.816,71.072 C730.816,78.816 735.36,81.824 748.928,81.632 Z M783.872,81.824 C764.224,81.76 758.912,76.064 758.912,65.888 C758.912,56.352 765.568,48.992 773.696,48.992 C782.272,48.992 786.624,55.904 785.472,66.272 L764.032,66.784 C764.544,74.208 769.216,77.024 784.384,77.408 L783.872,81.824 Z M772.8,53.28 C767.616,53.28 764.416,56.864 764.032,63.584 C767.616,63.456 776.192,63.2 780.608,63.072 C780.544,57.056 778.048,53.28 772.8,53.28 Z M817.856,49.504 C801.856,48.288 796.48,53.408 796.48,58.4 C796.48,66.272 814.016,67.168 814.016,72.736 C814.016,75.552 810.112,77.856 796.416,76.768 L796.224,81.376 C813.824,82.336 819.392,77.408 819.392,72.288 C819.392,64.288 801.728,62.88 801.728,57.696 C801.728,55.136 805.184,52.96 818.048,54.112 L817.856,49.504 Z" id="templates" fill="#212121"></path>
        </g>
    </g>
</svg>