<?xml version="1.0" encoding="UTF-8"?>
<svg width="980px" height="200px" viewBox="0 0 980 200" version="1.1" xmlns="http://www.w3.org/2000/svg" xmlns:xlink="http://www.w3.org/1999/xlink">
    <!-- Generator: Sketch 52.5 (67469) - http://www.bohemiancoding.com/sketch -->
    <title>gitignore</title>
    <desc>Created with Sketch.</desc>
    <g id="gitignore" stroke="none" stroke-width="1" fill="none" fill-rule="evenodd">
        <g id="Group" transform="translate(438.000000, -3.000000)">
            <path d="M23.1069048,142.116503 C24.9626971,133.473584 33.4683854,124.963813 42.1165029,123.106905 L76.6766197,115.686218 C85.3195386,113.830426 90.8227081,119.32728 88.9657996,127.975398 L81.5451125,162.535514 C79.6893203,171.178433 71.1836319,179.688204 62.5355145,181.545113 L27.9753976,188.9658 C19.3324788,190.821592 13.8293093,185.324737 15.6862178,176.67662 L23.1069048,142.116503 Z" id="Rectangle" fill="#F44336" opacity="0.5" transform="translate(52.326009, 152.326009) rotate(45.000000) translate(-52.326009, -152.326009) "></path>
            <path d="M23.1069048,122.116503 C24.9626971,113.473584 33.4683854,104.963813 42.1165029,103.106905 L76.6766197,95.6862178 C85.3195386,93.8304255 90.8227081,99.3272802 88.9657996,107.975398 L81.5451125,142.535514 C79.6893203,151.178433 71.1836319,159.688204 62.5355145,161.545113 L27.9753976,168.9658 C19.3324788,170.821592 13.8293093,165.324737 15.6862178,156.67662 L23.1069048,122.116503 Z" id="Rectangle-Copy" fill="#9C27B0" opacity="0.1" transform="translate(52.326009, 132.326009) rotate(45.000000) translate(-52.326009, -132.326009) "></path>
            <path d="M23.1069048,102.116503 C24.9626971,93.473584 33.4683854,84.9638133 42.1165029,83.1069048 L76.6766197,75.6862178 C85.3195386,73.8304255 90.8227081,79.3272802 88.9657996,87.9753976 L81.5451125,122.535514 C79.6893203,131.178433 71.1836319,139.688204 62.5355145,141.545113 L27.9753976,148.9658 C19.3324788,150.821592 13.8293093,145.324737 15.6862178,136.67662 L23.1069048,102.116503 Z" id="Rectangle-Copy-2" fill="#2196F3" opacity="0.1" transform="translate(52.326009, 112.326009) rotate(45.000000) translate(-52.326009, -112.326009) "></path>
            <path d="M23.1069048,82.1165029 C24.9626971,73.473584 33.4683854,64.9638133 42.1165029,63.1069048 L76.6766197,55.6862178 C85.3195386,53.8304255 90.8227081,59.3272802 88.9657996,67.9753976 L81.5451125,102.535514 C79.6893203,111.178433 71.1836319,119.688204 62.5355145,121.545113 L27.9753976,128.9658 C19.3324788,130.821592 13.8293093,125.324737 15.6862178,116.67662 L23.1069048,82.1165029 Z" id="Rectangle-Copy-3" fill="#2196F3" opacity="0.1" transform="translate(52.326009, 92.326009) rotate(45.000000) translate(-52.326009, -92.326009) "></path>
            <path d="M23.1069048,62.1165029 C24.9626971,53.473584 33.4683854,44.9638133 42.1165029,43.1069048 L76.6766197,35.6862178 C85.3195386,33.8304255 90.8227081,39.3272802 88.9657996,47.9753976 L81.5451125,82.5355145 C79.6893203,91.1784334 71.1836319,99.6882041 62.5355145,101.545113 L27.9753976,108.9658 C19.3324788,110.821592 13.8293093,105.324737 15.6862178,96.6766197 L23.1069048,62.1165029 Z" id="Rectangle-Copy-4" fill="#2196F3" opacity="0.1" transform="translate(52.326009, 72.326009) rotate(45.000000) translate(-52.326009, -72.326009) "></path>
            <path d="M23.1069048,42.1165029 C24.9626971,33.473584 33.4683854,24.9638133 42.1165029,23.1069048 L76.6766197,15.6862178 C85.3195386,13.8304255 90.8227081,19.3272802 88.9657996,27.9753976 L81.5451125,62.5355145 C79.6893203,71.1784334 71.1836319,79.6882041 62.5355145,81.5451125 L27.9753976,88.9657996 C19.3324788,90.8215918 13.8293093,85.3247372 15.6862178,76.6766197 L23.1069048,42.1165029 Z" id="Rectangle-Copy-5" fill="#2196F3" opacity="0.1" transform="translate(52.326009, 52.326009) rotate(45.000000) translate(-52.326009, -52.326009) "></path>
        </g>
        <path d="M545.142,151.538 L551.658,151.538 L551.658,153.194 L545.142,153.194 L545.142,151.538 Z M576.428,149.18 C576.428,150.044004 576.170003,150.763997 575.654,151.34 C575.137997,151.916003 574.454004,152.335999 573.602,152.6 L577.13,158 L574.7,158 L571.568,152.888 L570.218,152.888 L570.218,158 L568.13,158 L568.13,145.58 L571.586,145.58 C574.814016,145.58 576.428,146.779988 576.428,149.18 Z M574.25,149.18 C574.25,148.459996 574.043002,147.938002 573.629,147.614 C573.214998,147.289998 572.576004,147.128 571.712,147.128 L570.218,147.128 L570.218,151.358 L571.766,151.358 C572.582004,151.358 573.199998,151.184002 573.62,150.836 C574.040002,150.487998 574.25,149.936004 574.25,149.18 Z M581.676,153.896 C581.736,154.820005 582.002998,155.512998 582.477,155.975 C582.951002,156.437002 583.547996,156.668 584.268,156.668 C584.712002,156.668 585.134998,156.599001 585.537,156.461 C585.939002,156.322999 586.349998,156.116001 586.77,155.84 L587.634,157.064 C587.189998,157.436002 586.668003,157.723999 586.068,157.928 C585.467997,158.132001 584.838003,158.234 584.178,158.234 C582.725993,158.234 581.598004,157.781005 580.794,156.875 C579.989996,155.968995 579.588,154.760008 579.588,153.248 C579.588,152.299995 579.761998,151.445004 580.11,150.683 C580.458002,149.920996 580.961997,149.324002 581.622,148.892 C582.282003,148.459998 583.049996,148.244 583.926,148.244 C585.186006,148.244 586.184996,148.666996 586.923,149.513 C587.661004,150.359004 588.03,151.519993 588.03,152.996 C588.03,153.356002 588.012,153.655999 587.976,153.896 L581.676,153.896 Z M583.944,149.738 C583.295997,149.738 582.768002,149.971998 582.36,150.44 C581.951998,150.908002 581.718,151.603995 581.658,152.528 L586.068,152.528 C586.044,151.627995 585.852002,150.938002 585.492,150.458 C585.131998,149.977998 584.616003,149.738 583.944,149.738 Z M599.074,155.678 C599.074,156.038002 599.127999,156.304999 599.236,156.479 C599.344001,156.653001 599.529999,156.782 599.794,156.866 L599.326,158.234 C598.329995,158.113999 597.676002,157.676004 597.364,156.92 C597.015998,157.352002 596.581003,157.678999 596.059,157.901 C595.536997,158.123001 594.964003,158.234 594.34,158.234 C593.379995,158.234 592.618003,157.964003 592.054,157.424 C591.489997,156.883997 591.208,156.170004 591.208,155.282 C591.208,154.285995 591.600996,153.518003 592.387,152.978 C593.173004,152.437997 594.285993,152.168 595.726,152.168 L597.076,152.168 L597.076,151.556 C597.076,150.955997 596.896002,150.518001 596.536,150.242 C596.175998,149.965999 595.654003,149.828 594.97,149.828 C594.633998,149.828 594.244002,149.87 593.8,149.954 C593.355998,150.038 592.906002,150.157999 592.45,150.314 L591.946,148.892 C593.086006,148.459998 594.195995,148.244 595.276,148.244 C596.536006,148.244 597.483997,148.519997 598.12,149.072 C598.756003,149.624003 599.074,150.409995 599.074,151.43 L599.074,155.678 Z M594.934,156.758 C595.354002,156.758 595.758998,156.650001 596.149,156.434 C596.539002,156.217999 596.847999,155.918002 597.076,155.534 L597.076,153.428 L595.96,153.428 C595.047995,153.428 594.382002,153.580998 593.962,153.887 C593.541998,154.193002 593.332,154.633997 593.332,155.21 C593.332,155.714003 593.466999,156.097999 593.737,156.362 C594.007001,156.626001 594.405997,156.758 594.934,156.758 Z M608.192,156.578 C608.948004,156.578 609.727996,156.308003 610.532,155.768 L611.45,157.064 C611.029998,157.424002 610.526003,157.708999 609.938,157.919 C609.349997,158.129001 608.744003,158.234 608.12,158.234 C606.667993,158.234 605.534004,157.787004 604.718,156.893 C603.901996,155.998996 603.494,154.802008 603.494,153.302 C603.494,152.329995 603.679998,151.463004 604.052,150.701 C604.424002,149.938996 604.960996,149.339002 605.663,148.901 C606.365004,148.462998 607.195995,148.244 608.156,148.244 C609.416006,148.244 610.513995,148.627996 611.45,149.396 L610.514,150.656 C609.745996,150.127997 608.972004,149.864 608.192,149.864 C607.399996,149.864 606.776002,150.148997 606.32,150.719 C605.863998,151.289003 605.636,152.149994 605.636,153.302 C605.636,154.430006 605.863998,155.257997 606.32,155.786 C606.776002,156.314003 607.399996,156.578 608.192,156.578 Z M623.34,157.496 C622.979998,157.724001 622.560002,157.903999 622.08,158.036 C621.599998,158.168001 621.096003,158.234 620.568,158.234 C619.487995,158.234 618.654003,157.955003 618.066,157.397 C617.477997,156.838997 617.184,156.080005 617.184,155.12 L617.184,149.972 L615.078,149.972 L615.078,148.496 L617.184,148.496 L617.184,146.372 L619.2,146.138 L619.2,148.496 L622.422,148.496 L622.188,149.972 L619.2,149.972 L619.2,155.102 C619.2,155.618003 619.331999,155.998999 619.596,156.245 C619.860001,156.491001 620.279997,156.614 620.856,156.614 C621.492003,156.614 622.079997,156.464001 622.62,156.164 L623.34,157.496 Z M628.444,147.434 C628.636001,149.40201 628.732,151.045993 628.732,152.366 L628.732,158 L626.878,158 L626.878,145.58 L629.596,145.58 L633.556,156.146 C633.472,155.257996 633.403,154.457004 633.349,153.743 C633.295,153.028996 633.268,152.192005 633.268,151.232 L633.268,145.58 L635.122,145.58 L635.122,158 L632.404,158 L628.444,147.434 Z M646.274,155.678 C646.274,156.038002 646.327999,156.304999 646.436,156.479 C646.544001,156.653001 646.729999,156.782 646.994,156.866 L646.526,158.234 C645.529995,158.113999 644.876002,157.676004 644.564,156.92 C644.215998,157.352002 643.781003,157.678999 643.259,157.901 C642.736997,158.123001 642.164003,158.234 641.54,158.234 C640.579995,158.234 639.818003,157.964003 639.254,157.424 C638.689997,156.883997 638.408,156.170004 638.408,155.282 C638.408,154.285995 638.800996,153.518003 639.587,152.978 C640.373004,152.437997 641.485993,152.168 642.926,152.168 L644.276,152.168 L644.276,151.556 C644.276,150.955997 644.096002,150.518001 643.736,150.242 C643.375998,149.965999 642.854003,149.828 642.17,149.828 C641.833998,149.828 641.444002,149.87 641,149.954 C640.555998,150.038 640.106002,150.157999 639.65,150.314 L639.146,148.892 C640.286006,148.459998 641.395995,148.244 642.476,148.244 C643.736006,148.244 644.683997,148.519997 645.32,149.072 C645.956003,149.624003 646.274,150.409995 646.274,151.43 L646.274,155.678 Z M642.134,156.758 C642.554002,156.758 642.958998,156.650001 643.349,156.434 C643.739002,156.217999 644.047999,155.918002 644.276,155.534 L644.276,153.428 L643.16,153.428 C642.247995,153.428 641.582002,153.580998 641.162,153.887 C640.741998,154.193002 640.532,154.633997 640.532,155.21 C640.532,155.714003 640.666999,156.097999 640.937,156.362 C641.207001,156.626001 641.605997,156.758 642.134,156.758 Z M658.74,157.496 C658.379998,157.724001 657.960002,157.903999 657.48,158.036 C656.999998,158.168001 656.496003,158.234 655.968,158.234 C654.887995,158.234 654.054003,157.955003 653.466,157.397 C652.877997,156.838997 652.584,156.080005 652.584,155.12 L652.584,149.972 L650.478,149.972 L650.478,148.496 L652.584,148.496 L652.584,146.372 L654.6,146.138 L654.6,148.496 L657.822,148.496 L657.588,149.972 L654.6,149.972 L654.6,155.102 C654.6,155.618003 654.731999,155.998999 654.996,156.245 C655.260001,156.491001 655.679997,156.614 656.256,156.614 C656.892003,156.614 657.479997,156.464001 658.02,156.164 L658.74,157.496 Z M666.4,143.834 C666.784002,143.834 667.098999,143.956999 667.345,144.203 C667.591001,144.449001 667.714,144.751998 667.714,145.112 C667.714,145.472002 667.591001,145.771999 667.345,146.012 C667.098999,146.252001 666.784002,146.372 666.4,146.372 C666.003998,146.372 665.686001,146.252001 665.446,146.012 C665.205999,145.771999 665.086,145.472002 665.086,145.112 C665.086,144.739998 665.208999,144.434001 665.455,144.194 C665.701001,143.953999 666.015998,143.834 666.4,143.834 Z M667.786,156.524 L670.378,156.524 L670.378,158 L662.944,158 L662.944,156.524 L665.77,156.524 L665.77,149.972 L663.034,149.972 L663.034,148.496 L667.786,148.496 L667.786,156.524 Z M679.37,158 L677.03,158 L673.664,148.496 L675.842,148.496 L678.236,156.326 L680.666,148.496 L682.736,148.496 L679.37,158 Z M687.876,153.896 C687.936,154.820005 688.202998,155.512998 688.677,155.975 C689.151002,156.437002 689.747996,156.668 690.468,156.668 C690.912002,156.668 691.334998,156.599001 691.737,156.461 C692.139002,156.322999 692.549998,156.116001 692.97,155.84 L693.834,157.064 C693.389998,157.436002 692.868003,157.723999 692.268,157.928 C691.667997,158.132001 691.038003,158.234 690.378,158.234 C688.925993,158.234 687.798004,157.781005 686.994,156.875 C686.189996,155.968995 685.788,154.760008 685.788,153.248 C685.788,152.299995 685.961998,151.445004 686.31,150.683 C686.658002,149.920996 687.161997,149.324002 687.822,148.892 C688.482003,148.459998 689.249996,148.244 690.126,148.244 C691.386006,148.244 692.384996,148.666996 693.123,149.513 C693.861004,150.359004 694.23,151.519993 694.23,152.996 C694.23,153.356002 694.212,153.655999 694.176,153.896 L687.876,153.896 Z M690.144,149.738 C689.495997,149.738 688.968002,149.971998 688.56,150.44 C688.151998,150.908002 687.918,151.603995 687.858,152.528 L692.268,152.528 C692.244,151.627995 692.052002,150.938002 691.692,150.458 C691.331998,149.977998 690.816003,149.738 690.144,149.738 Z M700.054,156.488 C700.054,156.007998 700.221998,155.600002 700.558,155.264 C700.894002,154.927998 701.301998,154.76 701.782,154.76 C702.274002,154.76 702.687998,154.927998 703.024,155.264 C703.360002,155.600002 703.528,156.007998 703.528,156.488 C703.528,156.980002 703.360002,157.393998 703.024,157.73 C702.687998,158.066002 702.274002,158.234 701.782,158.234 C701.301998,158.234 700.894002,158.066002 700.558,157.73 C700.221998,157.393998 700.054,156.980002 700.054,156.488 Z M718.334,148.964 C717.985998,149.084001 717.593002,149.165 717.155,149.207 C716.716998,149.249 716.192003,149.27 715.58,149.27 C716.156003,149.534001 716.587999,149.863998 716.876,150.26 C717.164001,150.656002 717.308,151.135997 717.308,151.7 C717.308,152.324003 717.155002,152.875998 716.849,153.356 C716.542998,153.836002 716.108003,154.213999 715.544,154.49 C714.979997,154.766001 714.314004,154.904 713.546,154.904 C713.005997,154.904 712.574002,154.850001 712.25,154.742 C712.117999,154.838 712.016,154.954999 711.944,155.093 C711.872,155.231001 711.836,155.377999 711.836,155.534 C711.836,156.014002 712.225996,156.254 713.006,156.254 L714.662,156.254 C715.334003,156.254 715.933997,156.367999 716.462,156.596 C716.990003,156.824001 717.400999,157.138998 717.695,157.541 C717.989001,157.943002 718.136,158.395997 718.136,158.9 C718.136,159.848005 717.728004,160.582997 716.912,161.105 C716.095996,161.627003 714.920008,161.888 713.384,161.888 C712.315995,161.888 711.473003,161.777001 710.855,161.555 C710.236997,161.332999 709.799001,161.009002 709.541,160.583 C709.282999,160.156998 709.154,159.608003 709.154,158.936 L710.954,158.936 C710.954,159.296002 711.022999,159.580999 711.161,159.791 C711.299001,160.001001 711.541998,160.156999 711.89,160.259 C712.238002,160.361001 712.741997,160.412 713.402,160.412 C714.362005,160.412 715.051998,160.295001 715.472,160.061 C715.892002,159.826999 716.102,159.482002 716.102,159.026 C716.102,158.641998 715.937002,158.345001 715.607,158.135 C715.276998,157.924999 714.830003,157.82 714.266,157.82 L712.628,157.82 C711.775996,157.82 711.131002,157.646002 710.693,157.298 C710.254998,156.949998 710.036,156.512003 710.036,155.984 C710.036,155.659998 710.125999,155.348002 710.306,155.048 C710.486001,154.747998 710.743998,154.490001 711.08,154.274 C710.515997,153.973998 710.105001,153.611002 709.847,153.185 C709.588999,152.758998 709.46,152.234003 709.46,151.61 C709.46,150.949997 709.627998,150.365003 709.964,149.855 C710.300002,149.344997 710.767997,148.949001 711.368,148.667 C711.968003,148.384999 712.651996,148.244 713.42,148.244 C714.452005,148.256 715.270997,148.184001 715.877,148.028 C716.483003,147.871999 717.127997,147.626002 717.812,147.29 L718.334,148.964 Z M713.438,149.648 C712.801997,149.648 712.322002,149.824998 711.998,150.179 C711.673998,150.533002 711.512,151.009997 711.512,151.61 C711.512,152.222003 711.676998,152.704998 712.007,153.059 C712.337002,153.413002 712.819997,153.59 713.456,153.59 C714.056003,153.59 714.511998,153.416002 714.824,153.068 C715.136002,152.719998 715.292,152.222003 715.292,151.574 C715.292,150.289994 714.674006,149.648 713.438,149.648 Z M725.4,143.834 C725.784002,143.834 726.098999,143.956999 726.345,144.203 C726.591001,144.449001 726.714,144.751998 726.714,145.112 C726.714,145.472002 726.591001,145.771999 726.345,146.012 C726.098999,146.252001 725.784002,146.372 725.4,146.372 C725.003998,146.372 724.686001,146.252001 724.446,146.012 C724.205999,145.771999 724.086,145.472002 724.086,145.112 C724.086,144.739998 724.208999,144.434001 724.455,144.194 C724.701001,143.953999 725.015998,143.834 725.4,143.834 Z M726.786,156.524 L729.378,156.524 L729.378,158 L721.944,158 L721.944,156.524 L724.77,156.524 L724.77,149.972 L722.034,149.972 L722.034,148.496 L726.786,148.496 L726.786,156.524 Z M741.34,157.496 C740.979998,157.724001 740.560002,157.903999 740.08,158.036 C739.599998,158.168001 739.096003,158.234 738.568,158.234 C737.487995,158.234 736.654003,157.955003 736.066,157.397 C735.477997,156.838997 735.184,156.080005 735.184,155.12 L735.184,149.972 L733.078,149.972 L733.078,148.496 L735.184,148.496 L735.184,146.372 L737.2,146.138 L737.2,148.496 L740.422,148.496 L740.188,149.972 L737.2,149.972 L737.2,155.102 C737.2,155.618003 737.331999,155.998999 737.596,156.245 C737.860001,156.491001 738.279997,156.614 738.856,156.614 C739.492003,156.614 740.079997,156.464001 740.62,156.164 L741.34,157.496 Z M749,143.834 C749.384002,143.834 749.698999,143.956999 749.945,144.203 C750.191001,144.449001 750.314,144.751998 750.314,145.112 C750.314,145.472002 750.191001,145.771999 749.945,146.012 C749.698999,146.252001 749.384002,146.372 749,146.372 C748.603998,146.372 748.286001,146.252001 748.046,146.012 C747.805999,145.771999 747.686,145.472002 747.686,145.112 C747.686,144.739998 747.808999,144.434001 748.055,144.194 C748.301001,143.953999 748.615998,143.834 749,143.834 Z M750.386,156.524 L752.978,156.524 L752.978,158 L745.544,158 L745.544,156.524 L748.37,156.524 L748.37,149.972 L745.634,149.972 L745.634,148.496 L750.386,148.496 L750.386,156.524 Z M765.534,148.964 C765.185998,149.084001 764.793002,149.165 764.355,149.207 C763.916998,149.249 763.392003,149.27 762.78,149.27 C763.356003,149.534001 763.787999,149.863998 764.076,150.26 C764.364001,150.656002 764.508,151.135997 764.508,151.7 C764.508,152.324003 764.355002,152.875998 764.049,153.356 C763.742998,153.836002 763.308003,154.213999 762.744,154.49 C762.179997,154.766001 761.514004,154.904 760.746,154.904 C760.205997,154.904 759.774002,154.850001 759.45,154.742 C759.317999,154.838 759.216,154.954999 759.144,155.093 C759.072,155.231001 759.036,155.377999 759.036,155.534 C759.036,156.014002 759.425996,156.254 760.206,156.254 L761.862,156.254 C762.534003,156.254 763.133997,156.367999 763.662,156.596 C764.190003,156.824001 764.600999,157.138998 764.895,157.541 C765.189001,157.943002 765.336,158.395997 765.336,158.9 C765.336,159.848005 764.928004,160.582997 764.112,161.105 C763.295996,161.627003 762.120008,161.888 760.584,161.888 C759.515995,161.888 758.673003,161.777001 758.055,161.555 C757.436997,161.332999 756.999001,161.009002 756.741,160.583 C756.482999,160.156998 756.354,159.608003 756.354,158.936 L758.154,158.936 C758.154,159.296002 758.222999,159.580999 758.361,159.791 C758.499001,160.001001 758.741998,160.156999 759.09,160.259 C759.438002,160.361001 759.941997,160.412 760.602,160.412 C761.562005,160.412 762.251998,160.295001 762.672,160.061 C763.092002,159.826999 763.302,159.482002 763.302,159.026 C763.302,158.641998 763.137002,158.345001 762.807,158.135 C762.476998,157.924999 762.030003,157.82 761.466,157.82 L759.828,157.82 C758.975996,157.82 758.331002,157.646002 757.893,157.298 C757.454998,156.949998 757.236,156.512003 757.236,155.984 C757.236,155.659998 757.325999,155.348002 757.506,155.048 C757.686001,154.747998 757.943998,154.490001 758.28,154.274 C757.715997,153.973998 757.305001,153.611002 757.047,153.185 C756.788999,152.758998 756.66,152.234003 756.66,151.61 C756.66,150.949997 756.827998,150.365003 757.164,149.855 C757.500002,149.344997 757.967997,148.949001 758.568,148.667 C759.168003,148.384999 759.851996,148.244 760.62,148.244 C761.652005,148.256 762.470997,148.184001 763.077,148.028 C763.683003,147.871999 764.327997,147.626002 765.012,147.29 L765.534,148.964 Z M760.638,149.648 C760.001997,149.648 759.522002,149.824998 759.198,150.179 C758.873998,150.533002 758.712,151.009997 758.712,151.61 C758.712,152.222003 758.876998,152.704998 759.207,153.059 C759.537002,153.413002 760.019997,153.59 760.656,153.59 C761.256003,153.59 761.711998,153.416002 762.024,153.068 C762.336002,152.719998 762.492,152.222003 762.492,151.574 C762.492,150.289994 761.874006,149.648 760.638,149.648 Z M768.802,148.496 L770.548,148.496 L770.692,149.738 C771.088002,149.257998 771.552997,148.889001 772.087,148.631 C772.621003,148.372999 773.181997,148.244 773.77,148.244 C774.646004,148.244 775.305998,148.489998 775.75,148.982 C776.194002,149.474002 776.416,150.169995 776.416,151.07 L776.416,158 L774.4,158 L774.4,152.078 C774.4,151.489997 774.367,151.037002 774.301,150.719 C774.235,150.400998 774.106001,150.167001 773.914,150.017 C773.721999,149.866999 773.434002,149.792 773.05,149.792 C772.617998,149.792 772.207002,149.923999 771.817,150.188 C771.426998,150.452001 771.094001,150.781998 770.818,151.178 L770.818,158 L768.802,158 L768.802,148.496 Z M784.418,148.244 C785.786007,148.244 786.841996,148.690996 787.586,149.585 C788.330004,150.479004 788.702,151.693992 788.702,153.23 C788.702,154.766008 788.324004,155.983995 787.568,156.884 C786.811996,157.784005 785.756007,158.234 784.4,158.234 C783.031993,158.234 781.973004,157.793004 781.223,156.911 C780.472996,156.028996 780.098,154.808008 780.098,153.248 C780.098,151.735992 780.478996,150.524005 781.241,149.612 C782.003004,148.699995 783.061993,148.244 784.418,148.244 Z M784.418,149.81 C783.685996,149.81 783.137002,150.091997 782.771,150.656 C782.404998,151.220003 782.222,152.083994 782.222,153.248 C782.222,154.424006 782.401998,155.290997 782.762,155.849 C783.122002,156.407003 783.667996,156.686 784.4,156.686 C785.132004,156.686 785.677998,156.404003 786.038,155.84 C786.398002,155.275997 786.578,154.406006 786.578,153.23 C786.578,152.065994 786.398002,151.205003 786.038,150.647 C785.677998,150.088997 785.138004,149.81 784.418,149.81 Z M799.134,148.262 C799.626002,148.262 800.105998,148.339999 800.574,148.496 L800.232,152.006 L798.792,152.006 L798.792,150.062 C798.131997,150.074 797.559002,150.337997 797.073,150.854 C796.586998,151.370003 796.200001,152.095995 795.912,153.032 L795.912,156.56 L797.82,156.56 L797.82,158 L792.492,158 L792.492,156.56 L793.896,156.56 L793.896,149.936 L792.492,149.936 L792.492,148.496 L795.426,148.496 L795.786,150.692 C796.158002,149.875996 796.610997,149.267002 797.145,148.865 C797.679003,148.462998 798.341996,148.262 799.134,148.262 Z M805.876,153.896 C805.936,154.820005 806.202998,155.512998 806.677,155.975 C807.151002,156.437002 807.747996,156.668 808.468,156.668 C808.912002,156.668 809.334998,156.599001 809.737,156.461 C810.139002,156.322999 810.549998,156.116001 810.97,155.84 L811.834,157.064 C811.389998,157.436002 810.868003,157.723999 810.268,157.928 C809.667997,158.132001 809.038003,158.234 808.378,158.234 C806.925993,158.234 805.798004,157.781005 804.994,156.875 C804.189996,155.968995 803.788,154.760008 803.788,153.248 C803.788,152.299995 803.961998,151.445004 804.31,150.683 C804.658002,149.920996 805.161997,149.324002 805.822,148.892 C806.482003,148.459998 807.249996,148.244 808.126,148.244 C809.386006,148.244 810.384996,148.666996 811.123,149.513 C811.861004,150.359004 812.23,151.519993 812.23,152.996 C812.23,153.356002 812.212,153.655999 812.176,153.896 L805.876,153.896 Z M808.144,149.738 C807.495997,149.738 806.968002,149.971998 806.56,150.44 C806.151998,150.908002 805.918,151.603995 805.858,152.528 L810.268,152.528 C810.244,151.627995 810.052002,150.938002 809.692,150.458 C809.331998,149.977998 808.816003,149.738 808.144,149.738 Z" id="--ReactNative.gitign" fill="#3D3E3F"></path>
    </g>
</svg>