<?xml version="1.0" encoding="UTF-8"?>
<svg width="980px" height="128px" viewBox="0 0 980 128" version="1.1" xmlns="http://www.w3.org/2000/svg" xmlns:xlink="http://www.w3.org/1999/xlink">
    <!-- Generator: Sketch 52.5 (67469) - http://www.bohemiancoding.com/sketch -->
    <title>gitignore-templates</title>
    <desc>Created with Sketch.</desc>
    <g id="gitignore-templates" stroke="none" stroke-width="1" fill="none" fill-rule="evenodd">
        <path d="M530.304,75.512 C527.903988,77.0480077 525.120016,77.816 521.952,77.816 C518.687984,77.816 516.232008,76.9840083 514.584,75.32 C512.935992,73.6559917 512.112,71.320015 512.112,68.312 L512.112,56.744 L506.784,56.744 L506.784,51.512 L512.112,51.512 L512.112,45.992 L519.696,45.08 L519.696,51.512 L527.904,51.512 L527.136,56.744 L519.696,56.744 L519.696,68.312 C519.696,69.5600062 519.983997,70.4559973 520.56,71 C521.136003,71.5440027 522.063994,71.816 523.344,71.816 C524.944008,71.816 526.431993,71.4320038 527.808,70.664 L530.304,75.512 Z M542.836,66.488 C543.316002,70.3600194 545.363982,72.296 548.98,72.296 C551.156011,72.296 553.331989,71.592007 555.508,70.184 L558.532,74.312 C557.283994,75.4000054 555.796009,76.2559969 554.068,76.88 C552.339991,77.5040031 550.43601,77.816 548.356,77.816 C545.507986,77.816 543.09201,77.2480057 541.108,76.112 C539.12399,74.9759943 537.628005,73.3920102 536.62,71.36 C535.611995,69.3279898 535.108,66.9680134 535.108,64.28 C535.108,61.7199872 535.595995,59.4080103 536.572,57.344 C537.548005,55.2799897 538.971991,53.648006 540.844,52.448 C542.716009,51.247994 544.947987,50.648 547.54,50.648 C549.972012,50.648 552.083991,51.1679948 553.876,52.208 C555.668009,53.2480052 557.051995,54.7519902 558.028,56.72 C559.004005,58.6880098 559.492,61.0319864 559.492,63.752 C559.492,64.8080053 559.444,65.7199962 559.348,66.488 L542.836,66.488 Z M547.54,55.736 C546.163993,55.736 545.060004,56.239995 544.228,57.248 C543.395996,58.256005 542.900001,59.7999896 542.74,61.88 L552.1,61.88 C552.036,57.7839795 550.516015,55.736 547.54,55.736 Z M584.024,50.648 C585.848009,50.648 587.183996,51.247994 588.032,52.448 C588.880004,53.648006 589.304,55.543987 589.304,58.136 L589.304,77 L582.824,77 L582.824,59 C582.824,58.0719954 582.736001,57.4320018 582.56,57.08 C582.383999,56.7279982 582.056002,56.552 581.576,56.552 C580.679996,56.552 579.800004,57.1119944 578.936,58.232 L578.936,77 L573.56,77 L573.56,59 C573.56,58.0719954 573.472001,57.4320018 573.296,57.08 C573.119999,56.7279982 572.792002,56.552 572.312,56.552 C571.415996,56.552 570.536004,57.1119944 569.672,58.232 L569.672,77 L563.096,77 L563.096,51.512 L568.616,51.512 L569.144,53.96 C569.976004,52.8079942 570.799996,51.9680026 571.616,51.44 C572.432004,50.9119974 573.383995,50.648 574.472,50.648 C575.464005,50.648 576.295997,50.8959975 576.968,51.392 C577.640003,51.8880025 578.119999,52.6479949 578.408,53.672 C580.136009,51.6559899 582.00799,50.648 584.024,50.648 Z M608.172,50.648 C611.372016,50.648 613.723992,51.8239882 615.228,54.176 C616.732008,56.5280118 617.484,59.8639784 617.484,64.184 C617.484,66.8080131 617.092004,69.1519897 616.308,71.216 C615.523996,73.2800103 614.396007,74.8959942 612.924,76.064 C611.451993,77.2320058 609.70801,77.816 607.692,77.816 C605.227988,77.816 603.212008,76.9360088 601.644,75.176 L601.644,86.84 L594.06,87.656 L594.06,51.512 L600.78,51.512 L601.116,54.344 C602.108005,53.0959938 603.219994,52.168003 604.452,51.56 C605.684006,50.951997 606.923994,50.648 608.172,50.648 Z M605.82,56.264 C604.219992,56.264 602.828006,57.2559901 601.644,59.24 L601.644,69.992 C602.188003,70.7600038 602.755997,71.3279982 603.348,71.696 C603.940003,72.0640018 604.619996,72.248 605.388,72.248 C606.796007,72.248 607.859996,71.6160063 608.58,70.352 C609.300004,69.0879937 609.66,67.0640139 609.66,64.28 C609.66,61.271985 609.340003,59.1840058 608.7,58.016 C608.059997,56.8479942 607.100006,56.264 605.82,56.264 Z M636.256,68.984 C636.256,70.8720094 637.343989,71.816 639.52,71.816 C640.704006,71.816 641.919994,71.5600026 643.168,71.048 L644.944,76.136 C642.89599,77.2560056 640.448014,77.816 637.6,77.816 C634.623985,77.816 632.392007,76.9600086 630.904,75.248 C629.415993,73.5359914 628.672,71.1280155 628.672,68.024 L628.672,46.568 L621.184,46.568 L621.184,41.384 L636.256,41.384 L636.256,68.984 Z M673.316,69.656 C673.316,70.5840046 673.443999,71.2719978 673.7,71.72 C673.956001,72.1680022 674.387997,72.5039989 674.996,72.728 L673.412,77.72 C671.875992,77.5599992 670.596005,77.2160026 669.572,76.688 C668.547995,76.1599974 667.748003,75.3840051 667.172,74.36 C666.211995,75.4800056 664.996007,76.335997 663.524,76.928 C662.051993,77.520003 660.484008,77.816 658.82,77.816 C656.195987,77.816 654.100008,77.0720074 652.532,75.584 C650.963992,74.0959926 650.18,72.1680118 650.18,69.8 C650.18,67.0479862 651.267989,64.9120076 653.444,63.392 C655.620011,61.8719924 658.67598,61.112 662.612,61.112 L666.02,61.112 L666.02,60.2 C666.02,57.5759869 664.340017,56.264 660.98,56.264 C660.115996,56.264 659.036007,56.3839988 657.74,56.624 C656.443994,56.8640012 655.188006,57.1919979 653.972,57.608 L652.244,52.568 C653.876008,51.959997 655.579991,51.4880017 657.356,51.152 C659.132009,50.8159983 660.739993,50.648 662.18,50.648 C669.604037,50.648 673.316,53.6559699 673.316,59.672 L673.316,69.656 Z M661.412,72.392 C662.276004,72.392 663.147996,72.1440025 664.028,71.648 C664.908004,71.1519975 665.571998,70.4720043 666.02,69.608 L666.02,65.432 L664.148,65.432 C660.05198,65.432 658.004,66.7119872 658.004,69.272 C658.004,70.264005 658.299997,71.0319973 658.892,71.576 C659.484003,72.1200027 660.323995,72.392 661.412,72.392 Z M703.704,75.512 C701.303988,77.0480077 698.520016,77.816 695.352,77.816 C692.087984,77.816 689.632008,76.9840083 687.984,75.32 C686.335992,73.6559917 685.512,71.320015 685.512,68.312 L685.512,56.744 L680.184,56.744 L680.184,51.512 L685.512,51.512 L685.512,45.992 L693.096,45.08 L693.096,51.512 L701.304,51.512 L700.536,56.744 L693.096,56.744 L693.096,68.312 C693.096,69.5600062 693.383997,70.4559973 693.96,71 C694.536003,71.5440027 695.463994,71.816 696.744,71.816 C698.344008,71.816 699.831993,71.4320038 701.208,70.664 L703.704,75.512 Z M716.236,66.488 C716.716002,70.3600194 718.763982,72.296 722.38,72.296 C724.556011,72.296 726.731989,71.592007 728.908,70.184 L731.932,74.312 C730.683994,75.4000054 729.196009,76.2559969 727.468,76.88 C725.739991,77.5040031 723.83601,77.816 721.756,77.816 C718.907986,77.816 716.49201,77.2480057 714.508,76.112 C712.52399,74.9759943 711.028005,73.3920102 710.02,71.36 C709.011995,69.3279898 708.508,66.9680134 708.508,64.28 C708.508,61.7199872 708.995995,59.4080103 709.972,57.344 C710.948005,55.2799897 712.371991,53.648006 714.244,52.448 C716.116009,51.247994 718.347987,50.648 720.94,50.648 C723.372012,50.648 725.483991,51.1679948 727.276,52.208 C729.068009,53.2480052 730.451995,54.7519902 731.428,56.72 C732.404005,58.6880098 732.892,61.0319864 732.892,63.752 C732.892,64.8080053 732.844001,65.7199962 732.748,66.488 L716.236,66.488 Z M720.94,55.736 C719.563993,55.736 718.460004,56.239995 717.628,57.248 C716.795996,58.256005 716.300001,59.7999896 716.14,61.88 L725.5,61.88 C725.436,57.7839795 723.916015,55.736 720.94,55.736 Z M748.784,72.392 C750.096007,72.392 751.127996,72.192002 751.88,71.792 C752.632004,71.391998 753.008,70.792004 753.008,69.992 C753.008,69.4159971 752.856002,68.9520018 752.552,68.6 C752.247999,68.2479982 751.680004,67.9040017 750.848,67.568 C750.015996,67.2319983 748.720009,66.8240024 746.96,66.344 C744.399987,65.6719966 742.448007,64.736006 741.104,63.536 C739.759993,62.335994 739.088,60.6800106 739.088,58.568 C739.088,56.2319883 740.05599,54.3280074 741.992,52.856 C743.92801,51.3839926 746.639983,50.648 750.128,50.648 C754.16002,50.648 757.599986,51.6879896 760.448,53.768 L757.424,58.232 C755.087988,56.7919928 752.736012,56.072 750.368,56.072 C749.119994,56.072 748.200003,56.2319984 747.608,56.552 C747.015997,56.8720016 746.72,57.3679966 746.72,58.04 C746.72,58.4880022 746.871999,58.8639985 747.176,59.168 C747.480002,59.4720015 748.055996,59.7839984 748.904,60.104 C749.752004,60.4240016 751.023992,60.8239976 752.72,61.304 C754.544009,61.8160026 756.039994,62.375997 757.208,62.984 C758.376006,63.592003 759.279997,64.4079949 759.92,65.432 C760.560003,66.4560051 760.88,67.767992 760.88,69.368 C760.88,71.160009 760.336005,72.6959936 759.248,73.976 C758.159995,75.2560064 756.704009,76.2159968 754.88,76.856 C753.055991,77.4960032 751.040011,77.816 748.832,77.816 C746.463988,77.816 744.32001,77.4800034 742.4,76.808 C740.47999,76.1359966 738.848007,75.1920061 737.504,73.976 L741.296,69.704 C743.600012,71.496009 746.095987,72.392 748.784,72.392 Z" fill="#111111"></path>
        <path d="M242.744,53 C241.079992,53.6720034 238.632016,54.008 235.4,54.008 C237.064008,54.7440037 238.303996,55.6239949 239.12,56.648 C239.936004,57.6720051 240.344,58.983992 240.344,60.584 C240.344,62.2160082 239.896004,63.6799935 239,64.976 C238.103996,66.2720065 236.840008,67.2879963 235.208,68.024 C233.575992,68.7600037 231.688011,69.128 229.544,69.128 C228.487995,69.128 227.496005,69.032001 226.568,68.84 C226.311999,68.9680006 226.112001,69.1679986 225.968,69.44 C225.823999,69.7120014 225.752,69.9919986 225.752,70.28 C225.752,70.7600024 225.935998,71.1359986 226.304,71.408 C226.672002,71.6800014 227.415994,71.816 228.536,71.816 L232.76,71.816 C234.68001,71.816 236.375993,72.1359968 237.848,72.776 C239.320007,73.4160032 240.455996,74.2959944 241.256,75.416 C242.056004,76.5360056 242.456,77.799993 242.456,79.208 C242.456,81.8640133 241.296012,83.9359926 238.976,85.424 C236.655988,86.9120074 233.272022,87.656 228.824,87.656 C225.655984,87.656 223.168009,87.3280033 221.36,86.672 C219.551991,86.0159967 218.288004,85.0960059 217.568,83.912 C216.847996,82.7279941 216.488,81.240009 216.488,79.448 L223.208,79.448 C223.208,80.248004 223.359998,80.8719978 223.664,81.32 C223.968002,81.7680022 224.535996,82.1039989 225.368,82.328 C226.200004,82.5520011 227.415992,82.664 229.016,82.664 C231.256011,82.664 232.799996,82.4080026 233.648,81.896 C234.496004,81.3839974 234.92,80.6640046 234.92,79.736 C234.92,78.9679962 234.608003,78.3520023 233.984,77.888 C233.359997,77.4239977 232.440006,77.192 231.224,77.192 L227.192,77.192 C224.567987,77.192 222.600007,76.7200047 221.288,75.776 C219.975993,74.8319953 219.32,73.6240074 219.32,72.152 C219.32,71.1919952 219.567998,70.2880042 220.064,69.44 C220.560002,68.5919958 221.255996,67.8800029 222.152,67.304 C220.551992,66.4399957 219.400004,65.4240058 218.696,64.256 C217.991996,63.0879942 217.64,61.6720083 217.64,60.008 C217.64,58.1199906 218.119995,56.472007 219.08,55.064 C220.040005,53.655993 221.383991,52.5760038 223.112,51.824 C224.840009,51.0719962 226.807989,50.696 229.016,50.696 C231.576013,50.7600003 233.751991,50.5120028 235.544,49.952 C237.336009,49.3919972 239.159991,48.5520056 241.016,47.432 L242.744,53 Z M229.208,55.64 C227.991994,55.64 227.040003,56.0239962 226.352,56.792 C225.663997,57.5600038 225.32,58.5999934 225.32,59.912 C225.32,61.2880069 225.671996,62.3599962 226.376,63.128 C227.080004,63.8960038 228.023994,64.28 229.208,64.28 C230.456006,64.28 231.415997,63.9040038 232.088,63.152 C232.760003,62.3999962 233.096,61.2880074 233.096,59.816 C233.096,57.0319861 231.800013,55.64 229.208,55.64 Z M258.252,38.168 C259.564007,38.168 260.635996,38.5759959 261.468,39.392 C262.300004,40.2080041 262.716,41.2239939 262.716,42.44 C262.716,43.6880062 262.300004,44.711996 261.468,45.512 C260.635996,46.312004 259.564007,46.712 258.252,46.712 C256.939993,46.712 255.860004,46.3040041 255.012,45.488 C254.163996,44.6719959 253.74,43.6560061 253.74,42.44 C253.74,41.2239939 254.163996,40.2080041 255.012,39.392 C255.860004,38.5759959 256.939993,38.168 258.252,38.168 Z M262.812,71.816 L269.34,71.816 L269.34,77 L248.028,77 L248.028,71.816 L255.228,71.816 L255.228,56.696 L248.268,56.696 L248.268,51.512 L262.812,51.512 L262.812,71.816 Z M299.104,75.512 C296.703988,77.0480077 293.920016,77.816 290.752,77.816 C287.487984,77.816 285.032008,76.9840083 283.384,75.32 C281.735992,73.6559917 280.912,71.320015 280.912,68.312 L280.912,56.744 L275.584,56.744 L275.584,51.512 L280.912,51.512 L280.912,45.992 L288.496,45.08 L288.496,51.512 L296.704,51.512 L295.936,56.744 L288.496,56.744 L288.496,68.312 C288.496,69.5600062 288.783997,70.4559973 289.36,71 C289.936003,71.5440027 290.863994,71.816 292.144,71.816 C293.744008,71.816 295.231993,71.4320038 296.608,70.664 L299.104,75.512 Z M316.052,38.168 C317.364007,38.168 318.435996,38.5759959 319.268,39.392 C320.100004,40.2080041 320.516,41.2239939 320.516,42.44 C320.516,43.6880062 320.100004,44.711996 319.268,45.512 C318.435996,46.312004 317.364007,46.712 316.052,46.712 C314.739993,46.712 313.660004,46.3040041 312.812,45.488 C311.963996,44.6719959 311.54,43.6560061 311.54,42.44 C311.54,41.2239939 311.963996,40.2080041 312.812,39.392 C313.660004,38.5759959 314.739993,38.168 316.052,38.168 Z M320.612,71.816 L327.14,71.816 L327.14,77 L305.828,77 L305.828,71.816 L313.028,71.816 L313.028,56.696 L306.068,56.696 L306.068,51.512 L320.612,51.512 L320.612,71.816 Z M358.344,53 C356.679992,53.6720034 354.232016,54.008 351,54.008 C352.664008,54.7440037 353.903996,55.6239949 354.72,56.648 C355.536004,57.6720051 355.944,58.983992 355.944,60.584 C355.944,62.2160082 355.496004,63.6799935 354.6,64.976 C353.703996,66.2720065 352.440008,67.2879963 350.808,68.024 C349.175992,68.7600037 347.288011,69.128 345.144,69.128 C344.087995,69.128 343.096005,69.032001 342.168,68.84 C341.911999,68.9680006 341.712001,69.1679986 341.568,69.44 C341.423999,69.7120014 341.352,69.9919986 341.352,70.28 C341.352,70.7600024 341.535998,71.1359986 341.904,71.408 C342.272002,71.6800014 343.015994,71.816 344.136,71.816 L348.36,71.816 C350.28001,71.816 351.975993,72.1359968 353.448,72.776 C354.920007,73.4160032 356.055996,74.2959944 356.856,75.416 C357.656004,76.5360056 358.056,77.799993 358.056,79.208 C358.056,81.8640133 356.896012,83.9359926 354.576,85.424 C352.255988,86.9120074 348.872022,87.656 344.424,87.656 C341.255984,87.656 338.768009,87.3280033 336.96,86.672 C335.151991,86.0159967 333.888004,85.0960059 333.168,83.912 C332.447996,82.7279941 332.088,81.240009 332.088,79.448 L338.808,79.448 C338.808,80.248004 338.959998,80.8719978 339.264,81.32 C339.568002,81.7680022 340.135996,82.1039989 340.968,82.328 C341.800004,82.5520011 343.015992,82.664 344.616,82.664 C346.856011,82.664 348.399996,82.4080026 349.248,81.896 C350.096004,81.3839974 350.52,80.6640046 350.52,79.736 C350.52,78.9679962 350.208003,78.3520023 349.584,77.888 C348.959997,77.4239977 348.040006,77.192 346.824,77.192 L342.792,77.192 C340.167987,77.192 338.200007,76.7200047 336.888,75.776 C335.575993,74.8319953 334.92,73.6240074 334.92,72.152 C334.92,71.1919952 335.167998,70.2880042 335.664,69.44 C336.160002,68.5919958 336.855996,67.8800029 337.752,67.304 C336.151992,66.4399957 335.000004,65.4240058 334.296,64.256 C333.591996,63.0879942 333.24,61.6720083 333.24,60.008 C333.24,58.1199906 333.719995,56.472007 334.68,55.064 C335.640005,53.655993 336.983991,52.5760038 338.712,51.824 C340.440009,51.0719962 342.407989,50.696 344.616,50.696 C347.176013,50.7600003 349.351991,50.5120028 351.144,49.952 C352.936009,49.3919972 354.759991,48.5520056 356.616,47.432 L358.344,53 Z M344.808,55.64 C343.591994,55.64 342.640003,56.0239962 341.952,56.792 C341.263997,57.5600038 340.92,58.5999934 340.92,59.912 C340.92,61.2880069 341.271996,62.3599962 341.976,63.128 C342.680004,63.8960038 343.623994,64.28 344.808,64.28 C346.056006,64.28 347.015997,63.9040038 347.688,63.152 C348.360003,62.3999962 348.696,61.2880074 348.696,59.816 C348.696,57.0319861 347.400013,55.64 344.808,55.64 Z M362.86,51.512 L369.484,51.512 L370.012,54.44 C371.164006,53.1599936 372.371994,52.2080031 373.636,51.584 C374.900006,50.9599969 376.331992,50.648 377.932,50.648 C380.140011,50.648 381.859994,51.3199933 383.092,52.664 C384.324006,54.0080067 384.94,55.879988 384.94,58.28 L384.94,77 L377.356,77 L377.356,60.488 C377.356,58.887992 377.180002,57.784003 376.828,57.176 C376.475998,56.567997 375.836005,56.264 374.908,56.264 C374.139996,56.264 373.396004,56.5119975 372.676,57.008 C371.955996,57.5040025 371.212004,58.2319952 370.444,59.192 L370.444,77 L362.86,77 L362.86,51.512 Z M402.8,50.648 C406.672019,50.648 409.703989,51.8719878 411.896,54.32 C414.088011,56.7680122 415.184,60.0559794 415.184,64.184 C415.184,68.4720214 414.096011,71.815988 411.92,74.216 C409.743989,76.616012 406.70402,77.816 402.8,77.816 C398.89598,77.816 395.856011,76.6240119 393.68,74.24 C391.503989,71.8559881 390.416,68.5200214 390.416,64.232 C390.416,61.5119864 390.903995,59.1360102 391.88,57.104 C392.856005,55.0719898 394.279991,53.4880057 396.152,52.352 C398.024009,51.2159943 400.239987,50.648 402.8,50.648 Z M402.8,56.264 C401.231992,56.264 400.080004,56.8959937 399.344,58.16 C398.607996,59.4240063 398.24,61.4479861 398.24,64.232 C398.24,67.0480141 398.607996,69.0879937 399.344,70.352 C400.080004,71.6160063 401.231992,72.248 402.8,72.248 C404.368008,72.248 405.519996,71.6080064 406.256,70.328 C406.992004,69.0479936 407.36,67.0000141 407.36,64.184 C407.36,61.4319862 406.992004,59.4240063 406.256,58.16 C405.519996,56.8959937 404.368008,56.264 402.8,56.264 Z M440.1,50.744 C441.636008,50.744 443.043994,50.9999974 444.324,51.512 L442.932,62.168 L438.132,62.168 L438.132,57.464 C436.723993,57.7200013 435.476005,58.4879936 434.388,59.768 C433.299995,61.0480064 432.452003,62.6639902 431.844,64.616 L431.844,71.912 L436.884,71.912 L436.884,77 L420.9,77 L420.9,71.912 L424.26,71.912 L424.26,56.552 L420.9,56.552 L420.9,51.512 L430.068,51.512 L431.412,57.224 C432.340005,55.0479891 433.507993,53.4240054 434.916,52.352 C436.324007,51.2799946 438.05199,50.744 440.1,50.744 Z M456.136,66.488 C456.616002,70.3600194 458.663982,72.296 462.28,72.296 C464.456011,72.296 466.631989,71.592007 468.808,70.184 L471.832,74.312 C470.583994,75.4000054 469.096009,76.2559969 467.368,76.88 C465.639991,77.5040031 463.73601,77.816 461.656,77.816 C458.807986,77.816 456.39201,77.2480057 454.408,76.112 C452.42399,74.9759943 450.928005,73.3920102 449.92,71.36 C448.911995,69.3279898 448.408,66.9680134 448.408,64.28 C448.408,61.7199872 448.895995,59.4080103 449.872,57.344 C450.848005,55.2799897 452.271991,53.648006 454.144,52.448 C456.016009,51.247994 458.247987,50.648 460.84,50.648 C463.272012,50.648 465.383991,51.1679948 467.176,52.208 C468.968009,53.2480052 470.351995,54.7519902 471.328,56.72 C472.304005,58.6880098 472.792,61.0319864 472.792,63.752 C472.792,64.8080053 472.744,65.7199962 472.648,66.488 L456.136,66.488 Z M460.84,55.736 C459.463993,55.736 458.360004,56.239995 457.528,57.248 C456.695996,58.256005 456.200001,59.7999896 456.04,61.88 L465.4,61.88 C465.336,57.7839795 463.816015,55.736 460.84,55.736 Z" id="gitignore-templates-copy" fill="#FF6600"></path>
    </g>
</svg>