<?xml version="1.0" encoding="UTF-8"?>
<svg width="980px" height="200px" viewBox="0 0 980 200" version="1.1" xmlns="http://www.w3.org/2000/svg" xmlns:xlink="http://www.w3.org/1999/xlink">
    <!-- Generator: Sketch 43.1 (39012) - http://www.bohemiancoding.com/sketch -->
    <title>patch</title>
    <desc>Created with Sketch.</desc>
    <defs></defs>
    <g id="gitignore-templates" stroke="none" stroke-width="1" fill="none" fill-rule="evenodd">
        <g id="patch">
            <g id="Group" transform="translate(438.000000, -3.000000)">
                <path d="M23.1069048,142.116503 C24.9626971,133.473584 33.4683854,124.963813 42.1165029,123.106905 L76.6766197,115.686218 C85.3195386,113.830426 90.8227081,119.32728 88.9657996,127.975398 L81.5451125,162.535514 C79.6893203,171.178433 71.1836319,179.688204 62.5355145,181.545113 L27.9753976,188.9658 C19.3324788,190.821592 13.8293093,185.324737 15.6862178,176.67662 L23.1069048,142.116503 Z" id="Rectangle" fill="#F44336" opacity="0.1" transform="translate(52.326009, 152.326009) rotate(45.000000) translate(-52.326009, -152.326009) "></path>
                <path d="M23.1069048,122.116503 C24.9626971,113.473584 33.4683854,104.963813 42.1165029,103.106905 L76.6766197,95.6862178 C85.3195386,93.8304255 90.8227081,99.3272802 88.9657996,107.975398 L81.5451125,142.535514 C79.6893203,151.178433 71.1836319,159.688204 62.5355145,161.545113 L27.9753976,168.9658 C19.3324788,170.821592 13.8293093,165.324737 15.6862178,156.67662 L23.1069048,122.116503 Z" id="Rectangle-Copy" fill="#9C27B0" opacity="0.5" transform="translate(52.326009, 132.326009) rotate(45.000000) translate(-52.326009, -132.326009) "></path>
                <path d="M23.1069048,102.116503 C24.9626971,93.473584 33.4683854,84.9638133 42.1165029,83.1069048 L76.6766197,75.6862178 C85.3195386,73.8304255 90.8227081,79.3272802 88.9657996,87.9753976 L81.5451125,122.535514 C79.6893203,131.178433 71.1836319,139.688204 62.5355145,141.545113 L27.9753976,148.9658 C19.3324788,150.821592 13.8293093,145.324737 15.6862178,136.67662 L23.1069048,102.116503 Z" id="Rectangle-Copy-2" fill="#2196F3" opacity="0.1" transform="translate(52.326009, 112.326009) rotate(45.000000) translate(-52.326009, -112.326009) "></path>
                <path d="M23.1069048,82.1165029 C24.9626971,73.473584 33.4683854,64.9638133 42.1165029,63.1069048 L76.6766197,55.6862178 C85.3195386,53.8304255 90.8227081,59.3272802 88.9657996,67.9753976 L81.5451125,102.535514 C79.6893203,111.178433 71.1836319,119.688204 62.5355145,121.545113 L27.9753976,128.9658 C19.3324788,130.821592 13.8293093,125.324737 15.6862178,116.67662 L23.1069048,82.1165029 Z" id="Rectangle-Copy-3" fill="#2196F3" opacity="0.1" transform="translate(52.326009, 92.326009) rotate(45.000000) translate(-52.326009, -92.326009) "></path>
                <path d="M23.1069048,62.1165029 C24.9626971,53.473584 33.4683854,44.9638133 42.1165029,43.1069048 L76.6766197,35.6862178 C85.3195386,33.8304255 90.8227081,39.3272802 88.9657996,47.9753976 L81.5451125,82.5355145 C79.6893203,91.1784334 71.1836319,99.6882041 62.5355145,101.545113 L27.9753976,108.9658 C19.3324788,110.821592 13.8293093,105.324737 15.6862178,96.6766197 L23.1069048,62.1165029 Z" id="Rectangle-Copy-4" fill="#2196F3" opacity="0.1" transform="translate(52.326009, 72.326009) rotate(45.000000) translate(-52.326009, -72.326009) "></path>
                <path d="M23.1069048,42.1165029 C24.9626971,33.473584 33.4683854,24.9638133 42.1165029,23.1069048 L76.6766197,15.6862178 C85.3195386,13.8304255 90.8227081,19.3272802 88.9657996,27.9753976 L81.5451125,62.5355145 C79.6893203,71.1784334 71.1836319,79.6882041 62.5355145,81.5451125 L27.9753976,88.9657996 C19.3324788,90.8215918 13.8293093,85.3247372 15.6862178,76.6766197 L23.1069048,42.1165029 Z" id="Rectangle-Copy-5" fill="#2196F3" opacity="0.1" transform="translate(52.326009, 52.326009) rotate(45.000000) translate(-52.326009, -52.326009) "></path>
            </g>
            <path d="M551.72,129.46 L545.38,129.46 L545.38,130.84 L551.6,130.84 L551.72,129.46 Z M573.56,136.2 L571.04,131.4 L568.5,131.48 L568.5,136 L566.84,136 L566.84,123.62 C572.54,122.78 574.46,124.42 574.46,126.96 C574.46,128.6 573.58,129.72 572.38,130.58 L575.34,135.94 L573.56,136.2 Z M568.5,124.9 L568.5,130.26 L571.2,130.18 C572.16,129.54 572.82,128.58 572.82,127.32 C572.82,125.52 571.52,124.46 568.5,124.9 Z M585.12,136.22 C578.98,136.2 577.32,134.42 577.32,131.24 C577.32,128.26 579.4,125.96 581.94,125.96 C584.62,125.96 585.98,128.12 585.62,131.36 L578.92,131.52 C579.08,133.84 580.54,134.72 585.28,134.84 L585.12,136.22 Z M581.66,127.3 C580.04,127.3 579.04,128.42 578.92,130.52 C580.04,130.48 582.72,130.4 584.1,130.36 C584.08,128.48 583.3,127.3 581.66,127.3 Z M591.96,134.96 C592.94,134.96 593.98,134.5 594.74,133.9 C594.72,133.26 594.7,132.54 594.7,131.58 C591.12,131.2 589.94,131.98 589.94,133.32 C589.94,134.36 590.74,134.96 591.96,134.96 Z M594.96,136.06 C594.94,135.86 594.86,135.24 594.82,134.8 C594.02,135.54 592.88,136.24 591.34,136.24 C589.56,136.24 588.34,135.28 588.34,133.7 C588.34,131.68 590.34,130.16 594.68,130.42 C594.54,128.16 593.3,127.58 588.92,127.42 L589.1,126.02 C594.76,126.18 596.28,127.36 596.28,131.14 C596.28,133.18 596.36,134.56 596.44,135.96 L594.96,136.06 Z M599.6,131.26 C599.6,134.26 601.26,136.48 607.2,136.08 L607.38,134.72 C602.58,134.94 601.2,133.62 601.2,131.04 C601.2,128.96 602.18,127.58 607.24,127.6 L607.12,126.06 C601.42,126.18 599.6,128.56 599.6,131.26 Z M618.2,136.16 L618.38,134.8 C615.1,134.74 614.16,134.3 614.16,132.6 L614.16,127.46 L618.16,127.46 L618.16,126.2 L614.16,126.2 L614.16,123.34 L612.54,123.48 L612.54,126.2 L610.68,126.2 L610.52,127.46 L612.54,127.46 L612.54,132.86 C612.54,135.28 613.96,136.22 618.2,136.16 Z M627.84,136 L629.42,136 L629.42,123.6 L627.86,123.6 L627.92,133.04 L627.84,133.04 L623.34,123.6 L621.6,123.6 L621.6,136 L623.14,136 L623.08,126.38 L623.18,126.38 L627.84,136 Z M635.96,134.96 C636.94,134.96 637.98,134.5 638.74,133.9 C638.72,133.26 638.7,132.54 638.7,131.58 C635.12,131.2 633.94,131.98 633.94,133.32 C633.94,134.36 634.74,134.96 635.96,134.96 Z M638.96,136.06 C638.94,135.86 638.86,135.24 638.82,134.8 C638.02,135.54 636.88,136.24 635.34,136.24 C633.56,136.24 632.34,135.28 632.34,133.7 C632.34,131.68 634.34,130.16 638.68,130.42 C638.54,128.16 637.3,127.58 632.92,127.42 L633.1,126.02 C638.76,126.18 640.28,127.36 640.28,131.14 C640.28,133.18 640.36,134.56 640.44,135.96 L638.96,136.06 Z M651.2,136.16 L651.38,134.8 C648.1,134.74 647.16,134.3 647.16,132.6 L647.16,127.46 L651.16,127.46 L651.16,126.2 L647.16,126.2 L647.16,123.34 L645.54,123.48 L645.54,126.2 L643.68,126.2 L643.52,127.46 L645.54,127.46 L645.54,132.86 C645.54,135.28 646.96,136.22 651.2,136.16 Z M659.64,124.62 L659.82,121.9 L658.1,121.9 L657.98,124.62 L659.64,124.62 Z M663.28,136 L663.4,134.76 L659.72,134.76 L659.72,126.2 L654.56,126.2 L654.44,127.34 L658.1,127.5 L658.1,134.76 L654.42,134.76 L654.42,136 L663.28,136 Z M669.62,134.48 L669.46,134.48 C668.38,131.7 667.4,128.9 666.5,126.16 L664.88,126.26 C665.96,129.52 667.16,132.8 668.48,136.08 L670.52,136.08 C671.84,132.82 673.1,129.48 674.18,126.2 L672.54,126.2 C671.66,128.94 670.7,131.72 669.62,134.48 Z M684.12,136.22 C677.98,136.2 676.32,134.42 676.32,131.24 C676.32,128.26 678.4,125.96 680.94,125.96 C683.62,125.96 684.98,128.12 684.62,131.36 L677.92,131.52 C678.08,133.84 679.54,134.72 684.28,134.84 L684.12,136.22 Z M680.66,127.3 C679.04,127.3 678.04,128.42 677.92,130.52 C679.04,130.48 681.72,130.4 683.1,130.36 C683.08,128.48 682.3,127.3 680.66,127.3 Z M692.58,136 L692.7,133.68 L690.32,133.68 L690.2,136 L692.58,136 Z M702.1,134.84 C703.88,134.84 705.28,133.52 705.28,131.06 C705.28,128.62 704.14,127.32 702.6,127.32 C701.82,127.32 701.02,127.64 700.36,128.14 C700.4,129.76 700.44,131.66 700.46,134.54 C701.04,134.74 701.56,134.84 702.1,134.84 Z M700.46,139.3 L698.84,139.44 L698.84,136.04 C698.84,131.3 698.82,128.34 698.72,126.26 L700.2,126.16 L700.3,127.18 C701.04,126.52 702.02,125.98 703.24,125.98 C705.32,125.98 706.88,127.8 706.88,130.66 C706.88,134.18 704.42,136.24 701.52,136.24 C701.18,136.24 700.82,136.22 700.46,136.16 L700.46,139.3 Z M712.96,134.96 C713.94,134.96 714.98,134.5 715.74,133.9 C715.72,133.26 715.7,132.54 715.7,131.58 C712.12,131.2 710.94,131.98 710.94,133.32 C710.94,134.36 711.74,134.96 712.96,134.96 Z M715.96,136.06 C715.94,135.86 715.86,135.24 715.82,134.8 C715.02,135.54 713.88,136.24 712.34,136.24 C710.56,136.24 709.34,135.28 709.34,133.7 C709.34,131.68 711.34,130.16 715.68,130.42 C715.54,128.16 714.3,127.58 709.92,127.42 L710.1,126.02 C715.76,126.18 717.28,127.36 717.28,131.14 C717.28,133.18 717.36,134.56 717.44,135.96 L715.96,136.06 Z M728.2,136.16 L728.38,134.8 C725.1,134.74 724.16,134.3 724.16,132.6 L724.16,127.46 L728.16,127.46 L728.16,126.2 L724.16,126.2 L724.16,123.34 L722.54,123.48 L722.54,126.2 L720.68,126.2 L720.52,127.46 L722.54,127.46 L722.54,132.86 C722.54,135.28 723.96,136.22 728.2,136.16 Z M731.6,131.26 C731.6,134.26 733.26,136.48 739.2,136.08 L739.38,134.72 C734.58,134.94 733.2,133.62 733.2,131.04 C733.2,128.96 734.18,127.58 739.24,127.6 L739.12,126.06 C733.42,126.18 731.6,128.56 731.6,131.26 Z M746.82,127.36 C748.06,127.36 748.8,128.02 748.8,129.9 L748.8,136 L750.42,136 L750.42,129.36 C750.42,126.96 749.26,125.98 747.5,125.98 C746.2,125.98 745.18,126.52 744.38,127.16 L744.38,121.88 L742.76,122.02 L742.76,136 L744.38,136 L744.38,128.16 C745.12,127.68 745.9,127.36 746.82,127.36 Z" id="--ReactNative.patch" fill="#171219"></path>
        </g>
    </g>
</svg>