<?xml version="1.0" encoding="UTF-8"?>
<svg width="980px" height="200px" viewBox="0 0 980 200" version="1.1" xmlns="http://www.w3.org/2000/svg" xmlns:xlink="http://www.w3.org/1999/xlink">
    <!-- Generator: Sketch 52.5 (67469) - http://www.bohemiancoding.com/sketch -->
    <title>patch</title>
    <desc>Created with Sketch.</desc>
    <g id="patch" stroke="none" stroke-width="1" fill="none" fill-rule="evenodd">
        <g id="Group" transform="translate(438.000000, -3.000000)">
            <path d="M23.1069048,142.116503 C24.9626971,133.473584 33.4683854,124.963813 42.1165029,123.106905 L76.6766197,115.686218 C85.3195386,113.830426 90.8227081,119.32728 88.9657996,127.975398 L81.5451125,162.535514 C79.6893203,171.178433 71.1836319,179.688204 62.5355145,181.545113 L27.9753976,188.9658 C19.3324788,190.821592 13.8293093,185.324737 15.6862178,176.67662 L23.1069048,142.116503 Z" id="Rectangle" fill="#F44336" opacity="0.1" transform="translate(52.326009, 152.326009) rotate(45.000000) translate(-52.326009, -152.326009) "></path>
            <path d="M23.1069048,122.116503 C24.9626971,113.473584 33.4683854,104.963813 42.1165029,103.106905 L76.6766197,95.6862178 C85.3195386,93.8304255 90.8227081,99.3272802 88.9657996,107.975398 L81.5451125,142.535514 C79.6893203,151.178433 71.1836319,159.688204 62.5355145,161.545113 L27.9753976,168.9658 C19.3324788,170.821592 13.8293093,165.324737 15.6862178,156.67662 L23.1069048,122.116503 Z" id="Rectangle-Copy" fill="#9C27B0" opacity="0.5" transform="translate(52.326009, 132.326009) rotate(45.000000) translate(-52.326009, -132.326009) "></path>
            <path d="M23.1069048,102.116503 C24.9626971,93.473584 33.4683854,84.9638133 42.1165029,83.1069048 L76.6766197,75.6862178 C85.3195386,73.8304255 90.8227081,79.3272802 88.9657996,87.9753976 L81.5451125,122.535514 C79.6893203,131.178433 71.1836319,139.688204 62.5355145,141.545113 L27.9753976,148.9658 C19.3324788,150.821592 13.8293093,145.324737 15.6862178,136.67662 L23.1069048,102.116503 Z" id="Rectangle-Copy-2" fill="#2196F3" opacity="0.1" transform="translate(52.326009, 112.326009) rotate(45.000000) translate(-52.326009, -112.326009) "></path>
            <path d="M23.1069048,82.1165029 C24.9626971,73.473584 33.4683854,64.9638133 42.1165029,63.1069048 L76.6766197,55.6862178 C85.3195386,53.8304255 90.8227081,59.3272802 88.9657996,67.9753976 L81.5451125,102.535514 C79.6893203,111.178433 71.1836319,119.688204 62.5355145,121.545113 L27.9753976,128.9658 C19.3324788,130.821592 13.8293093,125.324737 15.6862178,116.67662 L23.1069048,82.1165029 Z" id="Rectangle-Copy-3" fill="#2196F3" opacity="0.1" transform="translate(52.326009, 92.326009) rotate(45.000000) translate(-52.326009, -92.326009) "></path>
            <path d="M23.1069048,62.1165029 C24.9626971,53.473584 33.4683854,44.9638133 42.1165029,43.1069048 L76.6766197,35.6862178 C85.3195386,33.8304255 90.8227081,39.3272802 88.9657996,47.9753976 L81.5451125,82.5355145 C79.6893203,91.1784334 71.1836319,99.6882041 62.5355145,101.545113 L27.9753976,108.9658 C19.3324788,110.821592 13.8293093,105.324737 15.6862178,96.6766197 L23.1069048,62.1165029 Z" id="Rectangle-Copy-4" fill="#2196F3" opacity="0.1" transform="translate(52.326009, 72.326009) rotate(45.000000) translate(-52.326009, -72.326009) "></path>
            <path d="M23.1069048,42.1165029 C24.9626971,33.473584 33.4683854,24.9638133 42.1165029,23.1069048 L76.6766197,15.6862178 C85.3195386,13.8304255 90.8227081,19.3272802 88.9657996,27.9753976 L81.5451125,62.5355145 C79.6893203,71.1784334 71.1836319,79.6882041 62.5355145,81.5451125 L27.9753976,88.9657996 C19.3324788,90.8215918 13.8293093,85.3247372 15.6862178,76.6766197 L23.1069048,42.1165029 Z" id="Rectangle-Copy-5" fill="#2196F3" opacity="0.1" transform="translate(52.326009, 52.326009) rotate(45.000000) translate(-52.326009, -52.326009) "></path>
        </g>
        <path d="M547.142,129.538 L553.658,129.538 L553.658,131.194 L547.142,131.194 L547.142,129.538 Z M578.428,127.18 C578.428,128.044004 578.170003,128.763997 577.654,129.34 C577.137997,129.916003 576.454004,130.335999 575.602,130.6 L579.13,136 L576.7,136 L573.568,130.888 L572.218,130.888 L572.218,136 L570.13,136 L570.13,123.58 L573.586,123.58 C576.814016,123.58 578.428,124.779988 578.428,127.18 Z M576.25,127.18 C576.25,126.459996 576.043002,125.938002 575.629,125.614 C575.214998,125.289998 574.576004,125.128 573.712,125.128 L572.218,125.128 L572.218,129.358 L573.766,129.358 C574.582004,129.358 575.199998,129.184002 575.62,128.836 C576.040002,128.487998 576.25,127.936004 576.25,127.18 Z M583.676,131.896 C583.736,132.820005 584.002998,133.512998 584.477,133.975 C584.951002,134.437002 585.547996,134.668 586.268,134.668 C586.712002,134.668 587.134998,134.599001 587.537,134.461 C587.939002,134.322999 588.349998,134.116001 588.77,133.84 L589.634,135.064 C589.189998,135.436002 588.668003,135.723999 588.068,135.928 C587.467997,136.132001 586.838003,136.234 586.178,136.234 C584.725993,136.234 583.598004,135.781005 582.794,134.875 C581.989996,133.968995 581.588,132.760008 581.588,131.248 C581.588,130.299995 581.761998,129.445004 582.11,128.683 C582.458002,127.920996 582.961997,127.324002 583.622,126.892 C584.282003,126.459998 585.049996,126.244 585.926,126.244 C587.186006,126.244 588.184996,126.666996 588.923,127.513 C589.661004,128.359004 590.03,129.519993 590.03,130.996 C590.03,131.356002 590.012,131.655999 589.976,131.896 L583.676,131.896 Z M585.944,127.738 C585.295997,127.738 584.768002,127.971998 584.36,128.44 C583.951998,128.908002 583.718,129.603995 583.658,130.528 L588.068,130.528 C588.044,129.627995 587.852002,128.938002 587.492,128.458 C587.131998,127.977998 586.616003,127.738 585.944,127.738 Z M601.074,133.678 C601.074,134.038002 601.127999,134.304999 601.236,134.479 C601.344001,134.653001 601.529999,134.782 601.794,134.866 L601.326,136.234 C600.329995,136.113999 599.676002,135.676004 599.364,134.92 C599.015998,135.352002 598.581003,135.678999 598.059,135.901 C597.536997,136.123001 596.964003,136.234 596.34,136.234 C595.379995,136.234 594.618003,135.964003 594.054,135.424 C593.489997,134.883997 593.208,134.170004 593.208,133.282 C593.208,132.285995 593.600996,131.518003 594.387,130.978 C595.173004,130.437997 596.285993,130.168 597.726,130.168 L599.076,130.168 L599.076,129.556 C599.076,128.955997 598.896002,128.518001 598.536,128.242 C598.175998,127.965999 597.654003,127.828 596.97,127.828 C596.633998,127.828 596.244002,127.87 595.8,127.954 C595.355998,128.038 594.906002,128.157999 594.45,128.314 L593.946,126.892 C595.086006,126.459998 596.195995,126.244 597.276,126.244 C598.536006,126.244 599.483997,126.519997 600.12,127.072 C600.756003,127.624003 601.074,128.409995 601.074,129.43 L601.074,133.678 Z M596.934,134.758 C597.354002,134.758 597.758998,134.650001 598.149,134.434 C598.539002,134.217999 598.847999,133.918002 599.076,133.534 L599.076,131.428 L597.96,131.428 C597.047995,131.428 596.382002,131.580998 595.962,131.887 C595.541998,132.193002 595.332,132.633997 595.332,133.21 C595.332,133.714003 595.466999,134.097999 595.737,134.362 C596.007001,134.626001 596.405997,134.758 596.934,134.758 Z M610.192,134.578 C610.948004,134.578 611.727996,134.308003 612.532,133.768 L613.45,135.064 C613.029998,135.424002 612.526003,135.708999 611.938,135.919 C611.349997,136.129001 610.744003,136.234 610.12,136.234 C608.667993,136.234 607.534004,135.787004 606.718,134.893 C605.901996,133.998996 605.494,132.802008 605.494,131.302 C605.494,130.329995 605.679998,129.463004 606.052,128.701 C606.424002,127.938996 606.960996,127.339002 607.663,126.901 C608.365004,126.462998 609.195995,126.244 610.156,126.244 C611.416006,126.244 612.513995,126.627996 613.45,127.396 L612.514,128.656 C611.745996,128.127997 610.972004,127.864 610.192,127.864 C609.399996,127.864 608.776002,128.148997 608.32,128.719 C607.863998,129.289003 607.636,130.149994 607.636,131.302 C607.636,132.430006 607.863998,133.257997 608.32,133.786 C608.776002,134.314003 609.399996,134.578 610.192,134.578 Z M625.34,135.496 C624.979998,135.724001 624.560002,135.903999 624.08,136.036 C623.599998,136.168001 623.096003,136.234 622.568,136.234 C621.487995,136.234 620.654003,135.955003 620.066,135.397 C619.477997,134.838997 619.184,134.080005 619.184,133.12 L619.184,127.972 L617.078,127.972 L617.078,126.496 L619.184,126.496 L619.184,124.372 L621.2,124.138 L621.2,126.496 L624.422,126.496 L624.188,127.972 L621.2,127.972 L621.2,133.102 C621.2,133.618003 621.331999,133.998999 621.596,134.245 C621.860001,134.491001 622.279997,134.614 622.856,134.614 C623.492003,134.614 624.079997,134.464001 624.62,134.164 L625.34,135.496 Z M630.444,125.434 C630.636001,127.40201 630.732,129.045993 630.732,130.366 L630.732,136 L628.878,136 L628.878,123.58 L631.596,123.58 L635.556,134.146 C635.472,133.257996 635.403,132.457004 635.349,131.743 C635.295,131.028996 635.268,130.192005 635.268,129.232 L635.268,123.58 L637.122,123.58 L637.122,136 L634.404,136 L630.444,125.434 Z M648.274,133.678 C648.274,134.038002 648.327999,134.304999 648.436,134.479 C648.544001,134.653001 648.729999,134.782 648.994,134.866 L648.526,136.234 C647.529995,136.113999 646.876002,135.676004 646.564,134.92 C646.215998,135.352002 645.781003,135.678999 645.259,135.901 C644.736997,136.123001 644.164003,136.234 643.54,136.234 C642.579995,136.234 641.818003,135.964003 641.254,135.424 C640.689997,134.883997 640.408,134.170004 640.408,133.282 C640.408,132.285995 640.800996,131.518003 641.587,130.978 C642.373004,130.437997 643.485993,130.168 644.926,130.168 L646.276,130.168 L646.276,129.556 C646.276,128.955997 646.096002,128.518001 645.736,128.242 C645.375998,127.965999 644.854003,127.828 644.17,127.828 C643.833998,127.828 643.444002,127.87 643,127.954 C642.555998,128.038 642.106002,128.157999 641.65,128.314 L641.146,126.892 C642.286006,126.459998 643.395995,126.244 644.476,126.244 C645.736006,126.244 646.683997,126.519997 647.32,127.072 C647.956003,127.624003 648.274,128.409995 648.274,129.43 L648.274,133.678 Z M644.134,134.758 C644.554002,134.758 644.958998,134.650001 645.349,134.434 C645.739002,134.217999 646.047999,133.918002 646.276,133.534 L646.276,131.428 L645.16,131.428 C644.247995,131.428 643.582002,131.580998 643.162,131.887 C642.741998,132.193002 642.532,132.633997 642.532,133.21 C642.532,133.714003 642.666999,134.097999 642.937,134.362 C643.207001,134.626001 643.605997,134.758 644.134,134.758 Z M660.74,135.496 C660.379998,135.724001 659.960002,135.903999 659.48,136.036 C658.999998,136.168001 658.496003,136.234 657.968,136.234 C656.887995,136.234 656.054003,135.955003 655.466,135.397 C654.877997,134.838997 654.584,134.080005 654.584,133.12 L654.584,127.972 L652.478,127.972 L652.478,126.496 L654.584,126.496 L654.584,124.372 L656.6,124.138 L656.6,126.496 L659.822,126.496 L659.588,127.972 L656.6,127.972 L656.6,133.102 C656.6,133.618003 656.731999,133.998999 656.996,134.245 C657.260001,134.491001 657.679997,134.614 658.256,134.614 C658.892003,134.614 659.479997,134.464001 660.02,134.164 L660.74,135.496 Z M668.4,121.834 C668.784002,121.834 669.098999,121.956999 669.345,122.203 C669.591001,122.449001 669.714,122.751998 669.714,123.112 C669.714,123.472002 669.591001,123.771999 669.345,124.012 C669.098999,124.252001 668.784002,124.372 668.4,124.372 C668.003998,124.372 667.686001,124.252001 667.446,124.012 C667.205999,123.771999 667.086,123.472002 667.086,123.112 C667.086,122.739998 667.208999,122.434001 667.455,122.194 C667.701001,121.953999 668.015998,121.834 668.4,121.834 Z M669.786,134.524 L672.378,134.524 L672.378,136 L664.944,136 L664.944,134.524 L667.77,134.524 L667.77,127.972 L665.034,127.972 L665.034,126.496 L669.786,126.496 L669.786,134.524 Z M681.37,136 L679.03,136 L675.664,126.496 L677.842,126.496 L680.236,134.326 L682.666,126.496 L684.736,126.496 L681.37,136 Z M689.876,131.896 C689.936,132.820005 690.202998,133.512998 690.677,133.975 C691.151002,134.437002 691.747996,134.668 692.468,134.668 C692.912002,134.668 693.334998,134.599001 693.737,134.461 C694.139002,134.322999 694.549998,134.116001 694.97,133.84 L695.834,135.064 C695.389998,135.436002 694.868003,135.723999 694.268,135.928 C693.667997,136.132001 693.038003,136.234 692.378,136.234 C690.925993,136.234 689.798004,135.781005 688.994,134.875 C688.189996,133.968995 687.788,132.760008 687.788,131.248 C687.788,130.299995 687.961998,129.445004 688.31,128.683 C688.658002,127.920996 689.161997,127.324002 689.822,126.892 C690.482003,126.459998 691.249996,126.244 692.126,126.244 C693.386006,126.244 694.384996,126.666996 695.123,127.513 C695.861004,128.359004 696.23,129.519993 696.23,130.996 C696.23,131.356002 696.212,131.655999 696.176,131.896 L689.876,131.896 Z M692.144,127.738 C691.495997,127.738 690.968002,127.971998 690.56,128.44 C690.151998,128.908002 689.918,129.603995 689.858,130.528 L694.268,130.528 C694.244,129.627995 694.052002,128.938002 693.692,128.458 C693.331998,127.977998 692.816003,127.738 692.144,127.738 Z M702.054,134.488 C702.054,134.007998 702.221998,133.600002 702.558,133.264 C702.894002,132.927998 703.301998,132.76 703.782,132.76 C704.274002,132.76 704.687998,132.927998 705.024,133.264 C705.360002,133.600002 705.528,134.007998 705.528,134.488 C705.528,134.980002 705.360002,135.393998 705.024,135.73 C704.687998,136.066002 704.274002,136.234 703.782,136.234 C703.301998,136.234 702.894002,136.066002 702.558,135.73 C702.221998,135.393998 702.054,134.980002 702.054,134.488 Z M716.446,126.244 C718.750012,126.244 719.902,127.905983 719.902,131.23 C719.902,132.730007 719.584003,133.938995 718.948,134.857 C718.311997,135.775005 717.406006,136.234 716.23,136.234 C715.233995,136.234 714.430003,135.886003 713.818,135.19 L713.818,139.654 L711.802,139.888 L711.802,126.496 L713.548,126.496 L713.674,127.72 C714.034002,127.239998 714.450998,126.874001 714.925,126.622 C715.399002,126.369999 715.905997,126.244 716.446,126.244 Z M715.888,127.792 C715.467998,127.792 715.084002,127.917999 714.736,128.17 C714.387998,128.422001 714.082001,128.751998 713.818,129.16 L713.818,133.606 C714.286002,134.314004 714.909996,134.668 715.69,134.668 C716.386003,134.668 716.907998,134.392003 717.256,133.84 C717.604002,133.287997 717.778,132.424006 717.778,131.248 C717.778,130.035994 717.622002,129.157003 717.31,128.611 C716.997998,128.064997 716.524003,127.792 715.888,127.792 Z M730.874,133.678 C730.874,134.038002 730.927999,134.304999 731.036,134.479 C731.144001,134.653001 731.329999,134.782 731.594,134.866 L731.126,136.234 C730.129995,136.113999 729.476002,135.676004 729.164,134.92 C728.815998,135.352002 728.381003,135.678999 727.859,135.901 C727.336997,136.123001 726.764003,136.234 726.14,136.234 C725.179995,136.234 724.418003,135.964003 723.854,135.424 C723.289997,134.883997 723.008,134.170004 723.008,133.282 C723.008,132.285995 723.400996,131.518003 724.187,130.978 C724.973004,130.437997 726.085993,130.168 727.526,130.168 L728.876,130.168 L728.876,129.556 C728.876,128.955997 728.696002,128.518001 728.336,128.242 C727.975998,127.965999 727.454003,127.828 726.77,127.828 C726.433998,127.828 726.044002,127.87 725.6,127.954 C725.155998,128.038 724.706002,128.157999 724.25,128.314 L723.746,126.892 C724.886006,126.459998 725.995995,126.244 727.076,126.244 C728.336006,126.244 729.283997,126.519997 729.92,127.072 C730.556003,127.624003 730.874,128.409995 730.874,129.43 L730.874,133.678 Z M726.734,134.758 C727.154002,134.758 727.558998,134.650001 727.949,134.434 C728.339002,134.217999 728.647999,133.918002 728.876,133.534 L728.876,131.428 L727.76,131.428 C726.847995,131.428 726.182002,131.580998 725.762,131.887 C725.341998,132.193002 725.132,132.633997 725.132,133.21 C725.132,133.714003 725.266999,134.097999 725.537,134.362 C725.807001,134.626001 726.205997,134.758 726.734,134.758 Z M743.34,135.496 C742.979998,135.724001 742.560002,135.903999 742.08,136.036 C741.599998,136.168001 741.096003,136.234 740.568,136.234 C739.487995,136.234 738.654003,135.955003 738.066,135.397 C737.477997,134.838997 737.184,134.080005 737.184,133.12 L737.184,127.972 L735.078,127.972 L735.078,126.496 L737.184,126.496 L737.184,124.372 L739.2,124.138 L739.2,126.496 L742.422,126.496 L742.188,127.972 L739.2,127.972 L739.2,133.102 C739.2,133.618003 739.331999,133.998999 739.596,134.245 C739.860001,134.491001 740.279997,134.614 740.856,134.614 C741.492003,134.614 742.079997,134.464001 742.62,134.164 L743.34,135.496 Z M751.792,134.578 C752.548004,134.578 753.327996,134.308003 754.132,133.768 L755.05,135.064 C754.629998,135.424002 754.126003,135.708999 753.538,135.919 C752.949997,136.129001 752.344003,136.234 751.72,136.234 C750.267993,136.234 749.134004,135.787004 748.318,134.893 C747.501996,133.998996 747.094,132.802008 747.094,131.302 C747.094,130.329995 747.279998,129.463004 747.652,128.701 C748.024002,127.938996 748.560996,127.339002 749.263,126.901 C749.965004,126.462998 750.795995,126.244 751.756,126.244 C753.016006,126.244 754.113995,126.627996 755.05,127.396 L754.114,128.656 C753.345996,128.127997 752.572004,127.864 751.792,127.864 C750.999996,127.864 750.376002,128.148997 749.92,128.719 C749.463998,129.289003 749.236,130.149994 749.236,131.302 C749.236,132.430006 749.463998,133.257997 749.92,133.786 C750.376002,134.314003 750.999996,134.578 751.792,134.578 Z M761.018,127.666 C761.402002,127.197998 761.848997,126.844001 762.359,126.604 C762.869003,126.363999 763.405997,126.244 763.97,126.244 C764.846004,126.244 765.505998,126.486998 765.95,126.973 C766.394002,127.459002 766.616,128.157995 766.616,129.07 L766.616,136 L764.6,136 L764.6,129.376 C764.6,128.811997 764.492001,128.407001 764.276,128.161 C764.059999,127.914999 763.712002,127.792 763.232,127.792 C762.811998,127.792 762.407002,127.926999 762.017,128.197 C761.626998,128.467001 761.294001,128.799998 761.018,129.196 L761.018,136 L759.002,136 L759.002,122.698 L761.018,122.482 L761.018,127.666 Z" id="--ReactNative.patch" fill="#3D3E3F"></path>
    </g>
</svg>