<?xml version="1.0" encoding="UTF-8"?>
<svg width="980px" height="200px" viewBox="0 0 980 200" version="1.1" xmlns="http://www.w3.org/2000/svg" xmlns:xlink="http://www.w3.org/1999/xlink">
    <!-- Generator: Sketch 52.5 (67469) - http://www.bohemiancoding.com/sketch -->
    <title>stack</title>
    <desc>Created with Sketch.</desc>
    <g id="stack" stroke="none" stroke-width="1" fill="none" fill-rule="evenodd">
        <g id="Group" transform="translate(438.000000, -3.000000)">
            <path d="M23.1069048,142.116503 C24.9626971,133.473584 33.4683854,124.963813 42.1165029,123.106905 L76.6766197,115.686218 C85.3195386,113.830426 90.8227081,119.32728 88.9657996,127.975398 L81.5451125,162.535514 C79.6893203,171.178433 71.1836319,179.688204 62.5355145,181.545113 L27.9753976,188.9658 C19.3324788,190.821592 13.8293093,185.324737 15.6862178,176.67662 L23.1069048,142.116503 Z" id="Rectangle" fill="#F44336" opacity="0.1" transform="translate(52.326009, 152.326009) rotate(45.000000) translate(-52.326009, -152.326009) "></path>
            <path d="M23.1069048,122.116503 C24.9626971,113.473584 33.4683854,104.963813 42.1165029,103.106905 L76.6766197,95.6862178 C85.3195386,93.8304255 90.8227081,99.3272802 88.9657996,107.975398 L81.5451125,142.535514 C79.6893203,151.178433 71.1836319,159.688204 62.5355145,161.545113 L27.9753976,168.9658 C19.3324788,170.821592 13.8293093,165.324737 15.6862178,156.67662 L23.1069048,122.116503 Z" id="Rectangle-Copy" fill="#9C27B0" opacity="0.1" transform="translate(52.326009, 132.326009) rotate(45.000000) translate(-52.326009, -132.326009) "></path>
            <path d="M23.1069048,102.116503 C24.9626971,93.473584 33.4683854,84.9638133 42.1165029,83.1069048 L76.6766197,75.6862178 C85.3195386,73.8304255 90.8227081,79.3272802 88.9657996,87.9753976 L81.5451125,122.535514 C79.6893203,131.178433 71.1836319,139.688204 62.5355145,141.545113 L27.9753976,148.9658 C19.3324788,150.821592 13.8293093,145.324737 15.6862178,136.67662 L23.1069048,102.116503 Z" id="Rectangle-Copy-2" fill="#2196F3" opacity="0.5" transform="translate(52.326009, 112.326009) rotate(45.000000) translate(-52.326009, -112.326009) "></path>
            <path d="M23.1069048,82.1165029 C24.9626971,73.473584 33.4683854,64.9638133 42.1165029,63.1069048 L76.6766197,55.6862178 C85.3195386,53.8304255 90.8227081,59.3272802 88.9657996,67.9753976 L81.5451125,102.535514 C79.6893203,111.178433 71.1836319,119.688204 62.5355145,121.545113 L27.9753976,128.9658 C19.3324788,130.821592 13.8293093,125.324737 15.6862178,116.67662 L23.1069048,82.1165029 Z" id="Rectangle-Copy-3" fill="#2196F3" opacity="0.5" transform="translate(52.326009, 92.326009) rotate(45.000000) translate(-52.326009, -92.326009) "></path>
            <path d="M23.1069048,62.1165029 C24.9626971,53.473584 33.4683854,44.9638133 42.1165029,43.1069048 L76.6766197,35.6862178 C85.3195386,33.8304255 90.8227081,39.3272802 88.9657996,47.9753976 L81.5451125,82.5355145 C79.6893203,91.1784334 71.1836319,99.6882041 62.5355145,101.545113 L27.9753976,108.9658 C19.3324788,110.821592 13.8293093,105.324737 15.6862178,96.6766197 L23.1069048,62.1165029 Z" id="Rectangle-Copy-4" fill="#2196F3" opacity="0.5" transform="translate(52.326009, 72.326009) rotate(45.000000) translate(-52.326009, -72.326009) "></path>
            <path d="M23.1069048,42.1165029 C24.9626971,33.473584 33.4683854,24.9638133 42.1165029,23.1069048 L76.6766197,15.6862178 C85.3195386,13.8304255 90.8227081,19.3272802 88.9657996,27.9753976 L81.5451125,62.5355145 C79.6893203,71.1784334 71.1836319,79.6882041 62.5355145,81.5451125 L27.9753976,88.9657996 C19.3324788,90.8215918 13.8293093,85.3247372 15.6862178,76.6766197 L23.1069048,42.1165029 Z" id="Rectangle-Copy-5" fill="#2196F3" opacity="0.5" transform="translate(52.326009, 52.326009) rotate(45.000000) translate(-52.326009, -52.326009) "></path>
        </g>
        <path d="M547.142,108.538 L553.658,108.538 L553.658,110.194 L547.142,110.194 L547.142,108.538 Z M578.428,106.18 C578.428,107.044004 578.170003,107.763997 577.654,108.34 C577.137997,108.916003 576.454004,109.335999 575.602,109.6 L579.13,115 L576.7,115 L573.568,109.888 L572.218,109.888 L572.218,115 L570.13,115 L570.13,102.58 L573.586,102.58 C576.814016,102.58 578.428,103.779988 578.428,106.18 Z M576.25,106.18 C576.25,105.459996 576.043002,104.938002 575.629,104.614 C575.214998,104.289998 574.576004,104.128 573.712,104.128 L572.218,104.128 L572.218,108.358 L573.766,108.358 C574.582004,108.358 575.199998,108.184002 575.62,107.836 C576.040002,107.487998 576.25,106.936004 576.25,106.18 Z M583.676,110.896 C583.736,111.820005 584.002998,112.512998 584.477,112.975 C584.951002,113.437002 585.547996,113.668 586.268,113.668 C586.712002,113.668 587.134998,113.599001 587.537,113.461 C587.939002,113.322999 588.349998,113.116001 588.77,112.84 L589.634,114.064 C589.189998,114.436002 588.668003,114.723999 588.068,114.928 C587.467997,115.132001 586.838003,115.234 586.178,115.234 C584.725993,115.234 583.598004,114.781005 582.794,113.875 C581.989996,112.968995 581.588,111.760008 581.588,110.248 C581.588,109.299995 581.761998,108.445004 582.11,107.683 C582.458002,106.920996 582.961997,106.324002 583.622,105.892 C584.282003,105.459998 585.049996,105.244 585.926,105.244 C587.186006,105.244 588.184996,105.666996 588.923,106.513 C589.661004,107.359004 590.03,108.519993 590.03,109.996 C590.03,110.356002 590.012,110.655999 589.976,110.896 L583.676,110.896 Z M585.944,106.738 C585.295997,106.738 584.768002,106.971998 584.36,107.44 C583.951998,107.908002 583.718,108.603995 583.658,109.528 L588.068,109.528 C588.044,108.627995 587.852002,107.938002 587.492,107.458 C587.131998,106.977998 586.616003,106.738 585.944,106.738 Z M601.074,112.678 C601.074,113.038002 601.127999,113.304999 601.236,113.479 C601.344001,113.653001 601.529999,113.782 601.794,113.866 L601.326,115.234 C600.329995,115.113999 599.676002,114.676004 599.364,113.92 C599.015998,114.352002 598.581003,114.678999 598.059,114.901 C597.536997,115.123001 596.964003,115.234 596.34,115.234 C595.379995,115.234 594.618003,114.964003 594.054,114.424 C593.489997,113.883997 593.208,113.170004 593.208,112.282 C593.208,111.285995 593.600996,110.518003 594.387,109.978 C595.173004,109.437997 596.285993,109.168 597.726,109.168 L599.076,109.168 L599.076,108.556 C599.076,107.955997 598.896002,107.518001 598.536,107.242 C598.175998,106.965999 597.654003,106.828 596.97,106.828 C596.633998,106.828 596.244002,106.87 595.8,106.954 C595.355998,107.038 594.906002,107.157999 594.45,107.314 L593.946,105.892 C595.086006,105.459998 596.195995,105.244 597.276,105.244 C598.536006,105.244 599.483997,105.519997 600.12,106.072 C600.756003,106.624003 601.074,107.409995 601.074,108.43 L601.074,112.678 Z M596.934,113.758 C597.354002,113.758 597.758998,113.650001 598.149,113.434 C598.539002,113.217999 598.847999,112.918002 599.076,112.534 L599.076,110.428 L597.96,110.428 C597.047995,110.428 596.382002,110.580998 595.962,110.887 C595.541998,111.193002 595.332,111.633997 595.332,112.21 C595.332,112.714003 595.466999,113.097999 595.737,113.362 C596.007001,113.626001 596.405997,113.758 596.934,113.758 Z M610.192,113.578 C610.948004,113.578 611.727996,113.308003 612.532,112.768 L613.45,114.064 C613.029998,114.424002 612.526003,114.708999 611.938,114.919 C611.349997,115.129001 610.744003,115.234 610.12,115.234 C608.667993,115.234 607.534004,114.787004 606.718,113.893 C605.901996,112.998996 605.494,111.802008 605.494,110.302 C605.494,109.329995 605.679998,108.463004 606.052,107.701 C606.424002,106.938996 606.960996,106.339002 607.663,105.901 C608.365004,105.462998 609.195995,105.244 610.156,105.244 C611.416006,105.244 612.513995,105.627996 613.45,106.396 L612.514,107.656 C611.745996,107.127997 610.972004,106.864 610.192,106.864 C609.399996,106.864 608.776002,107.148997 608.32,107.719 C607.863998,108.289003 607.636,109.149994 607.636,110.302 C607.636,111.430006 607.863998,112.257997 608.32,112.786 C608.776002,113.314003 609.399996,113.578 610.192,113.578 Z M625.34,114.496 C624.979998,114.724001 624.560002,114.903999 624.08,115.036 C623.599998,115.168001 623.096003,115.234 622.568,115.234 C621.487995,115.234 620.654003,114.955003 620.066,114.397 C619.477997,113.838997 619.184,113.080005 619.184,112.12 L619.184,106.972 L617.078,106.972 L617.078,105.496 L619.184,105.496 L619.184,103.372 L621.2,103.138 L621.2,105.496 L624.422,105.496 L624.188,106.972 L621.2,106.972 L621.2,112.102 C621.2,112.618003 621.331999,112.998999 621.596,113.245 C621.860001,113.491001 622.279997,113.614 622.856,113.614 C623.492003,113.614 624.079997,113.464001 624.62,113.164 L625.34,114.496 Z M630.444,104.434 C630.636001,106.40201 630.732,108.045993 630.732,109.366 L630.732,115 L628.878,115 L628.878,102.58 L631.596,102.58 L635.556,113.146 C635.472,112.257996 635.403,111.457004 635.349,110.743 C635.295,110.028996 635.268,109.192005 635.268,108.232 L635.268,102.58 L637.122,102.58 L637.122,115 L634.404,115 L630.444,104.434 Z M648.274,112.678 C648.274,113.038002 648.327999,113.304999 648.436,113.479 C648.544001,113.653001 648.729999,113.782 648.994,113.866 L648.526,115.234 C647.529995,115.113999 646.876002,114.676004 646.564,113.92 C646.215998,114.352002 645.781003,114.678999 645.259,114.901 C644.736997,115.123001 644.164003,115.234 643.54,115.234 C642.579995,115.234 641.818003,114.964003 641.254,114.424 C640.689997,113.883997 640.408,113.170004 640.408,112.282 C640.408,111.285995 640.800996,110.518003 641.587,109.978 C642.373004,109.437997 643.485993,109.168 644.926,109.168 L646.276,109.168 L646.276,108.556 C646.276,107.955997 646.096002,107.518001 645.736,107.242 C645.375998,106.965999 644.854003,106.828 644.17,106.828 C643.833998,106.828 643.444002,106.87 643,106.954 C642.555998,107.038 642.106002,107.157999 641.65,107.314 L641.146,105.892 C642.286006,105.459998 643.395995,105.244 644.476,105.244 C645.736006,105.244 646.683997,105.519997 647.32,106.072 C647.956003,106.624003 648.274,107.409995 648.274,108.43 L648.274,112.678 Z M644.134,113.758 C644.554002,113.758 644.958998,113.650001 645.349,113.434 C645.739002,113.217999 646.047999,112.918002 646.276,112.534 L646.276,110.428 L645.16,110.428 C644.247995,110.428 643.582002,110.580998 643.162,110.887 C642.741998,111.193002 642.532,111.633997 642.532,112.21 C642.532,112.714003 642.666999,113.097999 642.937,113.362 C643.207001,113.626001 643.605997,113.758 644.134,113.758 Z M660.74,114.496 C660.379998,114.724001 659.960002,114.903999 659.48,115.036 C658.999998,115.168001 658.496003,115.234 657.968,115.234 C656.887995,115.234 656.054003,114.955003 655.466,114.397 C654.877997,113.838997 654.584,113.080005 654.584,112.12 L654.584,106.972 L652.478,106.972 L652.478,105.496 L654.584,105.496 L654.584,103.372 L656.6,103.138 L656.6,105.496 L659.822,105.496 L659.588,106.972 L656.6,106.972 L656.6,112.102 C656.6,112.618003 656.731999,112.998999 656.996,113.245 C657.260001,113.491001 657.679997,113.614 658.256,113.614 C658.892003,113.614 659.479997,113.464001 660.02,113.164 L660.74,114.496 Z M668.4,100.834 C668.784002,100.834 669.098999,100.956999 669.345,101.203 C669.591001,101.449001 669.714,101.751998 669.714,102.112 C669.714,102.472002 669.591001,102.771999 669.345,103.012 C669.098999,103.252001 668.784002,103.372 668.4,103.372 C668.003998,103.372 667.686001,103.252001 667.446,103.012 C667.205999,102.771999 667.086,102.472002 667.086,102.112 C667.086,101.739998 667.208999,101.434001 667.455,101.194 C667.701001,100.953999 668.015998,100.834 668.4,100.834 Z M669.786,113.524 L672.378,113.524 L672.378,115 L664.944,115 L664.944,113.524 L667.77,113.524 L667.77,106.972 L665.034,106.972 L665.034,105.496 L669.786,105.496 L669.786,113.524 Z M681.37,115 L679.03,115 L675.664,105.496 L677.842,105.496 L680.236,113.326 L682.666,105.496 L684.736,105.496 L681.37,115 Z M689.876,110.896 C689.936,111.820005 690.202998,112.512998 690.677,112.975 C691.151002,113.437002 691.747996,113.668 692.468,113.668 C692.912002,113.668 693.334998,113.599001 693.737,113.461 C694.139002,113.322999 694.549998,113.116001 694.97,112.84 L695.834,114.064 C695.389998,114.436002 694.868003,114.723999 694.268,114.928 C693.667997,115.132001 693.038003,115.234 692.378,115.234 C690.925993,115.234 689.798004,114.781005 688.994,113.875 C688.189996,112.968995 687.788,111.760008 687.788,110.248 C687.788,109.299995 687.961998,108.445004 688.31,107.683 C688.658002,106.920996 689.161997,106.324002 689.822,105.892 C690.482003,105.459998 691.249996,105.244 692.126,105.244 C693.386006,105.244 694.384996,105.666996 695.123,106.513 C695.861004,107.359004 696.23,108.519993 696.23,109.996 C696.23,110.356002 696.212,110.655999 696.176,110.896 L689.876,110.896 Z M692.144,106.738 C691.495997,106.738 690.968002,106.971998 690.56,107.44 C690.151998,107.908002 689.918,108.603995 689.858,109.528 L694.268,109.528 C694.244,108.627995 694.052002,107.938002 693.692,107.458 C693.331998,106.977998 692.816003,106.738 692.144,106.738 Z M702.054,113.488 C702.054,113.007998 702.221998,112.600002 702.558,112.264 C702.894002,111.927998 703.301998,111.76 703.782,111.76 C704.274002,111.76 704.687998,111.927998 705.024,112.264 C705.360002,112.600002 705.528,113.007998 705.528,113.488 C705.528,113.980002 705.360002,114.393998 705.024,114.73 C704.687998,115.066002 704.274002,115.234 703.782,115.234 C703.301998,115.234 702.894002,115.066002 702.558,114.73 C702.221998,114.393998 702.054,113.980002 702.054,113.488 Z M713.044,104.434 C713.236001,106.40201 713.332,108.045993 713.332,109.366 L713.332,115 L711.478,115 L711.478,102.58 L714.196,102.58 L718.156,113.146 C718.072,112.257996 718.003,111.457004 717.949,110.743 C717.895,110.028996 717.868,109.192005 717.868,108.232 L717.868,102.58 L719.722,102.58 L719.722,115 L717.004,115 L713.044,104.434 Z M727.418,105.244 C728.786007,105.244 729.841996,105.690996 730.586,106.585 C731.330004,107.479004 731.702,108.693992 731.702,110.23 C731.702,111.766008 731.324004,112.983995 730.568,113.884 C729.811996,114.784005 728.756007,115.234 727.4,115.234 C726.031993,115.234 724.973004,114.793004 724.223,113.911 C723.472996,113.028996 723.098,111.808008 723.098,110.248 C723.098,108.735992 723.478996,107.524005 724.241,106.612 C725.003004,105.699995 726.061993,105.244 727.418,105.244 Z M727.418,106.81 C726.685996,106.81 726.137002,107.091997 725.771,107.656 C725.404998,108.220003 725.222,109.083994 725.222,110.248 C725.222,111.424006 725.401998,112.290997 725.762,112.849 C726.122002,113.407003 726.667996,113.686 727.4,113.686 C728.132004,113.686 728.677998,113.404003 729.038,112.84 C729.398002,112.275997 729.578,111.406006 729.578,110.23 C729.578,109.065994 729.398002,108.205003 729.038,107.647 C728.677998,107.088997 728.138004,106.81 727.418,106.81 Z M742.998,101.68 L742.998,115 L741.216,115 L741.072,113.83 C740.759998,114.286002 740.376002,114.633999 739.92,114.874 C739.463998,115.114001 738.960003,115.234 738.408,115.234 C737.219994,115.234 736.326003,114.790004 735.726,113.902 C735.125997,113.013996 734.826,111.796008 734.826,110.248 C734.826,109.275995 734.978998,108.412004 735.285,107.656 C735.591002,106.899996 736.025997,106.309002 736.59,105.883 C737.154003,105.456998 737.819996,105.244 738.588,105.244 C739.560005,105.244 740.357997,105.591997 740.982,106.288 L740.982,101.446 L742.998,101.68 Z M739.11,106.792 C738.413997,106.792 737.883002,107.076997 737.517,107.647 C737.150998,108.217003 736.968,109.083994 736.968,110.248 C736.968,112.552012 737.627993,113.704 738.948,113.704 C739.740004,113.704 740.417997,113.248005 740.982,112.336 L740.982,107.854 C740.489998,107.145996 739.866004,106.792 739.11,106.792 Z M748.876,110.896 C748.936,111.820005 749.202998,112.512998 749.677,112.975 C750.151002,113.437002 750.747996,113.668 751.468,113.668 C751.912002,113.668 752.334998,113.599001 752.737,113.461 C753.139002,113.322999 753.549998,113.116001 753.97,112.84 L754.834,114.064 C754.389998,114.436002 753.868003,114.723999 753.268,114.928 C752.667997,115.132001 752.038003,115.234 751.378,115.234 C749.925993,115.234 748.798004,114.781005 747.994,113.875 C747.189996,112.968995 746.788,111.760008 746.788,110.248 C746.788,109.299995 746.961998,108.445004 747.31,107.683 C747.658002,106.920996 748.161997,106.324002 748.822,105.892 C749.482003,105.459998 750.249996,105.244 751.126,105.244 C752.386006,105.244 753.384996,105.666996 754.123,106.513 C754.861004,107.359004 755.23,108.519993 755.23,109.996 C755.23,110.356002 755.212,110.655999 755.176,110.896 L748.876,110.896 Z M751.144,106.738 C750.495997,106.738 749.968002,106.971998 749.56,107.44 C749.151998,107.908002 748.918,108.603995 748.858,109.528 L753.268,109.528 C753.244,108.627995 753.052002,107.938002 752.692,107.458 C752.331998,106.977998 751.816003,106.738 751.144,106.738 Z M761.054,113.488 C761.054,113.007998 761.221998,112.600002 761.558,112.264 C761.894002,111.927998 762.301998,111.76 762.782,111.76 C763.274002,111.76 763.687998,111.927998 764.024,112.264 C764.360002,112.600002 764.528,113.007998 764.528,113.488 C764.528,113.980002 764.360002,114.393998 764.024,114.73 C763.687998,115.066002 763.274002,115.234 762.782,115.234 C762.301998,115.234 761.894002,115.066002 761.558,114.73 C761.221998,114.393998 761.054,113.980002 761.054,113.488 Z M774.258,113.704 C774.894003,113.704 775.394998,113.590001 775.761,113.362 C776.127002,113.133999 776.31,112.822002 776.31,112.426 C776.31,112.149999 776.256001,111.925001 776.148,111.751 C776.039999,111.576999 775.824002,111.415001 775.5,111.265 C775.175998,111.114999 774.690003,110.956001 774.042,110.788 C772.997995,110.523999 772.215003,110.185002 771.693,109.771 C771.170997,109.356998 770.91,108.760004 770.91,107.98 C770.91,107.151996 771.251997,106.489002 771.936,105.991 C772.620003,105.492998 773.543994,105.244 774.708,105.244 C776.112007,105.244 777.317995,105.609996 778.326,106.342 L777.462,107.62 C776.609996,107.055997 775.710005,106.774 774.762,106.774 C773.561994,106.774 772.962,107.121997 772.962,107.818 C772.962,108.058001 773.030999,108.255999 773.169,108.412 C773.307001,108.568001 773.543998,108.714999 773.88,108.853 C774.216002,108.991001 774.713997,109.149999 775.374,109.33 C776.406005,109.618001 777.176997,109.971998 777.687,110.392 C778.197003,110.812002 778.452,111.441996 778.452,112.282 C778.452,113.254005 778.050004,113.988998 777.246,114.487 C776.441996,114.985002 775.446006,115.234 774.258,115.234 C772.685992,115.234 771.384005,114.790004 770.352,113.902 L771.414,112.678 C771.810002,112.990002 772.250998,113.238999 772.737,113.425 C773.223002,113.611001 773.729997,113.704 774.258,113.704 Z M790.54,114.496 C790.179998,114.724001 789.760002,114.903999 789.28,115.036 C788.799998,115.168001 788.296003,115.234 787.768,115.234 C786.687995,115.234 785.854003,114.955003 785.266,114.397 C784.677997,113.838997 784.384,113.080005 784.384,112.12 L784.384,106.972 L782.278,106.972 L782.278,105.496 L784.384,105.496 L784.384,103.372 L786.4,103.138 L786.4,105.496 L789.622,105.496 L789.388,106.972 L786.4,106.972 L786.4,112.102 C786.4,112.618003 786.531999,112.998999 786.796,113.245 C787.060001,113.491001 787.479997,113.614 788.056,113.614 C788.692003,113.614 789.279997,113.464001 789.82,113.164 L790.54,114.496 Z M801.674,112.678 C801.674,113.038002 801.727999,113.304999 801.836,113.479 C801.944001,113.653001 802.129999,113.782 802.394,113.866 L801.926,115.234 C800.929995,115.113999 800.276002,114.676004 799.964,113.92 C799.615998,114.352002 799.181003,114.678999 798.659,114.901 C798.136997,115.123001 797.564003,115.234 796.94,115.234 C795.979995,115.234 795.218003,114.964003 794.654,114.424 C794.089997,113.883997 793.808,113.170004 793.808,112.282 C793.808,111.285995 794.200996,110.518003 794.987,109.978 C795.773004,109.437997 796.885993,109.168 798.326,109.168 L799.676,109.168 L799.676,108.556 C799.676,107.955997 799.496002,107.518001 799.136,107.242 C798.775998,106.965999 798.254003,106.828 797.57,106.828 C797.233998,106.828 796.844002,106.87 796.4,106.954 C795.955998,107.038 795.506002,107.157999 795.05,107.314 L794.546,105.892 C795.686006,105.459998 796.795995,105.244 797.876,105.244 C799.136006,105.244 800.083997,105.519997 800.72,106.072 C801.356003,106.624003 801.674,107.409995 801.674,108.43 L801.674,112.678 Z M797.534,113.758 C797.954002,113.758 798.358998,113.650001 798.749,113.434 C799.139002,113.217999 799.447999,112.918002 799.676,112.534 L799.676,110.428 L798.56,110.428 C797.647995,110.428 796.982002,110.580998 796.562,110.887 C796.141998,111.193002 795.932,111.633997 795.932,112.21 C795.932,112.714003 796.066999,113.097999 796.337,113.362 C796.607001,113.626001 797.005997,113.758 797.534,113.758 Z M810.792,113.578 C811.548004,113.578 812.327996,113.308003 813.132,112.768 L814.05,114.064 C813.629998,114.424002 813.126003,114.708999 812.538,114.919 C811.949997,115.129001 811.344003,115.234 810.72,115.234 C809.267993,115.234 808.134004,114.787004 807.318,113.893 C806.501996,112.998996 806.094,111.802008 806.094,110.302 C806.094,109.329995 806.279998,108.463004 806.652,107.701 C807.024002,106.938996 807.560996,106.339002 808.263,105.901 C808.965004,105.462998 809.795995,105.244 810.756,105.244 C812.016006,105.244 813.113995,105.627996 814.05,106.396 L813.114,107.656 C812.345996,107.127997 811.572004,106.864 810.792,106.864 C809.999996,106.864 809.376002,107.148997 808.92,107.719 C808.463998,108.289003 808.236,109.149994 808.236,110.302 C808.236,111.430006 808.463998,112.257997 808.92,112.786 C809.376002,113.314003 809.999996,113.578 810.792,113.578 Z M820.072,115 L818.056,115 L818.056,101.68 L820.072,101.446 L820.072,115 Z M822.538,109.744 L826.768,115 L824.302,115 L820.216,109.798 L824.032,105.496 L826.372,105.496 L822.538,109.744 Z" id="--ReactNative.Node.s" fill="#3D3E3F"></path>
        <path d="M547.142,67.2046667 L553.658,67.2046667 L553.658,68.8606667 L547.142,68.8606667 L547.142,67.2046667 Z M578.428,64.8466667 C578.428,65.710671 578.170003,66.4306638 577.654,67.0066667 C577.137997,67.5826695 576.454004,68.0026653 575.602,68.2666667 L579.13,73.6666667 L576.7,73.6666667 L573.568,68.5546667 L572.218,68.5546667 L572.218,73.6666667 L570.13,73.6666667 L570.13,61.2466667 L573.586,61.2466667 C576.814016,61.2466667 578.428,62.4466547 578.428,64.8466667 Z M576.25,64.8466667 C576.25,64.1266631 576.043002,63.6046683 575.629,63.2806667 C575.214998,62.956665 574.576004,62.7946667 573.712,62.7946667 L572.218,62.7946667 L572.218,67.0246667 L573.766,67.0246667 C574.582004,67.0246667 575.199998,66.8506684 575.62,66.5026667 C576.040002,66.1546649 576.25,65.6026704 576.25,64.8466667 Z M583.676,69.5626667 C583.736,70.4866713 584.002998,71.1796644 584.477,71.6416667 C584.951002,72.103669 585.547996,72.3346667 586.268,72.3346667 C586.712002,72.3346667 587.134998,72.2656674 587.537,72.1276667 C587.939002,71.989666 588.349998,71.782668 588.77,71.5066667 L589.634,72.7306667 C589.189998,73.1026685 588.668003,73.3906656 588.068,73.5946667 C587.467997,73.7986677 586.838003,73.9006667 586.178,73.9006667 C584.725993,73.9006667 583.598004,73.4476712 582.794,72.5416667 C581.989996,71.6356621 581.588,70.4266742 581.588,68.9146667 C581.588,67.9666619 581.761998,67.1116705 582.11,66.3496667 C582.458002,65.5876629 582.961997,64.9906688 583.622,64.5586667 C584.282003,64.1266645 585.049996,63.9106667 585.926,63.9106667 C587.186006,63.9106667 588.184996,64.3336624 588.923,65.1796667 C589.661004,66.0256709 590.03,67.1866593 590.03,68.6626667 C590.03,69.0226685 590.012,69.3226655 589.976,69.5626667 L583.676,69.5626667 Z M585.944,65.4046667 C585.295997,65.4046667 584.768002,65.6386643 584.36,66.1066667 C583.951998,66.574669 583.718,67.270662 583.658,68.1946667 L588.068,68.1946667 C588.044,67.2946622 587.852002,66.6046691 587.492,66.1246667 C587.131998,65.6446643 586.616003,65.4046667 585.944,65.4046667 Z M601.074,71.3446667 C601.074,71.7046685 601.127999,71.9716658 601.236,72.1456667 C601.344001,72.3196675 601.529999,72.4486662 601.794,72.5326667 L601.326,73.9006667 C600.329995,73.7806661 599.676002,73.3426704 599.364,72.5866667 C599.015998,73.0186688 598.581003,73.3456656 598.059,73.5676667 C597.536997,73.7896678 596.964003,73.9006667 596.34,73.9006667 C595.379995,73.9006667 594.618003,73.6306694 594.054,73.0906667 C593.489997,72.550664 593.208,71.8366711 593.208,70.9486667 C593.208,69.9526617 593.600996,69.1846694 594.387,68.6446667 C595.173004,68.104664 596.285993,67.8346667 597.726,67.8346667 L599.076,67.8346667 L599.076,67.2226667 C599.076,66.6226637 598.896002,66.184668 598.536,65.9086667 C598.175998,65.6326653 597.654003,65.4946667 596.97,65.4946667 C596.633998,65.4946667 596.244002,65.5366662 595.8,65.6206667 C595.355998,65.7046671 594.906002,65.8246659 594.45,65.9806667 L593.946,64.5586667 C595.086006,64.1266645 596.195995,63.9106667 597.276,63.9106667 C598.536006,63.9106667 599.483997,64.1866639 600.12,64.7386667 C600.756003,65.2906694 601.074,66.0766616 601.074,67.0966667 L601.074,71.3446667 Z M596.934,72.4246667 C597.354002,72.4246667 597.758998,72.3166677 598.149,72.1006667 C598.539002,71.8846656 598.847999,71.5846686 599.076,71.2006667 L599.076,69.0946667 L597.96,69.0946667 C597.047995,69.0946667 596.382002,69.2476651 595.962,69.5536667 C595.541998,69.8596682 595.332,70.3006638 595.332,70.8766667 C595.332,71.3806692 595.466999,71.7646653 595.737,72.0286667 C596.007001,72.292668 596.405997,72.4246667 596.934,72.4246667 Z M610.192,72.2446667 C610.948004,72.2446667 611.727996,71.9746694 612.532,71.4346667 L613.45,72.7306667 C613.029998,73.0906685 612.526003,73.3756656 611.938,73.5856667 C611.349997,73.7956677 610.744003,73.9006667 610.12,73.9006667 C608.667993,73.9006667 607.534004,73.4536711 606.718,72.5596667 C605.901996,71.6656622 605.494,70.4686742 605.494,68.9686667 C605.494,67.9966618 605.679998,67.1296705 606.052,66.3676667 C606.424002,65.6056629 606.960996,65.0056689 607.663,64.5676667 C608.365004,64.1296645 609.195995,63.9106667 610.156,63.9106667 C611.416006,63.9106667 612.513995,64.2946628 613.45,65.0626667 L612.514,66.3226667 C611.745996,65.794664 610.972004,65.5306667 610.192,65.5306667 C609.399996,65.5306667 608.776002,65.8156638 608.32,66.3856667 C607.863998,66.9556695 607.636,67.8166609 607.636,68.9686667 C607.636,70.0966723 607.863998,70.924664 608.32,71.4526667 C608.776002,71.9806693 609.399996,72.2446667 610.192,72.2446667 Z M625.34,73.1626667 C624.979998,73.3906678 624.560002,73.570666 624.08,73.7026667 C623.599998,73.8346673 623.096003,73.9006667 622.568,73.9006667 C621.487995,73.9006667 620.654003,73.6216695 620.066,73.0636667 C619.477997,72.5056639 619.184,71.7466715 619.184,70.7866667 L619.184,65.6386667 L617.078,65.6386667 L617.078,64.1626667 L619.184,64.1626667 L619.184,62.0386667 L621.2,61.8046667 L621.2,64.1626667 L624.422,64.1626667 L624.188,65.6386667 L621.2,65.6386667 L621.2,70.7686667 C621.2,71.2846692 621.331999,71.6656654 621.596,71.9116667 C621.860001,72.1576679 622.279997,72.2806667 622.856,72.2806667 C623.492003,72.2806667 624.079997,72.1306682 624.62,71.8306667 L625.34,73.1626667 Z M630.444,63.1006667 C630.636001,65.0686765 630.732,66.7126601 630.732,68.0326667 L630.732,73.6666667 L628.878,73.6666667 L628.878,61.2466667 L631.596,61.2466667 L635.556,71.8126667 C635.472,70.9246622 635.403,70.1236702 635.349,69.4096667 C635.295,68.6956631 635.268,67.8586715 635.268,66.8986667 L635.268,61.2466667 L637.122,61.2466667 L637.122,73.6666667 L634.404,73.6666667 L630.444,63.1006667 Z M648.274,71.3446667 C648.274,71.7046685 648.327999,71.9716658 648.436,72.1456667 C648.544001,72.3196675 648.729999,72.4486662 648.994,72.5326667 L648.526,73.9006667 C647.529995,73.7806661 646.876002,73.3426704 646.564,72.5866667 C646.215998,73.0186688 645.781003,73.3456656 645.259,73.5676667 C644.736997,73.7896678 644.164003,73.9006667 643.54,73.9006667 C642.579995,73.9006667 641.818003,73.6306694 641.254,73.0906667 C640.689997,72.550664 640.408,71.8366711 640.408,70.9486667 C640.408,69.9526617 640.800996,69.1846694 641.587,68.6446667 C642.373004,68.104664 643.485993,67.8346667 644.926,67.8346667 L646.276,67.8346667 L646.276,67.2226667 C646.276,66.6226637 646.096002,66.184668 645.736,65.9086667 C645.375998,65.6326653 644.854003,65.4946667 644.17,65.4946667 C643.833998,65.4946667 643.444002,65.5366662 643,65.6206667 C642.555998,65.7046671 642.106002,65.8246659 641.65,65.9806667 L641.146,64.5586667 C642.286006,64.1266645 643.395995,63.9106667 644.476,63.9106667 C645.736006,63.9106667 646.683997,64.1866639 647.32,64.7386667 C647.956003,65.2906694 648.274,66.0766616 648.274,67.0966667 L648.274,71.3446667 Z M644.134,72.4246667 C644.554002,72.4246667 644.958998,72.3166677 645.349,72.1006667 C645.739002,71.8846656 646.047999,71.5846686 646.276,71.2006667 L646.276,69.0946667 L645.16,69.0946667 C644.247995,69.0946667 643.582002,69.2476651 643.162,69.5536667 C642.741998,69.8596682 642.532,70.3006638 642.532,70.8766667 C642.532,71.3806692 642.666999,71.7646653 642.937,72.0286667 C643.207001,72.292668 643.605997,72.4246667 644.134,72.4246667 Z M660.74,73.1626667 C660.379998,73.3906678 659.960002,73.570666 659.48,73.7026667 C658.999998,73.8346673 658.496003,73.9006667 657.968,73.9006667 C656.887995,73.9006667 656.054003,73.6216695 655.466,73.0636667 C654.877997,72.5056639 654.584,71.7466715 654.584,70.7866667 L654.584,65.6386667 L652.478,65.6386667 L652.478,64.1626667 L654.584,64.1626667 L654.584,62.0386667 L656.6,61.8046667 L656.6,64.1626667 L659.822,64.1626667 L659.588,65.6386667 L656.6,65.6386667 L656.6,70.7686667 C656.6,71.2846692 656.731999,71.6656654 656.996,71.9116667 C657.260001,72.1576679 657.679997,72.2806667 658.256,72.2806667 C658.892003,72.2806667 659.479997,72.1306682 660.02,71.8306667 L660.74,73.1626667 Z M668.4,59.5006667 C668.784002,59.5006667 669.098999,59.6236654 669.345,59.8696667 C669.591001,60.1156679 669.714,60.4186649 669.714,60.7786667 C669.714,61.1386685 669.591001,61.4386655 669.345,61.6786667 C669.098999,61.9186679 668.784002,62.0386667 668.4,62.0386667 C668.003998,62.0386667 667.686001,61.9186679 667.446,61.6786667 C667.205999,61.4386655 667.086,61.1386685 667.086,60.7786667 C667.086,60.4066648 667.208999,60.1006679 667.455,59.8606667 C667.701001,59.6206655 668.015998,59.5006667 668.4,59.5006667 Z M669.786,72.1906667 L672.378,72.1906667 L672.378,73.6666667 L664.944,73.6666667 L664.944,72.1906667 L667.77,72.1906667 L667.77,65.6386667 L665.034,65.6386667 L665.034,64.1626667 L669.786,64.1626667 L669.786,72.1906667 Z M681.37,73.6666667 L679.03,73.6666667 L675.664,64.1626667 L677.842,64.1626667 L680.236,71.9926667 L682.666,64.1626667 L684.736,64.1626667 L681.37,73.6666667 Z M689.876,69.5626667 C689.936,70.4866713 690.202998,71.1796644 690.677,71.6416667 C691.151002,72.103669 691.747996,72.3346667 692.468,72.3346667 C692.912002,72.3346667 693.334998,72.2656674 693.737,72.1276667 C694.139002,71.989666 694.549998,71.782668 694.97,71.5066667 L695.834,72.7306667 C695.389998,73.1026685 694.868003,73.3906656 694.268,73.5946667 C693.667997,73.7986677 693.038003,73.9006667 692.378,73.9006667 C690.925993,73.9006667 689.798004,73.4476712 688.994,72.5416667 C688.189996,71.6356621 687.788,70.4266742 687.788,68.9146667 C687.788,67.9666619 687.961998,67.1116705 688.31,66.3496667 C688.658002,65.5876629 689.161997,64.9906688 689.822,64.5586667 C690.482003,64.1266645 691.249996,63.9106667 692.126,63.9106667 C693.386006,63.9106667 694.384996,64.3336624 695.123,65.1796667 C695.861004,66.0256709 696.23,67.1866593 696.23,68.6626667 C696.23,69.0226685 696.212,69.3226655 696.176,69.5626667 L689.876,69.5626667 Z M692.144,65.4046667 C691.495997,65.4046667 690.968002,65.6386643 690.56,66.1066667 C690.151998,66.574669 689.918,67.270662 689.858,68.1946667 L694.268,68.1946667 C694.244,67.2946622 694.052002,66.6046691 693.692,66.1246667 C693.331998,65.6446643 692.816003,65.4046667 692.144,65.4046667 Z M702.054,72.1546667 C702.054,71.6746643 702.221998,71.2666683 702.558,70.9306667 C702.894002,70.594665 703.301998,70.4266667 703.782,70.4266667 C704.274002,70.4266667 704.687998,70.594665 705.024,70.9306667 C705.360002,71.2666683 705.528,71.6746643 705.528,72.1546667 C705.528,72.6466691 705.360002,73.060665 705.024,73.3966667 C704.687998,73.7326683 704.274002,73.9006667 703.782,73.9006667 C703.301998,73.9006667 702.894002,73.7326683 702.558,73.3966667 C702.221998,73.060665 702.054,72.6466691 702.054,72.1546667 Z M720.136,70.0846667 C720.136,71.3686731 719.680005,72.2866639 718.768,72.8386667 C717.855995,73.3906694 716.698007,73.6666667 715.294,73.6666667 L711.658,73.6666667 L711.658,61.2466667 L715.06,61.2466667 C716.380007,61.2466667 717.465996,61.4896642 718.318,61.9756667 C719.170004,62.4616691 719.596,63.268661 719.596,64.3966667 C719.596,65.1166703 719.377002,65.7076644 718.939,66.1696667 C718.500998,66.631669 717.952003,66.9346659 717.292,67.0786667 C718.108004,67.2226674 718.785997,67.5256644 719.326,67.9876667 C719.866003,68.449669 720.136,69.148662 720.136,70.0846667 Z M717.472,64.5586667 C717.472,63.9466636 717.283002,63.502668 716.905,63.2266667 C716.526998,62.9506653 715.972004,62.8126667 715.24,62.8126667 L713.746,62.8126667 L713.746,66.3946667 L715.366,66.3946667 C716.074004,66.3946667 716.601998,66.2476681 716.95,65.9536667 C717.298002,65.6596652 717.472,65.1946698 717.472,64.5586667 Z M717.958,70.0846667 C717.958,69.3046628 717.742002,68.7556683 717.31,68.4376667 C716.877998,68.1196651 716.278004,67.9606667 715.51,67.9606667 L713.746,67.9606667 L713.746,72.0466667 L715.438,72.0466667 C717.118008,72.0466667 717.958,71.3926732 717.958,70.0846667 Z M725.618,70.8046667 C725.618,71.3566694 725.728999,71.7556654 725.951,72.0016667 C726.173001,72.2476679 726.511998,72.3706667 726.968,72.3706667 C727.400002,72.3706667 727.816998,72.2446679 728.219,71.9926667 C728.621002,71.7406654 728.941999,71.4226686 729.182,71.0386667 L729.182,64.1626667 L731.198,64.1626667 L731.198,73.6666667 L729.452,73.6666667 L729.326,72.4426667 C728.989998,72.910669 728.552003,73.2706654 728.012,73.5226667 C727.471997,73.7746679 726.914003,73.9006667 726.338,73.9006667 C725.425995,73.9006667 724.742002,73.6546691 724.286,73.1626667 C723.829998,72.6706642 723.602,71.9686712 723.602,71.0566667 L723.602,64.1626667 L725.618,64.1626667 L725.618,70.8046667 Z M739.992,72.2446667 C740.748004,72.2446667 741.527996,71.9746694 742.332,71.4346667 L743.25,72.7306667 C742.829998,73.0906685 742.326003,73.3756656 741.738,73.5856667 C741.149997,73.7956677 740.544003,73.9006667 739.92,73.9006667 C738.467993,73.9006667 737.334004,73.4536711 736.518,72.5596667 C735.701996,71.6656622 735.294,70.4686742 735.294,68.9686667 C735.294,67.9966618 735.479998,67.1296705 735.852,66.3676667 C736.224002,65.6056629 736.760996,65.0056689 737.463,64.5676667 C738.165004,64.1296645 738.995995,63.9106667 739.956,63.9106667 C741.216006,63.9106667 742.313995,64.2946628 743.25,65.0626667 L742.314,66.3226667 C741.545996,65.794664 740.772004,65.5306667 739.992,65.5306667 C739.199996,65.5306667 738.576002,65.8156638 738.12,66.3856667 C737.663998,66.9556695 737.436,67.8166609 737.436,68.9686667 C737.436,70.0966723 737.663998,70.924664 738.12,71.4526667 C738.576002,71.9806693 739.199996,72.2446667 739.992,72.2446667 Z M749.272,73.6666667 L747.256,73.6666667 L747.256,60.3466667 L749.272,60.1126667 L749.272,73.6666667 Z M751.738,68.4106667 L755.968,73.6666667 L753.502,73.6666667 L749.416,68.4646667 L753.232,64.1626667 L755.572,64.1626667 L751.738,68.4106667 Z M761.054,72.1546667 C761.054,71.6746643 761.221998,71.2666683 761.558,70.9306667 C761.894002,70.594665 762.301998,70.4266667 762.782,70.4266667 C763.274002,70.4266667 763.687998,70.594665 764.024,70.9306667 C764.360002,71.2666683 764.528,71.6746643 764.528,72.1546667 C764.528,72.6466691 764.360002,73.060665 764.024,73.3966667 C763.687998,73.7326683 763.274002,73.9006667 762.782,73.9006667 C762.301998,73.9006667 761.894002,73.7326683 761.558,73.3966667 C761.221998,73.060665 761.054,72.6466691 761.054,72.1546667 Z M774.258,72.3706667 C774.894003,72.3706667 775.394998,72.2566678 775.761,72.0286667 C776.127002,71.8006655 776.31,71.4886686 776.31,71.0926667 C776.31,70.8166653 776.256001,70.5916675 776.148,70.4176667 C776.039999,70.2436658 775.824002,70.0816674 775.5,69.9316667 C775.175998,69.7816659 774.690003,69.6226675 774.042,69.4546667 C772.997995,69.1906653 772.215003,68.8516687 771.693,68.4376667 C771.170997,68.0236646 770.91,67.4266706 770.91,66.6466667 C770.91,65.8186625 771.251997,65.1556692 771.936,64.6576667 C772.620003,64.1596642 773.543994,63.9106667 774.708,63.9106667 C776.112007,63.9106667 777.317995,64.276663 778.326,65.0086667 L777.462,66.2866667 C776.609996,65.7226638 775.710005,65.4406667 774.762,65.4406667 C773.561994,65.4406667 772.962,65.7886632 772.962,66.4846667 C772.962,66.7246679 773.030999,66.9226659 773.169,67.0786667 C773.307001,67.2346674 773.543998,67.381666 773.88,67.5196667 C774.216002,67.6576674 774.713997,67.8166658 775.374,67.9966667 C776.406005,68.2846681 777.176997,68.6386646 777.687,69.0586667 C778.197003,69.4786688 778.452,70.1086625 778.452,70.9486667 C778.452,71.9206715 778.050004,72.6556642 777.246,73.1536667 C776.441996,73.6516692 775.446006,73.9006667 774.258,73.9006667 C772.685992,73.9006667 771.384005,73.4566711 770.352,72.5686667 L771.414,71.3446667 C771.810002,71.6566682 772.250998,71.9056657 772.737,72.0916667 C773.223002,72.2776676 773.729997,72.3706667 774.258,72.3706667 Z M790.54,73.1626667 C790.179998,73.3906678 789.760002,73.570666 789.28,73.7026667 C788.799998,73.8346673 788.296003,73.9006667 787.768,73.9006667 C786.687995,73.9006667 785.854003,73.6216695 785.266,73.0636667 C784.677997,72.5056639 784.384,71.7466715 784.384,70.7866667 L784.384,65.6386667 L782.278,65.6386667 L782.278,64.1626667 L784.384,64.1626667 L784.384,62.0386667 L786.4,61.8046667 L786.4,64.1626667 L789.622,64.1626667 L789.388,65.6386667 L786.4,65.6386667 L786.4,70.7686667 C786.4,71.2846692 786.531999,71.6656654 786.796,71.9116667 C787.060001,72.1576679 787.479997,72.2806667 788.056,72.2806667 C788.692003,72.2806667 789.279997,72.1306682 789.82,71.8306667 L790.54,73.1626667 Z M801.674,71.3446667 C801.674,71.7046685 801.727999,71.9716658 801.836,72.1456667 C801.944001,72.3196675 802.129999,72.4486662 802.394,72.5326667 L801.926,73.9006667 C800.929995,73.7806661 800.276002,73.3426704 799.964,72.5866667 C799.615998,73.0186688 799.181003,73.3456656 798.659,73.5676667 C798.136997,73.7896678 797.564003,73.9006667 796.94,73.9006667 C795.979995,73.9006667 795.218003,73.6306694 794.654,73.0906667 C794.089997,72.550664 793.808,71.8366711 793.808,70.9486667 C793.808,69.9526617 794.200996,69.1846694 794.987,68.6446667 C795.773004,68.104664 796.885993,67.8346667 798.326,67.8346667 L799.676,67.8346667 L799.676,67.2226667 C799.676,66.6226637 799.496002,66.184668 799.136,65.9086667 C798.775998,65.6326653 798.254003,65.4946667 797.57,65.4946667 C797.233998,65.4946667 796.844002,65.5366662 796.4,65.6206667 C795.955998,65.7046671 795.506002,65.8246659 795.05,65.9806667 L794.546,64.5586667 C795.686006,64.1266645 796.795995,63.9106667 797.876,63.9106667 C799.136006,63.9106667 800.083997,64.1866639 800.72,64.7386667 C801.356003,65.2906694 801.674,66.0766616 801.674,67.0966667 L801.674,71.3446667 Z M797.534,72.4246667 C797.954002,72.4246667 798.358998,72.3166677 798.749,72.1006667 C799.139002,71.8846656 799.447999,71.5846686 799.676,71.2006667 L799.676,69.0946667 L798.56,69.0946667 C797.647995,69.0946667 796.982002,69.2476651 796.562,69.5536667 C796.141998,69.8596682 795.932,70.3006638 795.932,70.8766667 C795.932,71.3806692 796.066999,71.7646653 796.337,72.0286667 C796.607001,72.292668 797.005997,72.4246667 797.534,72.4246667 Z M810.792,72.2446667 C811.548004,72.2446667 812.327996,71.9746694 813.132,71.4346667 L814.05,72.7306667 C813.629998,73.0906685 813.126003,73.3756656 812.538,73.5856667 C811.949997,73.7956677 811.344003,73.9006667 810.72,73.9006667 C809.267993,73.9006667 808.134004,73.4536711 807.318,72.5596667 C806.501996,71.6656622 806.094,70.4686742 806.094,68.9686667 C806.094,67.9966618 806.279998,67.1296705 806.652,66.3676667 C807.024002,65.6056629 807.560996,65.0056689 808.263,64.5676667 C808.965004,64.1296645 809.795995,63.9106667 810.756,63.9106667 C812.016006,63.9106667 813.113995,64.2946628 814.05,65.0626667 L813.114,66.3226667 C812.345996,65.794664 811.572004,65.5306667 810.792,65.5306667 C809.999996,65.5306667 809.376002,65.8156638 808.92,66.3856667 C808.463998,66.9556695 808.236,67.8166609 808.236,68.9686667 C808.236,70.0966723 808.463998,70.924664 808.92,71.4526667 C809.376002,71.9806693 809.999996,72.2446667 810.792,72.2446667 Z M820.072,73.6666667 L818.056,73.6666667 L818.056,60.3466667 L820.072,60.1126667 L820.072,73.6666667 Z M822.538,68.4106667 L826.768,73.6666667 L824.302,73.6666667 L820.216,68.4646667 L824.032,64.1626667 L826.372,64.1626667 L822.538,68.4106667 Z" id="--ReactNative.Buck.s" fill="#3D3E3F"></path>
        <path d="M547.142,46.538 L553.658,46.538 L553.658,48.194 L547.142,48.194 L547.142,46.538 Z M578.428,44.18 C578.428,45.0440043 578.170003,45.7639971 577.654,46.34 C577.137997,46.9160029 576.454004,47.3359987 575.602,47.6 L579.13,53 L576.7,53 L573.568,47.888 L572.218,47.888 L572.218,53 L570.13,53 L570.13,40.58 L573.586,40.58 C576.814016,40.58 578.428,41.779988 578.428,44.18 Z M576.25,44.18 C576.25,43.4599964 576.043002,42.9380016 575.629,42.614 C575.214998,42.2899984 574.576004,42.128 573.712,42.128 L572.218,42.128 L572.218,46.358 L573.766,46.358 C574.582004,46.358 575.199998,46.1840017 575.62,45.836 C576.040002,45.4879983 576.25,44.9360038 576.25,44.18 Z M583.676,48.896 C583.736,49.8200046 584.002998,50.5129977 584.477,50.975 C584.951002,51.4370023 585.547996,51.668 586.268,51.668 C586.712002,51.668 587.134998,51.5990007 587.537,51.461 C587.939002,51.3229993 588.349998,51.1160014 588.77,50.84 L589.634,52.064 C589.189998,52.4360019 588.668003,52.723999 588.068,52.928 C587.467997,53.132001 586.838003,53.234 586.178,53.234 C584.725993,53.234 583.598004,52.7810045 582.794,51.875 C581.989996,50.9689955 581.588,49.7600076 581.588,48.248 C581.588,47.2999953 581.761998,46.4450038 582.11,45.683 C582.458002,44.9209962 582.961997,44.3240022 583.622,43.892 C584.282003,43.4599978 585.049996,43.244 585.926,43.244 C587.186006,43.244 588.184996,43.6669958 588.923,44.513 C589.661004,45.3590042 590.03,46.5199926 590.03,47.996 C590.03,48.3560018 590.012,48.6559988 589.976,48.896 L583.676,48.896 Z M585.944,44.738 C585.295997,44.738 584.768002,44.9719977 584.36,45.44 C583.951998,45.9080023 583.718,46.6039954 583.658,47.528 L588.068,47.528 C588.044,46.6279955 587.852002,45.9380024 587.492,45.458 C587.131998,44.9779976 586.616003,44.738 585.944,44.738 Z M601.074,50.678 C601.074,51.0380018 601.127999,51.3049991 601.236,51.479 C601.344001,51.6530009 601.529999,51.7819996 601.794,51.866 L601.326,53.234 C600.329995,53.1139994 599.676002,52.6760038 599.364,51.92 C599.015998,52.3520022 598.581003,52.6789989 598.059,52.901 C597.536997,53.1230011 596.964003,53.234 596.34,53.234 C595.379995,53.234 594.618003,52.9640027 594.054,52.424 C593.489997,51.8839973 593.208,51.1700044 593.208,50.282 C593.208,49.285995 593.600996,48.5180027 594.387,47.978 C595.173004,47.4379973 596.285993,47.168 597.726,47.168 L599.076,47.168 L599.076,46.556 C599.076,45.955997 598.896002,45.5180014 598.536,45.242 C598.175998,44.9659986 597.654003,44.828 596.97,44.828 C596.633998,44.828 596.244002,44.8699996 595.8,44.954 C595.355998,45.0380004 594.906002,45.1579992 594.45,45.314 L593.946,43.892 C595.086006,43.4599978 596.195995,43.244 597.276,43.244 C598.536006,43.244 599.483997,43.5199972 600.12,44.072 C600.756003,44.6240028 601.074,45.4099949 601.074,46.43 L601.074,50.678 Z M596.934,51.758 C597.354002,51.758 597.758998,51.6500011 598.149,51.434 C598.539002,51.2179989 598.847999,50.9180019 599.076,50.534 L599.076,48.428 L597.96,48.428 C597.047995,48.428 596.382002,48.5809985 595.962,48.887 C595.541998,49.1930015 595.332,49.6339971 595.332,50.21 C595.332,50.7140025 595.466999,51.0979987 595.737,51.362 C596.007001,51.6260013 596.405997,51.758 596.934,51.758 Z M610.192,51.578 C610.948004,51.578 611.727996,51.3080027 612.532,50.768 L613.45,52.064 C613.029998,52.4240018 612.526003,52.708999 611.938,52.919 C611.349997,53.129001 610.744003,53.234 610.12,53.234 C608.667993,53.234 607.534004,52.7870045 606.718,51.893 C605.901996,50.9989955 605.494,49.8020075 605.494,48.302 C605.494,47.3299951 605.679998,46.4630038 606.052,45.701 C606.424002,44.9389962 606.960996,44.3390022 607.663,43.901 C608.365004,43.4629978 609.195995,43.244 610.156,43.244 C611.416006,43.244 612.513995,43.6279962 613.45,44.396 L612.514,45.656 C611.745996,45.1279974 610.972004,44.864 610.192,44.864 C609.399996,44.864 608.776002,45.1489971 608.32,45.719 C607.863998,46.2890029 607.636,47.1499942 607.636,48.302 C607.636,49.4300056 607.863998,50.2579974 608.32,50.786 C608.776002,51.3140026 609.399996,51.578 610.192,51.578 Z M625.34,52.496 C624.979998,52.7240011 624.560002,52.9039993 624.08,53.036 C623.599998,53.1680007 623.096003,53.234 622.568,53.234 C621.487995,53.234 620.654003,52.9550028 620.066,52.397 C619.477997,51.8389972 619.184,51.0800048 619.184,50.12 L619.184,44.972 L617.078,44.972 L617.078,43.496 L619.184,43.496 L619.184,41.372 L621.2,41.138 L621.2,43.496 L624.422,43.496 L624.188,44.972 L621.2,44.972 L621.2,50.102 C621.2,50.6180026 621.331999,50.9989988 621.596,51.245 C621.860001,51.4910012 622.279997,51.614 622.856,51.614 C623.492003,51.614 624.079997,51.4640015 624.62,51.164 L625.34,52.496 Z M630.444,42.434 C630.636001,44.4020098 630.732,46.0459934 630.732,47.366 L630.732,53 L628.878,53 L628.878,40.58 L631.596,40.58 L635.556,51.146 C635.472,50.2579956 635.403,49.4570036 635.349,48.743 C635.295,48.0289964 635.268,47.1920048 635.268,46.232 L635.268,40.58 L637.122,40.58 L637.122,53 L634.404,53 L630.444,42.434 Z M648.274,50.678 C648.274,51.0380018 648.327999,51.3049991 648.436,51.479 C648.544001,51.6530009 648.729999,51.7819996 648.994,51.866 L648.526,53.234 C647.529995,53.1139994 646.876002,52.6760038 646.564,51.92 C646.215998,52.3520022 645.781003,52.6789989 645.259,52.901 C644.736997,53.1230011 644.164003,53.234 643.54,53.234 C642.579995,53.234 641.818003,52.9640027 641.254,52.424 C640.689997,51.8839973 640.408,51.1700044 640.408,50.282 C640.408,49.285995 640.800996,48.5180027 641.587,47.978 C642.373004,47.4379973 643.485993,47.168 644.926,47.168 L646.276,47.168 L646.276,46.556 C646.276,45.955997 646.096002,45.5180014 645.736,45.242 C645.375998,44.9659986 644.854003,44.828 644.17,44.828 C643.833998,44.828 643.444002,44.8699996 643,44.954 C642.555998,45.0380004 642.106002,45.1579992 641.65,45.314 L641.146,43.892 C642.286006,43.4599978 643.395995,43.244 644.476,43.244 C645.736006,43.244 646.683997,43.5199972 647.32,44.072 C647.956003,44.6240028 648.274,45.4099949 648.274,46.43 L648.274,50.678 Z M644.134,51.758 C644.554002,51.758 644.958998,51.6500011 645.349,51.434 C645.739002,51.2179989 646.047999,50.9180019 646.276,50.534 L646.276,48.428 L645.16,48.428 C644.247995,48.428 643.582002,48.5809985 643.162,48.887 C642.741998,49.1930015 642.532,49.6339971 642.532,50.21 C642.532,50.7140025 642.666999,51.0979987 642.937,51.362 C643.207001,51.6260013 643.605997,51.758 644.134,51.758 Z M660.74,52.496 C660.379998,52.7240011 659.960002,52.9039993 659.48,53.036 C658.999998,53.1680007 658.496003,53.234 657.968,53.234 C656.887995,53.234 656.054003,52.9550028 655.466,52.397 C654.877997,51.8389972 654.584,51.0800048 654.584,50.12 L654.584,44.972 L652.478,44.972 L652.478,43.496 L654.584,43.496 L654.584,41.372 L656.6,41.138 L656.6,43.496 L659.822,43.496 L659.588,44.972 L656.6,44.972 L656.6,50.102 C656.6,50.6180026 656.731999,50.9989988 656.996,51.245 C657.260001,51.4910012 657.679997,51.614 658.256,51.614 C658.892003,51.614 659.479997,51.4640015 660.02,51.164 L660.74,52.496 Z M668.4,38.834 C668.784002,38.834 669.098999,38.9569988 669.345,39.203 C669.591001,39.4490012 669.714,39.7519982 669.714,40.112 C669.714,40.4720018 669.591001,40.7719988 669.345,41.012 C669.098999,41.2520012 668.784002,41.372 668.4,41.372 C668.003998,41.372 667.686001,41.2520012 667.446,41.012 C667.205999,40.7719988 667.086,40.4720018 667.086,40.112 C667.086,39.7399981 667.208999,39.4340012 667.455,39.194 C667.701001,38.9539988 668.015998,38.834 668.4,38.834 Z M669.786,51.524 L672.378,51.524 L672.378,53 L664.944,53 L664.944,51.524 L667.77,51.524 L667.77,44.972 L665.034,44.972 L665.034,43.496 L669.786,43.496 L669.786,51.524 Z M681.37,53 L679.03,53 L675.664,43.496 L677.842,43.496 L680.236,51.326 L682.666,43.496 L684.736,43.496 L681.37,53 Z M689.876,48.896 C689.936,49.8200046 690.202998,50.5129977 690.677,50.975 C691.151002,51.4370023 691.747996,51.668 692.468,51.668 C692.912002,51.668 693.334998,51.5990007 693.737,51.461 C694.139002,51.3229993 694.549998,51.1160014 694.97,50.84 L695.834,52.064 C695.389998,52.4360019 694.868003,52.723999 694.268,52.928 C693.667997,53.132001 693.038003,53.234 692.378,53.234 C690.925993,53.234 689.798004,52.7810045 688.994,51.875 C688.189996,50.9689955 687.788,49.7600076 687.788,48.248 C687.788,47.2999953 687.961998,46.4450038 688.31,45.683 C688.658002,44.9209962 689.161997,44.3240022 689.822,43.892 C690.482003,43.4599978 691.249996,43.244 692.126,43.244 C693.386006,43.244 694.384996,43.6669958 695.123,44.513 C695.861004,45.3590042 696.23,46.5199926 696.23,47.996 C696.23,48.3560018 696.212,48.6559988 696.176,48.896 L689.876,48.896 Z M692.144,44.738 C691.495997,44.738 690.968002,44.9719977 690.56,45.44 C690.151998,45.9080023 689.918,46.6039954 689.858,47.528 L694.268,47.528 C694.244,46.6279955 694.052002,45.9380024 693.692,45.458 C693.331998,44.9779976 692.816003,44.738 692.144,44.738 Z M702.054,51.488 C702.054,51.0079976 702.221998,50.6000017 702.558,50.264 C702.894002,49.9279983 703.301998,49.76 703.782,49.76 C704.274002,49.76 704.687998,49.9279983 705.024,50.264 C705.360002,50.6000017 705.528,51.0079976 705.528,51.488 C705.528,51.9800025 705.360002,52.3939983 705.024,52.73 C704.687998,53.0660017 704.274002,53.234 703.782,53.234 C703.301998,53.234 702.894002,53.0660017 702.558,52.73 C702.221998,52.3939983 702.054,51.9800025 702.054,51.488 Z M713.35,50.012 L712.486,53 L710.344,53 L714.304,40.58 L716.896,40.58 L720.856,53 L718.642,53 L717.778,50.012 L713.35,50.012 Z M717.346,48.392 L715.564,42.2 L713.782,48.392 L717.346,48.392 Z M723.602,43.496 L725.348,43.496 L725.492,44.738 C725.888002,44.2579976 726.352997,43.8890013 726.887,43.631 C727.421003,43.3729987 727.981997,43.244 728.57,43.244 C729.446004,43.244 730.105998,43.4899975 730.55,43.982 C730.994002,44.4740025 731.216,45.1699955 731.216,46.07 L731.216,53 L729.2,53 L729.2,47.078 C729.2,46.4899971 729.167,46.0370016 729.101,45.719 C729.035,45.4009984 728.906001,45.1670007 728.714,45.017 C728.521999,44.8669992 728.234002,44.792 727.85,44.792 C727.417998,44.792 727.007002,44.9239987 726.617,45.188 C726.226998,45.4520013 725.894001,45.781998 725.618,46.178 L725.618,53 L723.602,53 L723.602,43.496 Z M742.998,39.68 L742.998,53 L741.216,53 L741.072,51.83 C740.759998,52.2860023 740.376002,52.6339988 739.92,52.874 C739.463998,53.1140012 738.960003,53.234 738.408,53.234 C737.219994,53.234 736.326003,52.7900044 735.726,51.902 C735.125997,51.0139956 734.826,49.7960077 734.826,48.248 C734.826,47.2759951 734.978998,46.4120038 735.285,45.656 C735.591002,44.8999962 736.025997,44.3090021 736.59,43.883 C737.154003,43.4569979 737.819996,43.244 738.588,43.244 C739.560005,43.244 740.357997,43.5919965 740.982,44.288 L740.982,39.446 L742.998,39.68 Z M739.11,44.792 C738.413997,44.792 737.883002,45.0769971 737.517,45.647 C737.150998,46.2170029 736.968,47.0839942 736.968,48.248 C736.968,50.5520115 737.627993,51.704 738.948,51.704 C739.740004,51.704 740.417997,51.2480046 740.982,50.336 L740.982,45.854 C740.489998,45.1459965 739.866004,44.792 739.11,44.792 Z M753.934,43.262 C754.426002,43.262 754.905998,43.3399992 755.374,43.496 L755.032,47.006 L753.592,47.006 L753.592,45.062 C752.931997,45.0740001 752.359002,45.3379974 751.873,45.854 C751.386998,46.3700026 751.000001,47.0959953 750.712,48.032 L750.712,51.56 L752.62,51.56 L752.62,53 L747.292,53 L747.292,51.56 L748.696,51.56 L748.696,44.936 L747.292,44.936 L747.292,43.496 L750.226,43.496 L750.586,45.692 C750.958002,44.8759959 751.410997,44.267002 751.945,43.865 C752.479003,43.462998 753.141996,43.262 753.934,43.262 Z M762.818,43.244 C764.186007,43.244 765.241996,43.6909955 765.986,44.585 C766.730004,45.4790045 767.102,46.6939923 767.102,48.23 C767.102,49.7660077 766.724004,50.9839955 765.968,51.884 C765.211996,52.7840045 764.156007,53.234 762.8,53.234 C761.431993,53.234 760.373004,52.7930044 759.623,51.911 C758.872996,51.0289956 758.498,49.8080078 758.498,48.248 C758.498,46.7359924 758.878996,45.5240046 759.641,44.612 C760.403004,43.6999954 761.461993,43.244 762.818,43.244 Z M762.818,44.81 C762.085996,44.81 761.537002,45.0919972 761.171,45.656 C760.804998,46.2200028 760.622,47.0839942 760.622,48.248 C760.622,49.4240059 760.801998,50.2909972 761.162,50.849 C761.522002,51.4070028 762.067996,51.686 762.8,51.686 C763.532004,51.686 764.077998,51.4040028 764.438,50.84 C764.798002,50.2759972 764.978,49.4060059 764.978,48.23 C764.978,47.0659942 764.798002,46.2050028 764.438,45.647 C764.077998,45.0889972 763.538004,44.81 762.818,44.81 Z M774.6,38.834 C774.984002,38.834 775.298999,38.9569988 775.545,39.203 C775.791001,39.4490012 775.914,39.7519982 775.914,40.112 C775.914,40.4720018 775.791001,40.7719988 775.545,41.012 C775.298999,41.2520012 774.984002,41.372 774.6,41.372 C774.203998,41.372 773.886001,41.2520012 773.646,41.012 C773.405999,40.7719988 773.286,40.4720018 773.286,40.112 C773.286,39.7399981 773.408999,39.4340012 773.655,39.194 C773.901001,38.9539988 774.215998,38.834 774.6,38.834 Z M775.986,51.524 L778.578,51.524 L778.578,53 L771.144,53 L771.144,51.524 L773.97,51.524 L773.97,44.972 L771.234,44.972 L771.234,43.496 L775.986,43.496 L775.986,51.524 Z M790.198,39.68 L790.198,53 L788.416,53 L788.272,51.83 C787.959998,52.2860023 787.576002,52.6339988 787.12,52.874 C786.663998,53.1140012 786.160003,53.234 785.608,53.234 C784.419994,53.234 783.526003,52.7900044 782.926,51.902 C782.325997,51.0139956 782.026,49.7960077 782.026,48.248 C782.026,47.2759951 782.178998,46.4120038 782.485,45.656 C782.791002,44.8999962 783.225997,44.3090021 783.79,43.883 C784.354003,43.4569979 785.019996,43.244 785.788,43.244 C786.760005,43.244 787.557997,43.5919965 788.182,44.288 L788.182,39.446 L790.198,39.68 Z M786.31,44.792 C785.613997,44.792 785.083002,45.0769971 784.717,45.647 C784.350998,46.2170029 784.168,47.0839942 784.168,48.248 C784.168,50.5520115 784.827993,51.704 786.148,51.704 C786.940004,51.704 787.617997,51.2480046 788.182,50.336 L788.182,45.854 C787.689998,45.1459965 787.066004,44.792 786.31,44.792 Z M796.454,51.488 C796.454,51.0079976 796.621998,50.6000017 796.958,50.264 C797.294002,49.9279983 797.701998,49.76 798.182,49.76 C798.674002,49.76 799.087998,49.9279983 799.424,50.264 C799.760002,50.6000017 799.928,51.0079976 799.928,51.488 C799.928,51.9800025 799.760002,52.3939983 799.424,52.73 C799.087998,53.0660017 798.674002,53.234 798.182,53.234 C797.701998,53.234 797.294002,53.0660017 796.958,52.73 C796.621998,52.3939983 796.454,51.9800025 796.454,51.488 Z M809.658,51.704 C810.294003,51.704 810.794998,51.5900011 811.161,51.362 C811.527002,51.1339989 811.71,50.822002 811.71,50.426 C811.71,50.1499986 811.656001,49.9250009 811.548,49.751 C811.439999,49.5769991 811.224002,49.4150008 810.9,49.265 C810.575998,49.1149992 810.090003,48.9560008 809.442,48.788 C808.397995,48.5239987 807.615003,48.1850021 807.093,47.771 C806.570997,47.3569979 806.31,46.7600039 806.31,45.98 C806.31,45.1519959 806.651997,44.4890025 807.336,43.991 C808.020003,43.4929975 808.943994,43.244 810.108,43.244 C811.512007,43.244 812.717995,43.6099963 813.726,44.342 L812.862,45.62 C812.009996,45.0559972 811.110005,44.774 810.162,44.774 C808.961994,44.774 808.362,45.1219965 808.362,45.818 C808.362,46.0580012 808.430999,46.2559992 808.569,46.412 C808.707001,46.5680008 808.943998,46.7149993 809.28,46.853 C809.616002,46.9910007 810.113997,47.1499991 810.774,47.33 C811.806005,47.6180014 812.576997,47.9719979 813.087,48.392 C813.597003,48.8120021 813.852,49.4419958 813.852,50.282 C813.852,51.2540049 813.450004,51.9889975 812.646,52.487 C811.841996,52.9850025 810.846006,53.234 809.658,53.234 C808.085992,53.234 806.784005,52.7900044 805.752,51.902 L806.814,50.678 C807.210002,50.9900016 807.650998,51.2389991 808.137,51.425 C808.623002,51.6110009 809.129997,51.704 809.658,51.704 Z M825.94,52.496 C825.579998,52.7240011 825.160002,52.9039993 824.68,53.036 C824.199998,53.1680007 823.696003,53.234 823.168,53.234 C822.087995,53.234 821.254003,52.9550028 820.666,52.397 C820.077997,51.8389972 819.784,51.0800048 819.784,50.12 L819.784,44.972 L817.678,44.972 L817.678,43.496 L819.784,43.496 L819.784,41.372 L821.8,41.138 L821.8,43.496 L825.022,43.496 L824.788,44.972 L821.8,44.972 L821.8,50.102 C821.8,50.6180026 821.931999,50.9989988 822.196,51.245 C822.460001,51.4910012 822.879997,51.614 823.456,51.614 C824.092003,51.614 824.679997,51.4640015 825.22,51.164 L825.94,52.496 Z M837.074,50.678 C837.074,51.0380018 837.127999,51.3049991 837.236,51.479 C837.344001,51.6530009 837.529999,51.7819996 837.794,51.866 L837.326,53.234 C836.329995,53.1139994 835.676002,52.6760038 835.364,51.92 C835.015998,52.3520022 834.581003,52.6789989 834.059,52.901 C833.536997,53.1230011 832.964003,53.234 832.34,53.234 C831.379995,53.234 830.618003,52.9640027 830.054,52.424 C829.489997,51.8839973 829.208,51.1700044 829.208,50.282 C829.208,49.285995 829.600996,48.5180027 830.387,47.978 C831.173004,47.4379973 832.285993,47.168 833.726,47.168 L835.076,47.168 L835.076,46.556 C835.076,45.955997 834.896002,45.5180014 834.536,45.242 C834.175998,44.9659986 833.654003,44.828 832.97,44.828 C832.633998,44.828 832.244002,44.8699996 831.8,44.954 C831.355998,45.0380004 830.906002,45.1579992 830.45,45.314 L829.946,43.892 C831.086006,43.4599978 832.195995,43.244 833.276,43.244 C834.536006,43.244 835.483997,43.5199972 836.12,44.072 C836.756003,44.6240028 837.074,45.4099949 837.074,46.43 L837.074,50.678 Z M832.934,51.758 C833.354002,51.758 833.758998,51.6500011 834.149,51.434 C834.539002,51.2179989 834.847999,50.9180019 835.076,50.534 L835.076,48.428 L833.96,48.428 C833.047995,48.428 832.382002,48.5809985 831.962,48.887 C831.541998,49.1930015 831.332,49.6339971 831.332,50.21 C831.332,50.7140025 831.466999,51.0979987 831.737,51.362 C832.007001,51.6260013 832.405997,51.758 832.934,51.758 Z M846.192,51.578 C846.948004,51.578 847.727996,51.3080027 848.532,50.768 L849.45,52.064 C849.029998,52.4240018 848.526003,52.708999 847.938,52.919 C847.349997,53.129001 846.744003,53.234 846.12,53.234 C844.667993,53.234 843.534004,52.7870045 842.718,51.893 C841.901996,50.9989955 841.494,49.8020075 841.494,48.302 C841.494,47.3299951 841.679998,46.4630038 842.052,45.701 C842.424002,44.9389962 842.960996,44.3390022 843.663,43.901 C844.365004,43.4629978 845.195995,43.244 846.156,43.244 C847.416006,43.244 848.513995,43.6279962 849.45,44.396 L848.514,45.656 C847.745996,45.1279974 846.972004,44.864 846.192,44.864 C845.399996,44.864 844.776002,45.1489971 844.32,45.719 C843.863998,46.2890029 843.636,47.1499942 843.636,48.302 C843.636,49.4300056 843.863998,50.2579974 844.32,50.786 C844.776002,51.3140026 845.399996,51.578 846.192,51.578 Z M855.472,53 L853.456,53 L853.456,39.68 L855.472,39.446 L855.472,53 Z M857.938,47.744 L862.168,53 L859.702,53 L855.616,47.798 L859.432,43.496 L861.772,43.496 L857.938,47.744 Z" id="--ReactNative.Androi" fill="#3D3E3F"></path>
        <path d="M547.142,87.8713333 L553.658,87.8713333 L553.658,89.5273333 L547.142,89.5273333 L547.142,87.8713333 Z M578.428,85.5133333 C578.428,86.3773377 578.170003,87.0973305 577.654,87.6733333 C577.137997,88.2493362 576.454004,88.669332 575.602,88.9333333 L579.13,94.3333333 L576.7,94.3333333 L573.568,89.2213333 L572.218,89.2213333 L572.218,94.3333333 L570.13,94.3333333 L570.13,81.9133333 L573.586,81.9133333 C576.814016,81.9133333 578.428,83.1133213 578.428,85.5133333 Z M576.25,85.5133333 C576.25,84.7933297 576.043002,84.271335 575.629,83.9473333 C575.214998,83.6233317 574.576004,83.4613333 573.712,83.4613333 L572.218,83.4613333 L572.218,87.6913333 L573.766,87.6913333 C574.582004,87.6913333 575.199998,87.5173351 575.62,87.1693333 C576.040002,86.8213316 576.25,86.2693371 576.25,85.5133333 Z M583.676,90.2293333 C583.736,91.153338 584.002998,91.846331 584.477,92.3083333 C584.951002,92.7703356 585.547996,93.0013333 586.268,93.0013333 C586.712002,93.0013333 587.134998,92.932334 587.537,92.7943333 C587.939002,92.6563326 588.349998,92.4493347 588.77,92.1733333 L589.634,93.3973333 C589.189998,93.7693352 588.668003,94.0573323 588.068,94.2613333 C587.467997,94.4653344 586.838003,94.5673333 586.178,94.5673333 C584.725993,94.5673333 583.598004,94.1143379 582.794,93.2083333 C581.989996,92.3023288 581.588,91.0933409 581.588,89.5813333 C581.588,88.6333286 581.761998,87.7783371 582.11,87.0163333 C582.458002,86.2543295 582.961997,85.6573355 583.622,85.2253333 C584.282003,84.7933312 585.049996,84.5773333 585.926,84.5773333 C587.186006,84.5773333 588.184996,85.0003291 588.923,85.8463333 C589.661004,86.6923376 590.03,87.853326 590.03,89.3293333 C590.03,89.6893351 590.012,89.9893321 589.976,90.2293333 L583.676,90.2293333 Z M585.944,86.0713333 C585.295997,86.0713333 584.768002,86.305331 584.36,86.7733333 C583.951998,87.2413357 583.718,87.9373287 583.658,88.8613333 L588.068,88.8613333 C588.044,87.9613288 587.852002,87.2713357 587.492,86.7913333 C587.131998,86.3113309 586.616003,86.0713333 585.944,86.0713333 Z M601.074,92.0113333 C601.074,92.3713351 601.127999,92.6383325 601.236,92.8123333 C601.344001,92.9863342 601.529999,93.1153329 601.794,93.1993333 L601.326,94.5673333 C600.329995,94.4473327 599.676002,94.0093371 599.364,93.2533333 C599.015998,93.6853355 598.581003,94.0123322 598.059,94.2343333 C597.536997,94.4563344 596.964003,94.5673333 596.34,94.5673333 C595.379995,94.5673333 594.618003,94.297336 594.054,93.7573333 C593.489997,93.2173306 593.208,92.5033378 593.208,91.6153333 C593.208,90.6193284 593.600996,89.851336 594.387,89.3113333 C595.173004,88.7713306 596.285993,88.5013333 597.726,88.5013333 L599.076,88.5013333 L599.076,87.8893333 C599.076,87.2893303 598.896002,86.8513347 598.536,86.5753333 C598.175998,86.299332 597.654003,86.1613333 596.97,86.1613333 C596.633998,86.1613333 596.244002,86.2033329 595.8,86.2873333 C595.355998,86.3713338 594.906002,86.4913326 594.45,86.6473333 L593.946,85.2253333 C595.086006,84.7933312 596.195995,84.5773333 597.276,84.5773333 C598.536006,84.5773333 599.483997,84.8533306 600.12,85.4053333 C600.756003,85.9573361 601.074,86.7433282 601.074,87.7633333 L601.074,92.0113333 Z M596.934,93.0913333 C597.354002,93.0913333 597.758998,92.9833344 598.149,92.7673333 C598.539002,92.5513323 598.847999,92.2513353 599.076,91.8673333 L599.076,89.7613333 L597.96,89.7613333 C597.047995,89.7613333 596.382002,89.9143318 595.962,90.2203333 C595.541998,90.5263349 595.332,90.9673305 595.332,91.5433333 C595.332,92.0473359 595.466999,92.431332 595.737,92.6953333 C596.007001,92.9593347 596.405997,93.0913333 596.934,93.0913333 Z M610.192,92.9113333 C610.948004,92.9113333 611.727996,92.641336 612.532,92.1013333 L613.45,93.3973333 C613.029998,93.7573351 612.526003,94.0423323 611.938,94.2523333 C611.349997,94.4623344 610.744003,94.5673333 610.12,94.5673333 C608.667993,94.5673333 607.534004,94.1203378 606.718,93.2263333 C605.901996,92.3323289 605.494,91.1353408 605.494,89.6353333 C605.494,88.6633285 605.679998,87.7963371 606.052,87.0343333 C606.424002,86.2723295 606.960996,85.6723355 607.663,85.2343333 C608.365004,84.7963311 609.195995,84.5773333 610.156,84.5773333 C611.416006,84.5773333 612.513995,84.9613295 613.45,85.7293333 L612.514,86.9893333 C611.745996,86.4613307 610.972004,86.1973333 610.192,86.1973333 C609.399996,86.1973333 608.776002,86.4823305 608.32,87.0523333 C607.863998,87.6223362 607.636,88.4833276 607.636,89.6353333 C607.636,90.763339 607.863998,91.5913307 608.32,92.1193333 C608.776002,92.647336 609.399996,92.9113333 610.192,92.9113333 Z M625.34,93.8293333 C624.979998,94.0573345 624.560002,94.2373327 624.08,94.3693333 C623.599998,94.501334 623.096003,94.5673333 622.568,94.5673333 C621.487995,94.5673333 620.654003,94.2883361 620.066,93.7303333 C619.477997,93.1723305 619.184,92.4133381 619.184,91.4533333 L619.184,86.3053333 L617.078,86.3053333 L617.078,84.8293333 L619.184,84.8293333 L619.184,82.7053333 L621.2,82.4713333 L621.2,84.8293333 L624.422,84.8293333 L624.188,86.3053333 L621.2,86.3053333 L621.2,91.4353333 C621.2,91.9513359 621.331999,92.3323321 621.596,92.5783333 C621.860001,92.8243346 622.279997,92.9473333 622.856,92.9473333 C623.492003,92.9473333 624.079997,92.7973348 624.62,92.4973333 L625.34,93.8293333 Z M630.444,83.7673333 C630.636001,85.7353432 630.732,87.3793267 630.732,88.6993333 L630.732,94.3333333 L628.878,94.3333333 L628.878,81.9133333 L631.596,81.9133333 L635.556,92.4793333 C635.472,91.5913289 635.403,90.7903369 635.349,90.0763333 C635.295,89.3623298 635.268,88.5253381 635.268,87.5653333 L635.268,81.9133333 L637.122,81.9133333 L637.122,94.3333333 L634.404,94.3333333 L630.444,83.7673333 Z M648.274,92.0113333 C648.274,92.3713351 648.327999,92.6383325 648.436,92.8123333 C648.544001,92.9863342 648.729999,93.1153329 648.994,93.1993333 L648.526,94.5673333 C647.529995,94.4473327 646.876002,94.0093371 646.564,93.2533333 C646.215998,93.6853355 645.781003,94.0123322 645.259,94.2343333 C644.736997,94.4563344 644.164003,94.5673333 643.54,94.5673333 C642.579995,94.5673333 641.818003,94.297336 641.254,93.7573333 C640.689997,93.2173306 640.408,92.5033378 640.408,91.6153333 C640.408,90.6193284 640.800996,89.851336 641.587,89.3113333 C642.373004,88.7713306 643.485993,88.5013333 644.926,88.5013333 L646.276,88.5013333 L646.276,87.8893333 C646.276,87.2893303 646.096002,86.8513347 645.736,86.5753333 C645.375998,86.299332 644.854003,86.1613333 644.17,86.1613333 C643.833998,86.1613333 643.444002,86.2033329 643,86.2873333 C642.555998,86.3713338 642.106002,86.4913326 641.65,86.6473333 L641.146,85.2253333 C642.286006,84.7933312 643.395995,84.5773333 644.476,84.5773333 C645.736006,84.5773333 646.683997,84.8533306 647.32,85.4053333 C647.956003,85.9573361 648.274,86.7433282 648.274,87.7633333 L648.274,92.0113333 Z M644.134,93.0913333 C644.554002,93.0913333 644.958998,92.9833344 645.349,92.7673333 C645.739002,92.5513323 646.047999,92.2513353 646.276,91.8673333 L646.276,89.7613333 L645.16,89.7613333 C644.247995,89.7613333 643.582002,89.9143318 643.162,90.2203333 C642.741998,90.5263349 642.532,90.9673305 642.532,91.5433333 C642.532,92.0473359 642.666999,92.431332 642.937,92.6953333 C643.207001,92.9593347 643.605997,93.0913333 644.134,93.0913333 Z M660.74,93.8293333 C660.379998,94.0573345 659.960002,94.2373327 659.48,94.3693333 C658.999998,94.501334 658.496003,94.5673333 657.968,94.5673333 C656.887995,94.5673333 656.054003,94.2883361 655.466,93.7303333 C654.877997,93.1723305 654.584,92.4133381 654.584,91.4533333 L654.584,86.3053333 L652.478,86.3053333 L652.478,84.8293333 L654.584,84.8293333 L654.584,82.7053333 L656.6,82.4713333 L656.6,84.8293333 L659.822,84.8293333 L659.588,86.3053333 L656.6,86.3053333 L656.6,91.4353333 C656.6,91.9513359 656.731999,92.3323321 656.996,92.5783333 C657.260001,92.8243346 657.679997,92.9473333 658.256,92.9473333 C658.892003,92.9473333 659.479997,92.7973348 660.02,92.4973333 L660.74,93.8293333 Z M668.4,80.1673333 C668.784002,80.1673333 669.098999,80.2903321 669.345,80.5363333 C669.591001,80.7823346 669.714,81.0853315 669.714,81.4453333 C669.714,81.8053351 669.591001,82.1053321 669.345,82.3453333 C669.098999,82.5853345 668.784002,82.7053333 668.4,82.7053333 C668.003998,82.7053333 667.686001,82.5853345 667.446,82.3453333 C667.205999,82.1053321 667.086,81.8053351 667.086,81.4453333 C667.086,81.0733315 667.208999,80.7673345 667.455,80.5273333 C667.701001,80.2873321 668.015998,80.1673333 668.4,80.1673333 Z M669.786,92.8573333 L672.378,92.8573333 L672.378,94.3333333 L664.944,94.3333333 L664.944,92.8573333 L667.77,92.8573333 L667.77,86.3053333 L665.034,86.3053333 L665.034,84.8293333 L669.786,84.8293333 L669.786,92.8573333 Z M681.37,94.3333333 L679.03,94.3333333 L675.664,84.8293333 L677.842,84.8293333 L680.236,92.6593333 L682.666,84.8293333 L684.736,84.8293333 L681.37,94.3333333 Z M689.876,90.2293333 C689.936,91.153338 690.202998,91.846331 690.677,92.3083333 C691.151002,92.7703356 691.747996,93.0013333 692.468,93.0013333 C692.912002,93.0013333 693.334998,92.932334 693.737,92.7943333 C694.139002,92.6563326 694.549998,92.4493347 694.97,92.1733333 L695.834,93.3973333 C695.389998,93.7693352 694.868003,94.0573323 694.268,94.2613333 C693.667997,94.4653344 693.038003,94.5673333 692.378,94.5673333 C690.925993,94.5673333 689.798004,94.1143379 688.994,93.2083333 C688.189996,92.3023288 687.788,91.0933409 687.788,89.5813333 C687.788,88.6333286 687.961998,87.7783371 688.31,87.0163333 C688.658002,86.2543295 689.161997,85.6573355 689.822,85.2253333 C690.482003,84.7933312 691.249996,84.5773333 692.126,84.5773333 C693.386006,84.5773333 694.384996,85.0003291 695.123,85.8463333 C695.861004,86.6923376 696.23,87.853326 696.23,89.3293333 C696.23,89.6893351 696.212,89.9893321 696.176,90.2293333 L689.876,90.2293333 Z M692.144,86.0713333 C691.495997,86.0713333 690.968002,86.305331 690.56,86.7733333 C690.151998,87.2413357 689.918,87.9373287 689.858,88.8613333 L694.268,88.8613333 C694.244,87.9613288 694.052002,87.2713357 693.692,86.7913333 C693.331998,86.3113309 692.816003,86.0713333 692.144,86.0713333 Z M702.054,92.8213333 C702.054,92.3413309 702.221998,91.933335 702.558,91.5973333 C702.894002,91.2613317 703.301998,91.0933333 703.782,91.0933333 C704.274002,91.0933333 704.687998,91.2613317 705.024,91.5973333 C705.360002,91.933335 705.528,92.3413309 705.528,92.8213333 C705.528,93.3133358 705.360002,93.7273317 705.024,94.0633333 C704.687998,94.399335 704.274002,94.5673333 703.782,94.5673333 C703.301998,94.5673333 702.894002,94.399335 702.558,94.0633333 C702.221998,93.7273317 702.054,93.3133358 702.054,92.8213333 Z M715.6,80.1673333 C715.984002,80.1673333 716.298999,80.2903321 716.545,80.5363333 C716.791001,80.7823346 716.914,81.0853315 716.914,81.4453333 C716.914,81.8053351 716.791001,82.1053321 716.545,82.3453333 C716.298999,82.5853345 715.984002,82.7053333 715.6,82.7053333 C715.203998,82.7053333 714.886001,82.5853345 714.646,82.3453333 C714.405999,82.1053321 714.286,81.8053351 714.286,81.4453333 C714.286,81.0733315 714.408999,80.7673345 714.655,80.5273333 C714.901001,80.2873321 715.215998,80.1673333 715.6,80.1673333 Z M716.986,92.8573333 L719.578,92.8573333 L719.578,94.3333333 L712.144,94.3333333 L712.144,92.8573333 L714.97,92.8573333 L714.97,86.3053333 L712.234,86.3053333 L712.234,84.8293333 L716.986,84.8293333 L716.986,92.8573333 Z M732.116,88.1233333 C732.116,90.0913432 731.711004,91.6573275 730.901,92.8213333 C730.090996,93.9853392 728.924008,94.5673333 727.4,94.5673333 C725.875992,94.5673333 724.709004,93.9943391 723.899,92.8483333 C723.088996,91.7023276 722.684,90.1333433 722.684,88.1413333 C722.684,86.1733235 723.088996,84.6013392 723.899,83.4253333 C724.709004,82.2493275 725.875992,81.6613333 727.4,81.6613333 C728.924008,81.6613333 730.090996,82.2403275 730.901,83.3983333 C731.711004,84.5563391 732.116,86.1313234 732.116,88.1233333 Z M729.974,88.1233333 C729.974,86.4913252 729.770002,85.2793373 729.362,84.4873333 C728.953998,83.6953294 728.300005,83.2993333 727.4,83.2993333 C726.499996,83.2993333 725.846002,83.6953294 725.438,84.4873333 C725.029998,85.2793373 724.826,86.4973251 724.826,88.1413333 C724.826,89.7613414 725.032998,90.9673294 725.447,91.7593333 C725.861002,92.5513373 726.511996,92.9473333 727.4,92.9473333 C728.300005,92.9473333 728.953998,92.5513373 729.362,91.7593333 C729.770002,90.9673294 729.974,89.7553415 729.974,88.1233333 Z M743.682,90.8233333 C743.682,91.5673371 743.493002,92.2213305 743.115,92.7853333 C742.736998,93.3493362 742.191004,93.7873318 741.477,94.0993333 C740.762996,94.4113349 739.914005,94.5673333 738.93,94.5673333 C737.00999,94.5673333 735.486006,94.0153389 734.358,92.9113333 L735.51,91.6333333 C736.446005,92.4973377 737.585993,92.9293333 738.93,92.9293333 C739.674004,92.9293333 740.288998,92.7553351 740.775,92.4073333 C741.261002,92.0593316 741.504,91.5673365 741.504,90.9313333 C741.504,90.5593315 741.429001,90.2473346 741.279,89.9953333 C741.128999,89.7433321 740.874002,89.5183343 740.514,89.3203333 C740.153998,89.1223323 739.638003,88.9213344 738.966,88.7173333 C737.585993,88.3093313 736.572003,87.8233362 735.924,87.2593333 C735.275997,86.6953305 734.952,85.951338 734.952,85.0273333 C734.952,84.36733 735.134998,83.7823359 735.501,83.2723333 C735.867002,82.7623308 736.373997,82.3663347 737.022,82.0843333 C737.670003,81.8023319 738.401996,81.6613333 739.218,81.6613333 C740.886008,81.6613333 742.271994,82.1593284 743.376,83.1553333 L742.278,84.3973333 C741.425996,83.6653297 740.448006,83.2993333 739.344,83.2993333 C738.671997,83.2993333 738.129002,83.437332 737.715,83.7133333 C737.300998,83.9893347 737.094,84.3853308 737.094,84.9013333 C737.094,85.225335 737.180999,85.5013322 737.355,85.7293333 C737.529001,85.9573345 737.822998,86.1643324 738.237,86.3503333 C738.651002,86.5363343 739.235996,86.7433322 739.992,86.9713333 C741.192006,87.3313351 742.106997,87.7933305 742.737,88.3573333 C743.367003,88.9213362 743.682,89.7433279 743.682,90.8233333 Z M749.254,92.8213333 C749.254,92.3413309 749.421998,91.933335 749.758,91.5973333 C750.094002,91.2613317 750.501998,91.0933333 750.982,91.0933333 C751.474002,91.0933333 751.887998,91.2613317 752.224,91.5973333 C752.560002,91.933335 752.728,92.3413309 752.728,92.8213333 C752.728,93.3133358 752.560002,93.7273317 752.224,94.0633333 C751.887998,94.399335 751.474002,94.5673333 750.982,94.5673333 C750.501998,94.5673333 750.094002,94.399335 749.758,94.0633333 C749.421998,93.7273317 749.254,93.3133358 749.254,92.8213333 Z M762.458,93.0373333 C763.094003,93.0373333 763.594998,92.9233345 763.961,92.6953333 C764.327002,92.4673322 764.51,92.1553353 764.51,91.7593333 C764.51,91.483332 764.456001,91.2583342 764.348,91.0843333 C764.239999,90.9103325 764.024002,90.7483341 763.7,90.5983333 C763.375998,90.4483326 762.890003,90.2893342 762.242,90.1213333 C761.197995,89.857332 760.415003,89.5183354 759.893,89.1043333 C759.370997,88.6903313 759.11,88.0933372 759.11,87.3133333 C759.11,86.4853292 759.451997,85.8223358 760.136,85.3243333 C760.820003,84.8263308 761.743994,84.5773333 762.908,84.5773333 C764.312007,84.5773333 765.517995,84.9433297 766.526,85.6753333 L765.662,86.9533333 C764.809996,86.3893305 763.910005,86.1073333 762.962,86.1073333 C761.761994,86.1073333 761.162,86.4553299 761.162,87.1513333 C761.162,87.3913345 761.230999,87.5893326 761.369,87.7453333 C761.507001,87.9013341 761.743998,88.0483326 762.08,88.1863333 C762.416002,88.324334 762.913997,88.4833324 763.574,88.6633333 C764.606005,88.9513348 765.376997,89.3053312 765.887,89.7253333 C766.397003,90.1453354 766.652,90.7753291 766.652,91.6153333 C766.652,92.5873382 766.250004,93.3223308 765.446,93.8203333 C764.641996,94.3183358 763.646006,94.5673333 762.458,94.5673333 C760.885992,94.5673333 759.584005,94.1233378 758.552,93.2353333 L759.614,92.0113333 C760.010002,92.3233349 760.450998,92.5723324 760.937,92.7583333 C761.423002,92.9443343 761.929997,93.0373333 762.458,93.0373333 Z M778.74,93.8293333 C778.379998,94.0573345 777.960002,94.2373327 777.48,94.3693333 C776.999998,94.501334 776.496003,94.5673333 775.968,94.5673333 C774.887995,94.5673333 774.054003,94.2883361 773.466,93.7303333 C772.877997,93.1723305 772.584,92.4133381 772.584,91.4533333 L772.584,86.3053333 L770.478,86.3053333 L770.478,84.8293333 L772.584,84.8293333 L772.584,82.7053333 L774.6,82.4713333 L774.6,84.8293333 L777.822,84.8293333 L777.588,86.3053333 L774.6,86.3053333 L774.6,91.4353333 C774.6,91.9513359 774.731999,92.3323321 774.996,92.5783333 C775.260001,92.8243346 775.679997,92.9473333 776.256,92.9473333 C776.892003,92.9473333 777.479997,92.7973348 778.02,92.4973333 L778.74,93.8293333 Z M789.874,92.0113333 C789.874,92.3713351 789.927999,92.6383325 790.036,92.8123333 C790.144001,92.9863342 790.329999,93.1153329 790.594,93.1993333 L790.126,94.5673333 C789.129995,94.4473327 788.476002,94.0093371 788.164,93.2533333 C787.815998,93.6853355 787.381003,94.0123322 786.859,94.2343333 C786.336997,94.4563344 785.764003,94.5673333 785.14,94.5673333 C784.179995,94.5673333 783.418003,94.297336 782.854,93.7573333 C782.289997,93.2173306 782.008,92.5033378 782.008,91.6153333 C782.008,90.6193284 782.400996,89.851336 783.187,89.3113333 C783.973004,88.7713306 785.085993,88.5013333 786.526,88.5013333 L787.876,88.5013333 L787.876,87.8893333 C787.876,87.2893303 787.696002,86.8513347 787.336,86.5753333 C786.975998,86.299332 786.454003,86.1613333 785.77,86.1613333 C785.433998,86.1613333 785.044002,86.2033329 784.6,86.2873333 C784.155998,86.3713338 783.706002,86.4913326 783.25,86.6473333 L782.746,85.2253333 C783.886006,84.7933312 784.995995,84.5773333 786.076,84.5773333 C787.336006,84.5773333 788.283997,84.8533306 788.92,85.4053333 C789.556003,85.9573361 789.874,86.7433282 789.874,87.7633333 L789.874,92.0113333 Z M785.734,93.0913333 C786.154002,93.0913333 786.558998,92.9833344 786.949,92.7673333 C787.339002,92.5513323 787.647999,92.2513353 787.876,91.8673333 L787.876,89.7613333 L786.76,89.7613333 C785.847995,89.7613333 785.182002,89.9143318 784.762,90.2203333 C784.341998,90.5263349 784.132,90.9673305 784.132,91.5433333 C784.132,92.0473359 784.266999,92.431332 784.537,92.6953333 C784.807001,92.9593347 785.205997,93.0913333 785.734,93.0913333 Z M798.992,92.9113333 C799.748004,92.9113333 800.527996,92.641336 801.332,92.1013333 L802.25,93.3973333 C801.829998,93.7573351 801.326003,94.0423323 800.738,94.2523333 C800.149997,94.4623344 799.544003,94.5673333 798.92,94.5673333 C797.467993,94.5673333 796.334004,94.1203378 795.518,93.2263333 C794.701996,92.3323289 794.294,91.1353408 794.294,89.6353333 C794.294,88.6633285 794.479998,87.7963371 794.852,87.0343333 C795.224002,86.2723295 795.760996,85.6723355 796.463,85.2343333 C797.165004,84.7963311 797.995995,84.5773333 798.956,84.5773333 C800.216006,84.5773333 801.313995,84.9613295 802.25,85.7293333 L801.314,86.9893333 C800.545996,86.4613307 799.772004,86.1973333 798.992,86.1973333 C798.199996,86.1973333 797.576002,86.4823305 797.12,87.0523333 C796.663998,87.6223362 796.436,88.4833276 796.436,89.6353333 C796.436,90.763339 796.663998,91.5913307 797.12,92.1193333 C797.576002,92.647336 798.199996,92.9113333 798.992,92.9113333 Z M808.272,94.3333333 L806.256,94.3333333 L806.256,81.0133333 L808.272,80.7793333 L808.272,94.3333333 Z M810.738,89.0773333 L814.968,94.3333333 L812.502,94.3333333 L808.416,89.1313333 L812.232,84.8293333 L814.572,84.8293333 L810.738,89.0773333 Z" id="--ReactNative.iOS.st" fill="#3D3E3F"></path>
    </g>
</svg>