<?xml version="1.0" encoding="UTF-8"?>
<svg width="980px" height="200px" viewBox="0 0 980 200" version="1.1" xmlns="http://www.w3.org/2000/svg" xmlns:xlink="http://www.w3.org/1999/xlink">
    <!-- Generator: Sketch 43.1 (39012) - http://www.bohemiancoding.com/sketch -->
    <title>stack</title>
    <desc>Created with Sketch.</desc>
    <defs></defs>
    <g id="gitignore-templates" stroke="none" stroke-width="1" fill="none" fill-rule="evenodd">
        <g id="stack">
            <g id="Group" transform="translate(438.000000, -3.000000)">
                <path d="M23.1069048,142.116503 C24.9626971,133.473584 33.4683854,124.963813 42.1165029,123.106905 L76.6766197,115.686218 C85.3195386,113.830426 90.8227081,119.32728 88.9657996,127.975398 L81.5451125,162.535514 C79.6893203,171.178433 71.1836319,179.688204 62.5355145,181.545113 L27.9753976,188.9658 C19.3324788,190.821592 13.8293093,185.324737 15.6862178,176.67662 L23.1069048,142.116503 Z" id="Rectangle" fill="#F44336" opacity="0.1" transform="translate(52.326009, 152.326009) rotate(45.000000) translate(-52.326009, -152.326009) "></path>
                <path d="M23.1069048,122.116503 C24.9626971,113.473584 33.4683854,104.963813 42.1165029,103.106905 L76.6766197,95.6862178 C85.3195386,93.8304255 90.8227081,99.3272802 88.9657996,107.975398 L81.5451125,142.535514 C79.6893203,151.178433 71.1836319,159.688204 62.5355145,161.545113 L27.9753976,168.9658 C19.3324788,170.821592 13.8293093,165.324737 15.6862178,156.67662 L23.1069048,122.116503 Z" id="Rectangle-Copy" fill="#9C27B0" opacity="0.1" transform="translate(52.326009, 132.326009) rotate(45.000000) translate(-52.326009, -132.326009) "></path>
                <path d="M23.1069048,102.116503 C24.9626971,93.473584 33.4683854,84.9638133 42.1165029,83.1069048 L76.6766197,75.6862178 C85.3195386,73.8304255 90.8227081,79.3272802 88.9657996,87.9753976 L81.5451125,122.535514 C79.6893203,131.178433 71.1836319,139.688204 62.5355145,141.545113 L27.9753976,148.9658 C19.3324788,150.821592 13.8293093,145.324737 15.6862178,136.67662 L23.1069048,102.116503 Z" id="Rectangle-Copy-2" fill="#2196F3" opacity="0.5" transform="translate(52.326009, 112.326009) rotate(45.000000) translate(-52.326009, -112.326009) "></path>
                <path d="M23.1069048,82.1165029 C24.9626971,73.473584 33.4683854,64.9638133 42.1165029,63.1069048 L76.6766197,55.6862178 C85.3195386,53.8304255 90.8227081,59.3272802 88.9657996,67.9753976 L81.5451125,102.535514 C79.6893203,111.178433 71.1836319,119.688204 62.5355145,121.545113 L27.9753976,128.9658 C19.3324788,130.821592 13.8293093,125.324737 15.6862178,116.67662 L23.1069048,82.1165029 Z" id="Rectangle-Copy-3" fill="#2196F3" opacity="0.5" transform="translate(52.326009, 92.326009) rotate(45.000000) translate(-52.326009, -92.326009) "></path>
                <path d="M23.1069048,62.1165029 C24.9626971,53.473584 33.4683854,44.9638133 42.1165029,43.1069048 L76.6766197,35.6862178 C85.3195386,33.8304255 90.8227081,39.3272802 88.9657996,47.9753976 L81.5451125,82.5355145 C79.6893203,91.1784334 71.1836319,99.6882041 62.5355145,101.545113 L27.9753976,108.9658 C19.3324788,110.821592 13.8293093,105.324737 15.6862178,96.6766197 L23.1069048,62.1165029 Z" id="Rectangle-Copy-4" fill="#2196F3" opacity="0.5" transform="translate(52.326009, 72.326009) rotate(45.000000) translate(-52.326009, -72.326009) "></path>
                <path d="M23.1069048,42.1165029 C24.9626971,33.473584 33.4683854,24.9638133 42.1165029,23.1069048 L76.6766197,15.6862178 C85.3195386,13.8304255 90.8227081,19.3272802 88.9657996,27.9753976 L81.5451125,62.5355145 C79.6893203,71.1784334 71.1836319,79.6882041 62.5355145,81.5451125 L27.9753976,88.9657996 C19.3324788,90.8215918 13.8293093,85.3247372 15.6862178,76.6766197 L23.1069048,42.1165029 Z" id="Rectangle-Copy-5" fill="#2196F3" opacity="0.5" transform="translate(52.326009, 52.326009) rotate(45.000000) translate(-52.326009, -52.326009) "></path>
            </g>
            <path d="M551.72,109.46 L545.38,109.46 L545.38,110.84 L551.6,110.84 L551.72,109.46 Z M573.56,116.2 L571.04,111.4 L568.5,111.48 L568.5,116 L566.84,116 L566.84,103.62 C572.54,102.78 574.46,104.42 574.46,106.96 C574.46,108.6 573.58,109.72 572.38,110.58 L575.34,115.94 L573.56,116.2 Z M568.5,104.9 L568.5,110.26 L571.2,110.18 C572.16,109.54 572.82,108.58 572.82,107.32 C572.82,105.52 571.52,104.46 568.5,104.9 Z M585.12,116.22 C578.98,116.2 577.32,114.42 577.32,111.24 C577.32,108.26 579.4,105.96 581.94,105.96 C584.62,105.96 585.98,108.12 585.62,111.36 L578.92,111.52 C579.08,113.84 580.54,114.72 585.28,114.84 L585.12,116.22 Z M581.66,107.3 C580.04,107.3 579.04,108.42 578.92,110.52 C580.04,110.48 582.72,110.4 584.1,110.36 C584.08,108.48 583.3,107.3 581.66,107.3 Z M591.96,114.96 C592.94,114.96 593.98,114.5 594.74,113.9 C594.72,113.26 594.7,112.54 594.7,111.58 C591.12,111.2 589.94,111.98 589.94,113.32 C589.94,114.36 590.74,114.96 591.96,114.96 Z M594.96,116.06 C594.94,115.86 594.86,115.24 594.82,114.8 C594.02,115.54 592.88,116.24 591.34,116.24 C589.56,116.24 588.34,115.28 588.34,113.7 C588.34,111.68 590.34,110.16 594.68,110.42 C594.54,108.16 593.3,107.58 588.92,107.42 L589.1,106.02 C594.76,106.18 596.28,107.36 596.28,111.14 C596.28,113.18 596.36,114.56 596.44,115.96 L594.96,116.06 Z M599.6,111.26 C599.6,114.26 601.26,116.48 607.2,116.08 L607.38,114.72 C602.58,114.94 601.2,113.62 601.2,111.04 C601.2,108.96 602.18,107.58 607.24,107.6 L607.12,106.06 C601.42,106.18 599.6,108.56 599.6,111.26 Z M618.2,116.16 L618.38,114.8 C615.1,114.74 614.16,114.3 614.16,112.6 L614.16,107.46 L618.16,107.46 L618.16,106.2 L614.16,106.2 L614.16,103.34 L612.54,103.48 L612.54,106.2 L610.68,106.2 L610.52,107.46 L612.54,107.46 L612.54,112.86 C612.54,115.28 613.96,116.22 618.2,116.16 Z M627.84,116 L629.42,116 L629.42,103.6 L627.86,103.6 L627.92,113.04 L627.84,113.04 L623.34,103.6 L621.6,103.6 L621.6,116 L623.14,116 L623.08,106.38 L623.18,106.38 L627.84,116 Z M635.96,114.96 C636.94,114.96 637.98,114.5 638.74,113.9 C638.72,113.26 638.7,112.54 638.7,111.58 C635.12,111.2 633.94,111.98 633.94,113.32 C633.94,114.36 634.74,114.96 635.96,114.96 Z M638.96,116.06 C638.94,115.86 638.86,115.24 638.82,114.8 C638.02,115.54 636.88,116.24 635.34,116.24 C633.56,116.24 632.34,115.28 632.34,113.7 C632.34,111.68 634.34,110.16 638.68,110.42 C638.54,108.16 637.3,107.58 632.92,107.42 L633.1,106.02 C638.76,106.18 640.28,107.36 640.28,111.14 C640.28,113.18 640.36,114.56 640.44,115.96 L638.96,116.06 Z M651.2,116.16 L651.38,114.8 C648.1,114.74 647.16,114.3 647.16,112.6 L647.16,107.46 L651.16,107.46 L651.16,106.2 L647.16,106.2 L647.16,103.34 L645.54,103.48 L645.54,106.2 L643.68,106.2 L643.52,107.46 L645.54,107.46 L645.54,112.86 C645.54,115.28 646.96,116.22 651.2,116.16 Z M659.64,104.62 L659.82,101.9 L658.1,101.9 L657.98,104.62 L659.64,104.62 Z M663.28,116 L663.4,114.76 L659.72,114.76 L659.72,106.2 L654.56,106.2 L654.44,107.34 L658.1,107.5 L658.1,114.76 L654.42,114.76 L654.42,116 L663.28,116 Z M669.62,114.48 L669.46,114.48 C668.38,111.7 667.4,108.9 666.5,106.16 L664.88,106.26 C665.96,109.52 667.16,112.8 668.48,116.08 L670.52,116.08 C671.84,112.82 673.1,109.48 674.18,106.2 L672.54,106.2 C671.66,108.94 670.7,111.72 669.62,114.48 Z M684.12,116.22 C677.98,116.2 676.32,114.42 676.32,111.24 C676.32,108.26 678.4,105.96 680.94,105.96 C683.62,105.96 684.98,108.12 684.62,111.36 L677.92,111.52 C678.08,113.84 679.54,114.72 684.28,114.84 L684.12,116.22 Z M680.66,107.3 C679.04,107.3 678.04,108.42 677.92,110.52 C679.04,110.48 681.72,110.4 683.1,110.36 C683.08,108.48 682.3,107.3 680.66,107.3 Z M692.58,116 L692.7,113.68 L690.32,113.68 L690.2,116 L692.58,116 Z M704.84,116 L706.42,116 L706.42,103.6 L704.86,103.6 L704.92,113.04 L704.84,113.04 L700.34,103.6 L698.6,103.6 L698.6,116 L700.14,116 L700.08,106.38 L700.18,106.38 L704.84,116 Z M713.28,116.28 C710.86,116.28 709.1,114.44 709.1,111.28 C709.1,108.1 711.22,105.94 713.74,105.94 C716.18,105.94 717.9,107.78 717.9,110.92 C717.9,114.16 715.8,116.28 713.28,116.28 Z M713.54,114.94 C715.16,114.94 716.28,113.64 716.28,111.22 C716.28,108.68 715.14,107.26 713.46,107.26 C711.86,107.26 710.74,108.58 710.74,110.98 C710.74,113.54 711.88,114.94 713.54,114.94 Z M724.42,114.9 C725.24,114.9 726,114.54 726.6,114.06 C726.56,112.36 726.54,110.38 726.54,107.64 C725.98,107.46 725.44,107.36 724.92,107.36 C723.12,107.36 721.72,108.7 721.72,111.18 C721.72,113.68 722.84,114.9 724.42,114.9 Z M726.78,116.04 L726.68,115.02 C725.98,115.68 725,116.24 723.8,116.24 C721.68,116.24 720.12,114.5 720.12,111.6 C720.12,108.02 722.68,105.98 725.66,105.98 C725.96,105.98 726.26,106 726.54,106.04 L726.54,102.02 L728.16,101.88 L728.16,106.24 C728.16,110.64 728.2,113.74 728.3,115.96 L726.78,116.04 Z M739.12,116.22 C732.98,116.2 731.32,114.42 731.32,111.24 C731.32,108.26 733.4,105.96 735.94,105.96 C738.62,105.96 739.98,108.12 739.62,111.36 L732.92,111.52 C733.08,113.84 734.54,114.72 739.28,114.84 L739.12,116.22 Z M735.66,107.3 C734.04,107.3 733.04,108.42 732.92,110.52 C734.04,110.48 736.72,110.4 738.1,110.36 C738.08,108.48 737.3,107.3 735.66,107.3 Z M747.58,116 L747.7,113.68 L745.32,113.68 L745.2,116 L747.58,116 Z M760.74,106.12 C755.74,105.74 754.06,107.34 754.06,108.9 C754.06,111.36 759.54,111.64 759.54,113.38 C759.54,114.26 758.32,114.98 754.04,114.64 L753.98,116.08 C759.48,116.38 761.22,114.84 761.22,113.24 C761.22,110.74 755.7,110.3 755.7,108.68 C755.7,107.88 756.78,107.2 760.8,107.56 L760.74,106.12 Z M772.2,116.16 L772.38,114.8 C769.1,114.74 768.16,114.3 768.16,112.6 L768.16,107.46 L772.16,107.46 L772.16,106.2 L768.16,106.2 L768.16,103.34 L766.54,103.48 L766.54,106.2 L764.68,106.2 L764.52,107.46 L766.54,107.46 L766.54,112.86 C766.54,115.28 767.96,116.22 772.2,116.16 Z M778.96,114.96 C779.94,114.96 780.98,114.5 781.74,113.9 C781.72,113.26 781.7,112.54 781.7,111.58 C778.12,111.2 776.94,111.98 776.94,113.32 C776.94,114.36 777.74,114.96 778.96,114.96 Z M781.96,116.06 C781.94,115.86 781.86,115.24 781.82,114.8 C781.02,115.54 779.88,116.24 778.34,116.24 C776.56,116.24 775.34,115.28 775.34,113.7 C775.34,111.68 777.34,110.16 781.68,110.42 C781.54,108.16 780.3,107.58 775.92,107.42 L776.1,106.02 C781.76,106.18 783.28,107.36 783.28,111.14 C783.28,113.18 783.36,114.56 783.44,115.96 L781.96,116.06 Z M786.6,111.26 C786.6,114.26 788.26,116.48 794.2,116.08 L794.38,114.72 C789.58,114.94 788.2,113.62 788.2,111.04 C788.2,108.96 789.18,107.58 794.24,107.6 L794.12,106.06 C788.42,106.18 786.6,108.56 786.6,111.26 Z M804.56,116.12 L806.28,115.88 L802.52,110.9 C803.76,109.44 804.94,107.86 806.06,106.28 L804.4,106.16 C803.38,107.66 802.32,109.04 801.16,110.4 L799.64,110.44 L799.64,101.88 L798.02,102.02 L798.02,116 L799.64,116 L799.64,111.64 L801.1,111.6 L804.56,116.12 Z" id="--ReactNative.Node.s" fill="#171219"></path>
            <path d="M551.72,88.46 L545.38,88.46 L545.38,89.84 L551.6,89.84 L551.72,88.46 Z M573.56,95.2 L571.04,90.4 L568.5,90.48 L568.5,95 L566.84,95 L566.84,82.62 C572.54,81.78 574.46,83.42 574.46,85.96 C574.46,87.6 573.58,88.72 572.38,89.58 L575.34,94.94 L573.56,95.2 Z M568.5,83.9 L568.5,89.26 L571.2,89.18 C572.16,88.54 572.82,87.58 572.82,86.32 C572.82,84.52 571.52,83.46 568.5,83.9 Z M585.12,95.22 C578.98,95.2 577.32,93.42 577.32,90.24 C577.32,87.26 579.4,84.96 581.94,84.96 C584.62,84.96 585.98,87.12 585.62,90.36 L578.92,90.52 C579.08,92.84 580.54,93.72 585.28,93.84 L585.12,95.22 Z M581.66,86.3 C580.04,86.3 579.04,87.42 578.92,89.52 C580.04,89.48 582.72,89.4 584.1,89.36 C584.08,87.48 583.3,86.3 581.66,86.3 Z M591.96,93.96 C592.94,93.96 593.98,93.5 594.74,92.9 C594.72,92.26 594.7,91.54 594.7,90.58 C591.12,90.2 589.94,90.98 589.94,92.32 C589.94,93.36 590.74,93.96 591.96,93.96 Z M594.96,95.06 C594.94,94.86 594.86,94.24 594.82,93.8 C594.02,94.54 592.88,95.24 591.34,95.24 C589.56,95.24 588.34,94.28 588.34,92.7 C588.34,90.68 590.34,89.16 594.68,89.42 C594.54,87.16 593.3,86.58 588.92,86.42 L589.1,85.02 C594.76,85.18 596.28,86.36 596.28,90.14 C596.28,92.18 596.36,93.56 596.44,94.96 L594.96,95.06 Z M599.6,90.26 C599.6,93.26 601.26,95.48 607.2,95.08 L607.38,93.72 C602.58,93.94 601.2,92.62 601.2,90.04 C601.2,87.96 602.18,86.58 607.24,86.6 L607.12,85.06 C601.42,85.18 599.6,87.56 599.6,90.26 Z M618.2,95.16 L618.38,93.8 C615.1,93.74 614.16,93.3 614.16,91.6 L614.16,86.46 L618.16,86.46 L618.16,85.2 L614.16,85.2 L614.16,82.34 L612.54,82.48 L612.54,85.2 L610.68,85.2 L610.52,86.46 L612.54,86.46 L612.54,91.86 C612.54,94.28 613.96,95.22 618.2,95.16 Z M627.84,95 L629.42,95 L629.42,82.6 L627.86,82.6 L627.92,92.04 L627.84,92.04 L623.34,82.6 L621.6,82.6 L621.6,95 L623.14,95 L623.08,85.38 L623.18,85.38 L627.84,95 Z M635.96,93.96 C636.94,93.96 637.98,93.5 638.74,92.9 C638.72,92.26 638.7,91.54 638.7,90.58 C635.12,90.2 633.94,90.98 633.94,92.32 C633.94,93.36 634.74,93.96 635.96,93.96 Z M638.96,95.06 C638.94,94.86 638.86,94.24 638.82,93.8 C638.02,94.54 636.88,95.24 635.34,95.24 C633.56,95.24 632.34,94.28 632.34,92.7 C632.34,90.68 634.34,89.16 638.68,89.42 C638.54,87.16 637.3,86.58 632.92,86.42 L633.1,85.02 C638.76,85.18 640.28,86.36 640.28,90.14 C640.28,92.18 640.36,93.56 640.44,94.96 L638.96,95.06 Z M651.2,95.16 L651.38,93.8 C648.1,93.74 647.16,93.3 647.16,91.6 L647.16,86.46 L651.16,86.46 L651.16,85.2 L647.16,85.2 L647.16,82.34 L645.54,82.48 L645.54,85.2 L643.68,85.2 L643.52,86.46 L645.54,86.46 L645.54,91.86 C645.54,94.28 646.96,95.22 651.2,95.16 Z M659.64,83.62 L659.82,80.9 L658.1,80.9 L657.98,83.62 L659.64,83.62 Z M663.28,95 L663.4,93.76 L659.72,93.76 L659.72,85.2 L654.56,85.2 L654.44,86.34 L658.1,86.5 L658.1,93.76 L654.42,93.76 L654.42,95 L663.28,95 Z M669.62,93.48 L669.46,93.48 C668.38,90.7 667.4,87.9 666.5,85.16 L664.88,85.26 C665.96,88.52 667.16,91.8 668.48,95.08 L670.52,95.08 C671.84,91.82 673.1,88.48 674.18,85.2 L672.54,85.2 C671.66,87.94 670.7,90.72 669.62,93.48 Z M684.12,95.22 C677.98,95.2 676.32,93.42 676.32,90.24 C676.32,87.26 678.4,84.96 680.94,84.96 C683.62,84.96 684.98,87.12 684.62,90.36 L677.92,90.52 C678.08,92.84 679.54,93.72 684.28,93.84 L684.12,95.22 Z M680.66,86.3 C679.04,86.3 678.04,87.42 677.92,89.52 C679.04,89.48 681.72,89.4 683.1,89.36 C683.08,87.48 682.3,86.3 680.66,86.3 Z M692.58,95 L692.7,92.68 L690.32,92.68 L690.2,95 L692.58,95 Z M703.64,83.62 L703.82,80.9 L702.1,80.9 L701.98,83.62 L703.64,83.62 Z M707.28,95 L707.4,93.76 L703.72,93.76 L703.72,85.2 L698.56,85.2 L698.44,86.34 L702.1,86.5 L702.1,93.76 L698.42,93.76 L698.42,95 L707.28,95 Z M713.28,95.3 C710.52,95.3 708.92,93.06 708.92,89.08 C708.92,84.7 710.78,82.3 713.72,82.3 C716.5,82.3 718.08,84.52 718.08,88.52 C718.1,92.88 716.22,95.3 713.28,95.3 Z M713.44,83.68 C711.58,83.68 710.62,85.4 710.62,88.72 C710.62,92.12 711.64,93.92 713.56,93.92 C715.4,93.92 716.38,92.2 716.38,88.88 C716.38,85.48 715.34,83.68 713.44,83.68 Z M720.72,93.58 L720.7,95.12 C726.44,95.44 728.58,93.42 728.58,91.52 C728.58,88.56 722.4,87.7 722.4,85.56 C722.4,84.54 723.54,83.74 727.88,84.04 L727.78,82.5 C722.68,82.22 720.7,84.06 720.7,85.82 C720.7,88.72 726.88,89.48 726.88,91.76 C726.88,92.94 725.24,93.96 720.72,93.58 Z M736.58,95 L736.7,92.68 L734.32,92.68 L734.2,95 L736.58,95 Z M749.74,85.12 C744.74,84.74 743.06,86.34 743.06,87.9 C743.06,90.36 748.54,90.64 748.54,92.38 C748.54,93.26 747.32,93.98 743.04,93.64 L742.98,95.08 C748.48,95.38 750.22,93.84 750.22,92.24 C750.22,89.74 744.7,89.3 744.7,87.68 C744.7,86.88 745.78,86.2 749.8,86.56 L749.74,85.12 Z M761.2,95.16 L761.38,93.8 C758.1,93.74 757.16,93.3 757.16,91.6 L757.16,86.46 L761.16,86.46 L761.16,85.2 L757.16,85.2 L757.16,82.34 L755.54,82.48 L755.54,85.2 L753.68,85.2 L753.52,86.46 L755.54,86.46 L755.54,91.86 C755.54,94.28 756.96,95.22 761.2,95.16 Z M767.96,93.96 C768.94,93.96 769.98,93.5 770.74,92.9 C770.72,92.26 770.7,91.54 770.7,90.58 C767.12,90.2 765.94,90.98 765.94,92.32 C765.94,93.36 766.74,93.96 767.96,93.96 Z M770.96,95.06 C770.94,94.86 770.86,94.24 770.82,93.8 C770.02,94.54 768.88,95.24 767.34,95.24 C765.56,95.24 764.34,94.28 764.34,92.7 C764.34,90.68 766.34,89.16 770.68,89.42 C770.54,87.16 769.3,86.58 764.92,86.42 L765.1,85.02 C770.76,85.18 772.28,86.36 772.28,90.14 C772.28,92.18 772.36,93.56 772.44,94.96 L770.96,95.06 Z M775.6,90.26 C775.6,93.26 777.26,95.48 783.2,95.08 L783.38,93.72 C778.58,93.94 777.2,92.62 777.2,90.04 C777.2,87.96 778.18,86.58 783.24,86.6 L783.12,85.06 C777.42,85.18 775.6,87.56 775.6,90.26 Z M793.56,95.12 L795.28,94.88 L791.52,89.9 C792.76,88.44 793.94,86.86 795.06,85.28 L793.4,85.16 C792.38,86.66 791.32,88.04 790.16,89.4 L788.64,89.44 L788.64,80.88 L787.02,81.02 L787.02,95 L788.64,95 L788.64,90.64 L790.1,90.6 L793.56,95.12 Z" id="--ReactNative.iOS.st" fill="#171219"></path>
            <path d="M551.72,67.46 L545.38,67.46 L545.38,68.84 L551.6,68.84 L551.72,67.46 Z M573.56,74.2 L571.04,69.4 L568.5,69.48 L568.5,74 L566.84,74 L566.84,61.62 C572.54,60.78 574.46,62.42 574.46,64.96 C574.46,66.6 573.58,67.72 572.38,68.58 L575.34,73.94 L573.56,74.2 Z M568.5,62.9 L568.5,68.26 L571.2,68.18 C572.16,67.54 572.82,66.58 572.82,65.32 C572.82,63.52 571.52,62.46 568.5,62.9 Z M585.12,74.22 C578.98,74.2 577.32,72.42 577.32,69.24 C577.32,66.26 579.4,63.96 581.94,63.96 C584.62,63.96 585.98,66.12 585.62,69.36 L578.92,69.52 C579.08,71.84 580.54,72.72 585.28,72.84 L585.12,74.22 Z M581.66,65.3 C580.04,65.3 579.04,66.42 578.92,68.52 C580.04,68.48 582.72,68.4 584.1,68.36 C584.08,66.48 583.3,65.3 581.66,65.3 Z M591.96,72.96 C592.94,72.96 593.98,72.5 594.74,71.9 C594.72,71.26 594.7,70.54 594.7,69.58 C591.12,69.2 589.94,69.98 589.94,71.32 C589.94,72.36 590.74,72.96 591.96,72.96 Z M594.96,74.06 C594.94,73.86 594.86,73.24 594.82,72.8 C594.02,73.54 592.88,74.24 591.34,74.24 C589.56,74.24 588.34,73.28 588.34,71.7 C588.34,69.68 590.34,68.16 594.68,68.42 C594.54,66.16 593.3,65.58 588.92,65.42 L589.1,64.02 C594.76,64.18 596.28,65.36 596.28,69.14 C596.28,71.18 596.36,72.56 596.44,73.96 L594.96,74.06 Z M599.6,69.26 C599.6,72.26 601.26,74.48 607.2,74.08 L607.38,72.72 C602.58,72.94 601.2,71.62 601.2,69.04 C601.2,66.96 602.18,65.58 607.24,65.6 L607.12,64.06 C601.42,64.18 599.6,66.56 599.6,69.26 Z M618.2,74.16 L618.38,72.8 C615.1,72.74 614.16,72.3 614.16,70.6 L614.16,65.46 L618.16,65.46 L618.16,64.2 L614.16,64.2 L614.16,61.34 L612.54,61.48 L612.54,64.2 L610.68,64.2 L610.52,65.46 L612.54,65.46 L612.54,70.86 C612.54,73.28 613.96,74.22 618.2,74.16 Z M627.84,74 L629.42,74 L629.42,61.6 L627.86,61.6 L627.92,71.04 L627.84,71.04 L623.34,61.6 L621.6,61.6 L621.6,74 L623.14,74 L623.08,64.38 L623.18,64.38 L627.84,74 Z M635.96,72.96 C636.94,72.96 637.98,72.5 638.74,71.9 C638.72,71.26 638.7,70.54 638.7,69.58 C635.12,69.2 633.94,69.98 633.94,71.32 C633.94,72.36 634.74,72.96 635.96,72.96 Z M638.96,74.06 C638.94,73.86 638.86,73.24 638.82,72.8 C638.02,73.54 636.88,74.24 635.34,74.24 C633.56,74.24 632.34,73.28 632.34,71.7 C632.34,69.68 634.34,68.16 638.68,68.42 C638.54,66.16 637.3,65.58 632.92,65.42 L633.1,64.02 C638.76,64.18 640.28,65.36 640.28,69.14 C640.28,71.18 640.36,72.56 640.44,73.96 L638.96,74.06 Z M651.2,74.16 L651.38,72.8 C648.1,72.74 647.16,72.3 647.16,70.6 L647.16,65.46 L651.16,65.46 L651.16,64.2 L647.16,64.2 L647.16,61.34 L645.54,61.48 L645.54,64.2 L643.68,64.2 L643.52,65.46 L645.54,65.46 L645.54,70.86 C645.54,73.28 646.96,74.22 651.2,74.16 Z M659.64,62.62 L659.82,59.9 L658.1,59.9 L657.98,62.62 L659.64,62.62 Z M663.28,74 L663.4,72.76 L659.72,72.76 L659.72,64.2 L654.56,64.2 L654.44,65.34 L658.1,65.5 L658.1,72.76 L654.42,72.76 L654.42,74 L663.28,74 Z M669.62,72.48 L669.46,72.48 C668.38,69.7 667.4,66.9 666.5,64.16 L664.88,64.26 C665.96,67.52 667.16,70.8 668.48,74.08 L670.52,74.08 C671.84,70.82 673.1,67.48 674.18,64.2 L672.54,64.2 C671.66,66.94 670.7,69.72 669.62,72.48 Z M684.12,74.22 C677.98,74.2 676.32,72.42 676.32,69.24 C676.32,66.26 678.4,63.96 680.94,63.96 C683.62,63.96 684.98,66.12 684.62,69.36 L677.92,69.52 C678.08,71.84 679.54,72.72 684.28,72.84 L684.12,74.22 Z M680.66,65.3 C679.04,65.3 678.04,66.42 677.92,68.52 C679.04,68.48 681.72,68.4 683.1,68.36 C683.08,66.48 682.3,65.3 680.66,65.3 Z M692.58,74 L692.7,71.68 L690.32,71.68 L690.2,74 L692.58,74 Z M706.9,70.46 C706.92,73.64 703.44,74.6 698.9,74 L698.9,61.6 C703.54,61.06 706.5,61.76 706.5,64.46 C706.5,66.06 705.5,67.04 704.12,67.52 C705.84,67.86 706.9,68.78 706.9,70.46 Z M700.54,62.86 L700.54,67.16 C703.76,67.26 704.9,66.52 704.9,64.86 C704.9,63.1 703.2,62.56 700.54,62.86 Z M700.54,72.72 C703.46,73.12 705.26,72.58 705.26,70.56 C705.26,68.68 703.68,68.26 700.54,68.38 L700.54,72.72 Z M715.88,74.04 L717.38,73.94 C717.28,71.68 717.24,68.48 717.24,64.2 L715.62,64.2 C715.62,67.64 715.66,70.2 715.7,71.96 C714.96,72.5 714.14,72.86 713.2,72.86 C711.98,72.86 711.26,72.22 711.26,70.3 L711.26,64.14 L709.64,64.26 L709.64,70.84 C709.64,73.26 710.78,74.24 712.52,74.24 C713.92,74.24 714.96,73.6 715.78,72.92 L715.88,74.04 Z M720.6,69.26 C720.6,72.26 722.26,74.48 728.2,74.08 L728.38,72.72 C723.58,72.94 722.2,71.62 722.2,69.04 C722.2,66.96 723.18,65.58 728.24,65.6 L728.12,64.06 C722.42,64.18 720.6,66.56 720.6,69.26 Z M738.56,74.12 L740.28,73.88 L736.52,68.9 C737.76,67.44 738.94,65.86 740.06,64.28 L738.4,64.16 C737.38,65.66 736.32,67.04 735.16,68.4 L733.64,68.44 L733.64,59.88 L732.02,60.02 L732.02,74 L733.64,74 L733.64,69.64 L735.1,69.6 L738.56,74.12 Z M747.58,74 L747.7,71.68 L745.32,71.68 L745.2,74 L747.58,74 Z M760.74,64.12 C755.74,63.74 754.06,65.34 754.06,66.9 C754.06,69.36 759.54,69.64 759.54,71.38 C759.54,72.26 758.32,72.98 754.04,72.64 L753.98,74.08 C759.48,74.38 761.22,72.84 761.22,71.24 C761.22,68.74 755.7,68.3 755.7,66.68 C755.7,65.88 756.78,65.2 760.8,65.56 L760.74,64.12 Z M772.2,74.16 L772.38,72.8 C769.1,72.74 768.16,72.3 768.16,70.6 L768.16,65.46 L772.16,65.46 L772.16,64.2 L768.16,64.2 L768.16,61.34 L766.54,61.48 L766.54,64.2 L764.68,64.2 L764.52,65.46 L766.54,65.46 L766.54,70.86 C766.54,73.28 767.96,74.22 772.2,74.16 Z M778.96,72.96 C779.94,72.96 780.98,72.5 781.74,71.9 C781.72,71.26 781.7,70.54 781.7,69.58 C778.12,69.2 776.94,69.98 776.94,71.32 C776.94,72.36 777.74,72.96 778.96,72.96 Z M781.96,74.06 C781.94,73.86 781.86,73.24 781.82,72.8 C781.02,73.54 779.88,74.24 778.34,74.24 C776.56,74.24 775.34,73.28 775.34,71.7 C775.34,69.68 777.34,68.16 781.68,68.42 C781.54,66.16 780.3,65.58 775.92,65.42 L776.1,64.02 C781.76,64.18 783.28,65.36 783.28,69.14 C783.28,71.18 783.36,72.56 783.44,73.96 L781.96,74.06 Z M786.6,69.26 C786.6,72.26 788.26,74.48 794.2,74.08 L794.38,72.72 C789.58,72.94 788.2,71.62 788.2,69.04 C788.2,66.96 789.18,65.58 794.24,65.6 L794.12,64.06 C788.42,64.18 786.6,66.56 786.6,69.26 Z M804.56,74.12 L806.28,73.88 L802.52,68.9 C803.76,67.44 804.94,65.86 806.06,64.28 L804.4,64.16 C803.38,65.66 802.32,67.04 801.16,68.4 L799.64,68.44 L799.64,59.88 L798.02,60.02 L798.02,74 L799.64,74 L799.64,69.64 L801.1,69.6 L804.56,74.12 Z" id="--ReactNative.Buck.s" fill="#171219"></path>
            <path d="M551.72,46.46 L545.38,46.46 L545.38,47.84 L551.6,47.84 L551.72,46.46 Z M573.56,53.2 L571.04,48.4 L568.5,48.48 L568.5,53 L566.84,53 L566.84,40.62 C572.54,39.78 574.46,41.42 574.46,43.96 C574.46,45.6 573.58,46.72 572.38,47.58 L575.34,52.94 L573.56,53.2 Z M568.5,41.9 L568.5,47.26 L571.2,47.18 C572.16,46.54 572.82,45.58 572.82,44.32 C572.82,42.52 571.52,41.46 568.5,41.9 Z M585.12,53.22 C578.98,53.2 577.32,51.42 577.32,48.24 C577.32,45.26 579.4,42.96 581.94,42.96 C584.62,42.96 585.98,45.12 585.62,48.36 L578.92,48.52 C579.08,50.84 580.54,51.72 585.28,51.84 L585.12,53.22 Z M581.66,44.3 C580.04,44.3 579.04,45.42 578.92,47.52 C580.04,47.48 582.72,47.4 584.1,47.36 C584.08,45.48 583.3,44.3 581.66,44.3 Z M591.96,51.96 C592.94,51.96 593.98,51.5 594.74,50.9 C594.72,50.26 594.7,49.54 594.7,48.58 C591.12,48.2 589.94,48.98 589.94,50.32 C589.94,51.36 590.74,51.96 591.96,51.96 Z M594.96,53.06 C594.94,52.86 594.86,52.24 594.82,51.8 C594.02,52.54 592.88,53.24 591.34,53.24 C589.56,53.24 588.34,52.28 588.34,50.7 C588.34,48.68 590.34,47.16 594.68,47.42 C594.54,45.16 593.3,44.58 588.92,44.42 L589.1,43.02 C594.76,43.18 596.28,44.36 596.28,48.14 C596.28,50.18 596.36,51.56 596.44,52.96 L594.96,53.06 Z M599.6,48.26 C599.6,51.26 601.26,53.48 607.2,53.08 L607.38,51.72 C602.58,51.94 601.2,50.62 601.2,48.04 C601.2,45.96 602.18,44.58 607.24,44.6 L607.12,43.06 C601.42,43.18 599.6,45.56 599.6,48.26 Z M618.2,53.16 L618.38,51.8 C615.1,51.74 614.16,51.3 614.16,49.6 L614.16,44.46 L618.16,44.46 L618.16,43.2 L614.16,43.2 L614.16,40.34 L612.54,40.48 L612.54,43.2 L610.68,43.2 L610.52,44.46 L612.54,44.46 L612.54,49.86 C612.54,52.28 613.96,53.22 618.2,53.16 Z M627.84,53 L629.42,53 L629.42,40.6 L627.86,40.6 L627.92,50.04 L627.84,50.04 L623.34,40.6 L621.6,40.6 L621.6,53 L623.14,53 L623.08,43.38 L623.18,43.38 L627.84,53 Z M635.96,51.96 C636.94,51.96 637.98,51.5 638.74,50.9 C638.72,50.26 638.7,49.54 638.7,48.58 C635.12,48.2 633.94,48.98 633.94,50.32 C633.94,51.36 634.74,51.96 635.96,51.96 Z M638.96,53.06 C638.94,52.86 638.86,52.24 638.82,51.8 C638.02,52.54 636.88,53.24 635.34,53.24 C633.56,53.24 632.34,52.28 632.34,50.7 C632.34,48.68 634.34,47.16 638.68,47.42 C638.54,45.16 637.3,44.58 632.92,44.42 L633.1,43.02 C638.76,43.18 640.28,44.36 640.28,48.14 C640.28,50.18 640.36,51.56 640.44,52.96 L638.96,53.06 Z M651.2,53.16 L651.38,51.8 C648.1,51.74 647.16,51.3 647.16,49.6 L647.16,44.46 L651.16,44.46 L651.16,43.2 L647.16,43.2 L647.16,40.34 L645.54,40.48 L645.54,43.2 L643.68,43.2 L643.52,44.46 L645.54,44.46 L645.54,49.86 C645.54,52.28 646.96,53.22 651.2,53.16 Z M659.64,41.62 L659.82,38.9 L658.1,38.9 L657.98,41.62 L659.64,41.62 Z M663.28,53 L663.4,51.76 L659.72,51.76 L659.72,43.2 L654.56,43.2 L654.44,44.34 L658.1,44.5 L658.1,51.76 L654.42,51.76 L654.42,53 L663.28,53 Z M669.62,51.48 L669.46,51.48 C668.38,48.7 667.4,45.9 666.5,43.16 L664.88,43.26 C665.96,46.52 667.16,49.8 668.48,53.08 L670.52,53.08 C671.84,49.82 673.1,46.48 674.18,43.2 L672.54,43.2 C671.66,45.94 670.7,48.72 669.62,51.48 Z M684.12,53.22 C677.98,53.2 676.32,51.42 676.32,48.24 C676.32,45.26 678.4,42.96 680.94,42.96 C683.62,42.96 684.98,45.12 684.62,48.36 L677.92,48.52 C678.08,50.84 679.54,51.72 684.28,51.84 L684.12,53.22 Z M680.66,44.3 C679.04,44.3 678.04,45.42 677.92,47.52 C679.04,47.48 681.72,47.4 683.1,47.36 C683.08,45.48 682.3,44.3 680.66,44.3 Z M692.58,53 L692.7,50.68 L690.32,50.68 L690.2,53 L692.58,53 Z M705.6,53.06 C705.26,51.78 704.92,50.48 704.56,49.2 L700.38,49.2 C700.04,50.46 699.72,51.74 699.38,53 L697.72,53 C698.86,48.86 700.04,44.74 701.34,40.56 L703.66,40.56 C704.96,44.72 706.14,48.8 707.28,52.94 L705.6,53.06 Z M702.4,41.98 C701.82,43.98 701.28,45.96 700.72,47.94 L704.22,47.94 C703.68,45.96 703.14,43.96 702.56,41.98 L702.4,41.98 Z M713.82,44.36 C715.06,44.36 715.8,45.02 715.8,46.9 L715.8,53 L717.42,53 L717.42,46.36 C717.42,43.96 716.26,42.98 714.5,42.98 C713.1,42.98 712.04,43.6 711.22,44.28 L711.12,43.16 L709.62,43.26 C709.72,45.52 709.76,48.72 709.76,53 L711.38,53 C711.38,49.58 711.34,47 711.3,45.22 C712.06,44.7 712.88,44.36 713.82,44.36 Z M724.42,51.9 C725.24,51.9 726,51.54 726.6,51.06 C726.56,49.36 726.54,47.38 726.54,44.64 C725.98,44.46 725.44,44.36 724.92,44.36 C723.12,44.36 721.72,45.7 721.72,48.18 C721.72,50.68 722.84,51.9 724.42,51.9 Z M726.78,53.04 L726.68,52.02 C725.98,52.68 725,53.24 723.8,53.24 C721.68,53.24 720.12,51.5 720.12,48.6 C720.12,45.02 722.68,42.98 725.66,42.98 C725.96,42.98 726.26,43 726.54,43.04 L726.54,39.02 L728.16,38.88 L728.16,43.24 C728.16,47.64 728.2,50.74 728.3,52.96 L726.78,53.04 Z M738.7,53 L738.84,51.76 L735.52,51.76 C735.5,49.48 735.46,47.56 735.44,45.86 C736.52,45.16 737.94,44.72 739.94,44.56 L739.86,42.84 C737.84,43.08 736.34,43.88 735.38,44.88 C735.36,44.42 735.28,43.4 735.26,43.2 L731.46,43.2 L731.34,44.36 L733.82,44.5 C733.88,46.46 733.9,48.76 733.94,51.76 L731.34,51.76 L731.34,53 L738.7,53 Z M746.28,53.28 C743.86,53.28 742.1,51.44 742.1,48.28 C742.1,45.1 744.22,42.94 746.74,42.94 C749.18,42.94 750.9,44.78 750.9,47.92 C750.9,51.16 748.8,53.28 746.28,53.28 Z M746.54,51.94 C748.16,51.94 749.28,50.64 749.28,48.22 C749.28,45.68 748.14,44.26 746.46,44.26 C744.86,44.26 743.74,45.58 743.74,47.98 C743.74,50.54 744.88,51.94 746.54,51.94 Z M758.64,41.62 L758.82,38.9 L757.1,38.9 L756.98,41.62 L758.64,41.62 Z M762.28,53 L762.4,51.76 L758.72,51.76 L758.72,43.2 L753.56,43.2 L753.44,44.34 L757.1,44.5 L757.1,51.76 L753.42,51.76 L753.42,53 L762.28,53 Z M768.42,51.9 C769.24,51.9 770,51.54 770.6,51.06 C770.56,49.36 770.54,47.38 770.54,44.64 C769.98,44.46 769.44,44.36 768.92,44.36 C767.12,44.36 765.72,45.7 765.72,48.18 C765.72,50.68 766.84,51.9 768.42,51.9 Z M770.78,53.04 L770.68,52.02 C769.98,52.68 769,53.24 767.8,53.24 C765.68,53.24 764.12,51.5 764.12,48.6 C764.12,45.02 766.68,42.98 769.66,42.98 C769.96,42.98 770.26,43 770.54,43.04 L770.54,39.02 L772.16,38.88 L772.16,43.24 C772.16,47.64 772.2,50.74 772.3,52.96 L770.78,53.04 Z M780.58,53 L780.7,50.68 L778.32,50.68 L778.2,53 L780.58,53 Z M793.74,43.12 C788.74,42.74 787.06,44.34 787.06,45.9 C787.06,48.36 792.54,48.64 792.54,50.38 C792.54,51.26 791.32,51.98 787.04,51.64 L786.98,53.08 C792.48,53.38 794.22,51.84 794.22,50.24 C794.22,47.74 788.7,47.3 788.7,45.68 C788.7,44.88 789.78,44.2 793.8,44.56 L793.74,43.12 Z M805.2,53.16 L805.38,51.8 C802.1,51.74 801.16,51.3 801.16,49.6 L801.16,44.46 L805.16,44.46 L805.16,43.2 L801.16,43.2 L801.16,40.34 L799.54,40.48 L799.54,43.2 L797.68,43.2 L797.52,44.46 L799.54,44.46 L799.54,49.86 C799.54,52.28 800.96,53.22 805.2,53.16 Z M811.96,51.96 C812.94,51.96 813.98,51.5 814.74,50.9 C814.72,50.26 814.7,49.54 814.7,48.58 C811.12,48.2 809.94,48.98 809.94,50.32 C809.94,51.36 810.74,51.96 811.96,51.96 Z M814.96,53.06 C814.94,52.86 814.86,52.24 814.82,51.8 C814.02,52.54 812.88,53.24 811.34,53.24 C809.56,53.24 808.34,52.28 808.34,50.7 C808.34,48.68 810.34,47.16 814.68,47.42 C814.54,45.16 813.3,44.58 808.92,44.42 L809.1,43.02 C814.76,43.18 816.28,44.36 816.28,48.14 C816.28,50.18 816.36,51.56 816.44,52.96 L814.96,53.06 Z M819.6,48.26 C819.6,51.26 821.26,53.48 827.2,53.08 L827.38,51.72 C822.58,51.94 821.2,50.62 821.2,48.04 C821.2,45.96 822.18,44.58 827.24,44.6 L827.12,43.06 C821.42,43.18 819.6,45.56 819.6,48.26 Z M837.56,53.12 L839.28,52.88 L835.52,47.9 C836.76,46.44 837.94,44.86 839.06,43.28 L837.4,43.16 C836.38,44.66 835.32,46.04 834.16,47.4 L832.64,47.44 L832.64,38.88 L831.02,39.02 L831.02,53 L832.64,53 L832.64,48.64 L834.1,48.6 L837.56,53.12 Z" id="--ReactNative.Androi" fill="#171219"></path>
        </g>
    </g>
</svg>